G75*
G70*
%OFA0B0*%
%FSLAX24Y24*%
%IPPOS*%
%LPD*%
%AMOC8*
5,1,8,0,0,1.08239X$1,22.5*
%
%ADD10C,0.0000*%
%ADD11C,0.1300*%
%ADD12R,0.0634X0.0634*%
%ADD13C,0.1024*%
%ADD14R,0.0670X0.0355*%
%ADD15R,0.0540X0.0620*%
%ADD16R,0.0620X0.0540*%
%ADD17R,0.0276X0.0906*%
%ADD18R,0.0965X0.0197*%
%ADD19C,0.0197*%
%ADD20C,0.0237*%
%ADD21R,0.0316X0.0631*%
%ADD22C,0.0177*%
%ADD23C,0.0316*%
%ADD24R,0.1418X0.1221*%
%ADD25C,0.0906*%
%ADD26R,0.0620X0.0413*%
%ADD27R,0.0512X0.0512*%
D10*
X001029Y001715D02*
X001029Y020612D01*
X001973Y020612D02*
X001975Y020662D01*
X001981Y020712D01*
X001991Y020761D01*
X002005Y020809D01*
X002022Y020856D01*
X002043Y020901D01*
X002068Y020945D01*
X002096Y020986D01*
X002128Y021025D01*
X002162Y021062D01*
X002199Y021096D01*
X002239Y021126D01*
X002281Y021153D01*
X002325Y021177D01*
X002371Y021198D01*
X002418Y021214D01*
X002466Y021227D01*
X002516Y021236D01*
X002565Y021241D01*
X002616Y021242D01*
X002666Y021239D01*
X002715Y021232D01*
X002764Y021221D01*
X002812Y021206D01*
X002858Y021188D01*
X002903Y021166D01*
X002946Y021140D01*
X002987Y021111D01*
X003026Y021079D01*
X003062Y021044D01*
X003094Y021006D01*
X003124Y020966D01*
X003151Y020923D01*
X003174Y020879D01*
X003193Y020833D01*
X003209Y020785D01*
X003221Y020736D01*
X003229Y020687D01*
X003233Y020637D01*
X003233Y020587D01*
X003229Y020537D01*
X003221Y020488D01*
X003209Y020439D01*
X003193Y020391D01*
X003174Y020345D01*
X003151Y020301D01*
X003124Y020258D01*
X003094Y020218D01*
X003062Y020180D01*
X003026Y020145D01*
X002987Y020113D01*
X002946Y020084D01*
X002903Y020058D01*
X002858Y020036D01*
X002812Y020018D01*
X002764Y020003D01*
X002715Y019992D01*
X002666Y019985D01*
X002616Y019982D01*
X002565Y019983D01*
X002516Y019988D01*
X002466Y019997D01*
X002418Y020010D01*
X002371Y020026D01*
X002325Y020047D01*
X002281Y020071D01*
X002239Y020098D01*
X002199Y020128D01*
X002162Y020162D01*
X002128Y020199D01*
X002096Y020238D01*
X002068Y020279D01*
X002043Y020323D01*
X002022Y020368D01*
X002005Y020415D01*
X001991Y020463D01*
X001981Y020512D01*
X001975Y020562D01*
X001973Y020612D01*
X001028Y020612D02*
X001030Y020689D01*
X001036Y020766D01*
X001045Y020843D01*
X001058Y020919D01*
X001075Y020995D01*
X001096Y021069D01*
X001120Y021143D01*
X001148Y021215D01*
X001179Y021285D01*
X001214Y021354D01*
X001252Y021422D01*
X001293Y021487D01*
X001338Y021550D01*
X001386Y021611D01*
X001436Y021670D01*
X001489Y021726D01*
X001545Y021779D01*
X001604Y021829D01*
X001665Y021877D01*
X001728Y021922D01*
X001793Y021963D01*
X001861Y022001D01*
X001930Y022036D01*
X002000Y022067D01*
X002072Y022095D01*
X002146Y022119D01*
X002220Y022140D01*
X002296Y022157D01*
X002372Y022170D01*
X002449Y022179D01*
X002526Y022185D01*
X002603Y022187D01*
X034887Y022187D01*
X034257Y020612D02*
X034259Y020662D01*
X034265Y020712D01*
X034275Y020761D01*
X034289Y020809D01*
X034306Y020856D01*
X034327Y020901D01*
X034352Y020945D01*
X034380Y020986D01*
X034412Y021025D01*
X034446Y021062D01*
X034483Y021096D01*
X034523Y021126D01*
X034565Y021153D01*
X034609Y021177D01*
X034655Y021198D01*
X034702Y021214D01*
X034750Y021227D01*
X034800Y021236D01*
X034849Y021241D01*
X034900Y021242D01*
X034950Y021239D01*
X034999Y021232D01*
X035048Y021221D01*
X035096Y021206D01*
X035142Y021188D01*
X035187Y021166D01*
X035230Y021140D01*
X035271Y021111D01*
X035310Y021079D01*
X035346Y021044D01*
X035378Y021006D01*
X035408Y020966D01*
X035435Y020923D01*
X035458Y020879D01*
X035477Y020833D01*
X035493Y020785D01*
X035505Y020736D01*
X035513Y020687D01*
X035517Y020637D01*
X035517Y020587D01*
X035513Y020537D01*
X035505Y020488D01*
X035493Y020439D01*
X035477Y020391D01*
X035458Y020345D01*
X035435Y020301D01*
X035408Y020258D01*
X035378Y020218D01*
X035346Y020180D01*
X035310Y020145D01*
X035271Y020113D01*
X035230Y020084D01*
X035187Y020058D01*
X035142Y020036D01*
X035096Y020018D01*
X035048Y020003D01*
X034999Y019992D01*
X034950Y019985D01*
X034900Y019982D01*
X034849Y019983D01*
X034800Y019988D01*
X034750Y019997D01*
X034702Y020010D01*
X034655Y020026D01*
X034609Y020047D01*
X034565Y020071D01*
X034523Y020098D01*
X034483Y020128D01*
X034446Y020162D01*
X034412Y020199D01*
X034380Y020238D01*
X034352Y020279D01*
X034327Y020323D01*
X034306Y020368D01*
X034289Y020415D01*
X034275Y020463D01*
X034265Y020512D01*
X034259Y020562D01*
X034257Y020612D01*
X034887Y022188D02*
X034971Y022177D01*
X035054Y022161D01*
X035137Y022142D01*
X035219Y022119D01*
X035299Y022092D01*
X035378Y022061D01*
X035456Y022026D01*
X035531Y021988D01*
X035605Y021946D01*
X035677Y021901D01*
X035747Y021852D01*
X035814Y021800D01*
X035878Y021745D01*
X035940Y021687D01*
X035999Y021626D01*
X036055Y021563D01*
X036108Y021496D01*
X036158Y021428D01*
X036205Y021357D01*
X036248Y021284D01*
X036287Y021208D01*
X036323Y021132D01*
X036355Y021053D01*
X036384Y020973D01*
X036408Y020892D01*
X036429Y020810D01*
X036446Y020726D01*
X036459Y020642D01*
X036467Y020558D01*
X036472Y020473D01*
X036473Y020388D01*
X036469Y020304D01*
X036462Y020219D01*
X036462Y001321D01*
X036450Y001249D01*
X036434Y001178D01*
X036414Y001108D01*
X036391Y001039D01*
X036364Y000971D01*
X036334Y000905D01*
X036300Y000840D01*
X036263Y000778D01*
X036222Y000717D01*
X036179Y000659D01*
X036132Y000602D01*
X036083Y000549D01*
X036031Y000498D01*
X035976Y000450D01*
X035919Y000404D01*
X035860Y000362D01*
X035798Y000323D01*
X035735Y000287D01*
X035669Y000255D01*
X035603Y000226D01*
X035534Y000201D01*
X035465Y000179D01*
X035394Y000161D01*
X035323Y000147D01*
X035251Y000136D01*
X035178Y000129D01*
X035105Y000126D01*
X035032Y000127D01*
X034960Y000132D01*
X034887Y000140D01*
X002603Y000140D01*
X001973Y001715D02*
X001975Y001765D01*
X001981Y001815D01*
X001991Y001864D01*
X002005Y001912D01*
X002022Y001959D01*
X002043Y002004D01*
X002068Y002048D01*
X002096Y002089D01*
X002128Y002128D01*
X002162Y002165D01*
X002199Y002199D01*
X002239Y002229D01*
X002281Y002256D01*
X002325Y002280D01*
X002371Y002301D01*
X002418Y002317D01*
X002466Y002330D01*
X002516Y002339D01*
X002565Y002344D01*
X002616Y002345D01*
X002666Y002342D01*
X002715Y002335D01*
X002764Y002324D01*
X002812Y002309D01*
X002858Y002291D01*
X002903Y002269D01*
X002946Y002243D01*
X002987Y002214D01*
X003026Y002182D01*
X003062Y002147D01*
X003094Y002109D01*
X003124Y002069D01*
X003151Y002026D01*
X003174Y001982D01*
X003193Y001936D01*
X003209Y001888D01*
X003221Y001839D01*
X003229Y001790D01*
X003233Y001740D01*
X003233Y001690D01*
X003229Y001640D01*
X003221Y001591D01*
X003209Y001542D01*
X003193Y001494D01*
X003174Y001448D01*
X003151Y001404D01*
X003124Y001361D01*
X003094Y001321D01*
X003062Y001283D01*
X003026Y001248D01*
X002987Y001216D01*
X002946Y001187D01*
X002903Y001161D01*
X002858Y001139D01*
X002812Y001121D01*
X002764Y001106D01*
X002715Y001095D01*
X002666Y001088D01*
X002616Y001085D01*
X002565Y001086D01*
X002516Y001091D01*
X002466Y001100D01*
X002418Y001113D01*
X002371Y001129D01*
X002325Y001150D01*
X002281Y001174D01*
X002239Y001201D01*
X002199Y001231D01*
X002162Y001265D01*
X002128Y001302D01*
X002096Y001341D01*
X002068Y001382D01*
X002043Y001426D01*
X002022Y001471D01*
X002005Y001518D01*
X001991Y001566D01*
X001981Y001615D01*
X001975Y001665D01*
X001973Y001715D01*
X001028Y001715D02*
X001030Y001638D01*
X001036Y001561D01*
X001045Y001484D01*
X001058Y001408D01*
X001075Y001332D01*
X001096Y001258D01*
X001120Y001184D01*
X001148Y001112D01*
X001179Y001042D01*
X001214Y000973D01*
X001252Y000905D01*
X001293Y000840D01*
X001338Y000777D01*
X001386Y000716D01*
X001436Y000657D01*
X001489Y000601D01*
X001545Y000548D01*
X001604Y000498D01*
X001665Y000450D01*
X001728Y000405D01*
X001793Y000364D01*
X001861Y000326D01*
X001930Y000291D01*
X002000Y000260D01*
X002072Y000232D01*
X002146Y000208D01*
X002220Y000187D01*
X002296Y000170D01*
X002372Y000157D01*
X002449Y000148D01*
X002526Y000142D01*
X002603Y000140D01*
X002545Y004668D02*
X002547Y004687D01*
X002552Y004706D01*
X002562Y004722D01*
X002574Y004737D01*
X002589Y004749D01*
X002605Y004759D01*
X002624Y004764D01*
X002643Y004766D01*
X002662Y004764D01*
X002681Y004759D01*
X002697Y004749D01*
X002712Y004737D01*
X002724Y004722D01*
X002734Y004706D01*
X002739Y004687D01*
X002741Y004668D01*
X002739Y004649D01*
X002734Y004630D01*
X002724Y004614D01*
X002712Y004599D01*
X002697Y004587D01*
X002681Y004577D01*
X002662Y004572D01*
X002643Y004570D01*
X002624Y004572D01*
X002605Y004577D01*
X002589Y004587D01*
X002574Y004599D01*
X002562Y004614D01*
X002552Y004630D01*
X002547Y004649D01*
X002545Y004668D01*
X002545Y006242D02*
X002547Y006261D01*
X002552Y006280D01*
X002562Y006296D01*
X002574Y006311D01*
X002589Y006323D01*
X002605Y006333D01*
X002624Y006338D01*
X002643Y006340D01*
X002662Y006338D01*
X002681Y006333D01*
X002697Y006323D01*
X002712Y006311D01*
X002724Y006296D01*
X002734Y006280D01*
X002739Y006261D01*
X002741Y006242D01*
X002739Y006223D01*
X002734Y006204D01*
X002724Y006188D01*
X002712Y006173D01*
X002697Y006161D01*
X002681Y006151D01*
X002662Y006146D01*
X002643Y006144D01*
X002624Y006146D01*
X002605Y006151D01*
X002589Y006161D01*
X002574Y006173D01*
X002562Y006188D01*
X002552Y006204D01*
X002547Y006223D01*
X002545Y006242D01*
X014316Y019431D02*
X014318Y019475D01*
X014324Y019519D01*
X014334Y019562D01*
X014347Y019604D01*
X014365Y019644D01*
X014386Y019683D01*
X014410Y019720D01*
X014437Y019755D01*
X014468Y019787D01*
X014501Y019816D01*
X014537Y019842D01*
X014575Y019864D01*
X014615Y019883D01*
X014656Y019899D01*
X014699Y019911D01*
X014742Y019919D01*
X014786Y019923D01*
X014830Y019923D01*
X014874Y019919D01*
X014917Y019911D01*
X014960Y019899D01*
X015001Y019883D01*
X015041Y019864D01*
X015079Y019842D01*
X015115Y019816D01*
X015148Y019787D01*
X015179Y019755D01*
X015206Y019720D01*
X015230Y019683D01*
X015251Y019644D01*
X015269Y019604D01*
X015282Y019562D01*
X015292Y019519D01*
X015298Y019475D01*
X015300Y019431D01*
X015298Y019387D01*
X015292Y019343D01*
X015282Y019300D01*
X015269Y019258D01*
X015251Y019218D01*
X015230Y019179D01*
X015206Y019142D01*
X015179Y019107D01*
X015148Y019075D01*
X015115Y019046D01*
X015079Y019020D01*
X015041Y018998D01*
X015001Y018979D01*
X014960Y018963D01*
X014917Y018951D01*
X014874Y018943D01*
X014830Y018939D01*
X014786Y018939D01*
X014742Y018943D01*
X014699Y018951D01*
X014656Y018963D01*
X014615Y018979D01*
X014575Y018998D01*
X014537Y019020D01*
X014501Y019046D01*
X014468Y019075D01*
X014437Y019107D01*
X014410Y019142D01*
X014386Y019179D01*
X014365Y019218D01*
X014347Y019258D01*
X014334Y019300D01*
X014324Y019343D01*
X014318Y019387D01*
X014316Y019431D01*
X026087Y021400D02*
X026089Y021423D01*
X026095Y021446D01*
X026105Y021467D01*
X026118Y021487D01*
X026134Y021504D01*
X026153Y021518D01*
X026174Y021528D01*
X026196Y021535D01*
X026219Y021538D01*
X026243Y021537D01*
X026265Y021532D01*
X026287Y021523D01*
X026307Y021511D01*
X026325Y021495D01*
X026339Y021477D01*
X026351Y021457D01*
X026359Y021435D01*
X026363Y021412D01*
X026363Y021388D01*
X026359Y021365D01*
X026351Y021343D01*
X026339Y021323D01*
X026325Y021305D01*
X026307Y021289D01*
X026287Y021277D01*
X026265Y021268D01*
X026243Y021263D01*
X026219Y021262D01*
X026196Y021265D01*
X026174Y021272D01*
X026153Y021282D01*
X026134Y021296D01*
X026118Y021313D01*
X026105Y021333D01*
X026095Y021354D01*
X026089Y021377D01*
X026087Y021400D01*
X027269Y021400D02*
X027271Y021423D01*
X027277Y021446D01*
X027287Y021467D01*
X027300Y021487D01*
X027316Y021504D01*
X027335Y021518D01*
X027356Y021528D01*
X027378Y021535D01*
X027401Y021538D01*
X027425Y021537D01*
X027447Y021532D01*
X027469Y021523D01*
X027489Y021511D01*
X027507Y021495D01*
X027521Y021477D01*
X027533Y021457D01*
X027541Y021435D01*
X027545Y021412D01*
X027545Y021388D01*
X027541Y021365D01*
X027533Y021343D01*
X027521Y021323D01*
X027507Y021305D01*
X027489Y021289D01*
X027469Y021277D01*
X027447Y021268D01*
X027425Y021263D01*
X027401Y021262D01*
X027378Y021265D01*
X027356Y021272D01*
X027335Y021282D01*
X027316Y021296D01*
X027300Y021313D01*
X027287Y021333D01*
X027277Y021354D01*
X027271Y021377D01*
X027269Y021400D01*
X034257Y001715D02*
X034259Y001765D01*
X034265Y001815D01*
X034275Y001864D01*
X034289Y001912D01*
X034306Y001959D01*
X034327Y002004D01*
X034352Y002048D01*
X034380Y002089D01*
X034412Y002128D01*
X034446Y002165D01*
X034483Y002199D01*
X034523Y002229D01*
X034565Y002256D01*
X034609Y002280D01*
X034655Y002301D01*
X034702Y002317D01*
X034750Y002330D01*
X034800Y002339D01*
X034849Y002344D01*
X034900Y002345D01*
X034950Y002342D01*
X034999Y002335D01*
X035048Y002324D01*
X035096Y002309D01*
X035142Y002291D01*
X035187Y002269D01*
X035230Y002243D01*
X035271Y002214D01*
X035310Y002182D01*
X035346Y002147D01*
X035378Y002109D01*
X035408Y002069D01*
X035435Y002026D01*
X035458Y001982D01*
X035477Y001936D01*
X035493Y001888D01*
X035505Y001839D01*
X035513Y001790D01*
X035517Y001740D01*
X035517Y001690D01*
X035513Y001640D01*
X035505Y001591D01*
X035493Y001542D01*
X035477Y001494D01*
X035458Y001448D01*
X035435Y001404D01*
X035408Y001361D01*
X035378Y001321D01*
X035346Y001283D01*
X035310Y001248D01*
X035271Y001216D01*
X035230Y001187D01*
X035187Y001161D01*
X035142Y001139D01*
X035096Y001121D01*
X035048Y001106D01*
X034999Y001095D01*
X034950Y001088D01*
X034900Y001085D01*
X034849Y001086D01*
X034800Y001091D01*
X034750Y001100D01*
X034702Y001113D01*
X034655Y001129D01*
X034609Y001150D01*
X034565Y001174D01*
X034523Y001201D01*
X034483Y001231D01*
X034446Y001265D01*
X034412Y001302D01*
X034380Y001341D01*
X034352Y001382D01*
X034327Y001426D01*
X034306Y001471D01*
X034289Y001518D01*
X034275Y001566D01*
X034265Y001615D01*
X034259Y001665D01*
X034257Y001715D01*
D11*
X034887Y001715D03*
X034887Y020612D03*
X002603Y020612D03*
X002603Y001715D03*
D12*
X004375Y019431D03*
X025241Y019431D03*
D13*
X014808Y019431D03*
D14*
X025950Y017857D03*
X027288Y017857D03*
D15*
X028499Y019825D03*
X029267Y019825D03*
X017357Y016282D03*
X016589Y016282D03*
X015783Y016282D03*
X015015Y016282D03*
X003184Y015888D03*
X002416Y015888D03*
X002416Y017069D03*
X003184Y017069D03*
X003184Y018250D03*
X002416Y018250D03*
X002416Y014707D03*
X003184Y014707D03*
X003184Y013526D03*
X002416Y013526D03*
X002416Y012345D03*
X003184Y012345D03*
X004385Y006636D03*
X005153Y006636D03*
X005350Y000927D03*
X004582Y000927D03*
X006550Y001026D03*
X007318Y001026D03*
X010487Y001026D03*
X011255Y001026D03*
D16*
X026619Y019047D03*
X027407Y019047D03*
X027407Y019815D03*
X026619Y019815D03*
D17*
X011168Y005691D03*
X010668Y005691D03*
X010168Y005691D03*
X009668Y005691D03*
X009168Y005691D03*
X008668Y005691D03*
X008168Y005691D03*
X007668Y005691D03*
X007168Y005691D03*
X006668Y005691D03*
X006168Y005691D03*
X005668Y005691D03*
X005168Y005691D03*
X004668Y005691D03*
X003353Y008762D03*
X002853Y008762D03*
X002353Y008762D03*
X001853Y008762D03*
X001853Y010809D03*
X002353Y010809D03*
X002853Y010809D03*
X003353Y010809D03*
X004668Y002069D03*
X005168Y002069D03*
X005668Y002069D03*
X006168Y002069D03*
X006668Y002069D03*
X007168Y002069D03*
X007668Y002069D03*
X008168Y002069D03*
X008668Y002069D03*
X009168Y002069D03*
X009668Y002069D03*
X010168Y002069D03*
X010668Y002069D03*
X011168Y002069D03*
D18*
X003036Y004943D03*
X003036Y005199D03*
X003036Y005455D03*
X003036Y005711D03*
X003036Y005967D03*
D19*
X001500Y006517D02*
X001500Y007109D01*
X002092Y007109D01*
X002092Y006517D01*
X001500Y006517D01*
X001500Y006713D02*
X002092Y006713D01*
X002092Y006909D02*
X001500Y006909D01*
X001500Y007105D02*
X002092Y007105D01*
X001500Y004393D02*
X001500Y003801D01*
X001500Y004393D02*
X002092Y004393D01*
X002092Y003801D01*
X001500Y003801D01*
X001500Y003997D02*
X002092Y003997D01*
X002092Y004193D02*
X001500Y004193D01*
X001500Y004389D02*
X002092Y004389D01*
D20*
X002643Y004668D03*
X002643Y006242D03*
D21*
X025930Y020711D03*
X026521Y020711D03*
X027702Y020711D03*
D22*
X028104Y021056D02*
X028362Y021056D01*
X028362Y020878D01*
X028104Y020878D01*
X028104Y021056D01*
X028104Y021054D02*
X028362Y021054D01*
X028362Y021922D02*
X028104Y021922D01*
X028362Y021922D02*
X028362Y021744D01*
X028104Y021744D01*
X028104Y021922D01*
X028104Y021920D02*
X028362Y021920D01*
X025528Y021922D02*
X025270Y021922D01*
X025528Y021922D02*
X025528Y021744D01*
X025270Y021744D01*
X025270Y021922D01*
X025270Y021920D02*
X025528Y021920D01*
X025528Y021056D02*
X025270Y021056D01*
X025528Y021056D02*
X025528Y020878D01*
X025270Y020878D01*
X025270Y021056D01*
X025270Y021054D02*
X025528Y021054D01*
D23*
X026225Y021400D03*
X027407Y021400D03*
D24*
X031344Y020770D03*
X031344Y018093D03*
D25*
X029745Y018447D02*
X029155Y018447D01*
D26*
X028297Y018447D03*
X028297Y017857D03*
X028297Y019038D03*
D27*
X003588Y006636D03*
X003588Y003093D03*
M02*
