%
M48
M72
T01C0.0120
T02C0.0197
T03C0.0276
T04C0.0315
T05C0.0394
T06C0.0984
T07C0.1260
%
T01
X4218Y1321
X5773Y1360
X5773Y1124
X7918Y1321
X8509Y1321
X9946Y986
X6737Y2699
X6540Y3486
X5950Y3486
X4769Y3683
X5458Y4766
X5162Y5061
X4178Y6046
X3981Y6636
X2013Y5849
X3627Y4943
X2603Y4077
X7328Y3683
X7721Y6242
X7131Y7817
X6540Y7916
X4178Y8014
X3194Y9392
X3784Y12345
X2013Y13526
X2407Y15297
X2407Y16479
X2407Y17660
X6737Y15101
X6344Y14904
X7131Y14904
X9887Y12148
X10281Y11754
X10674Y12148
X9296Y11951
X8903Y11557
X12800Y14668
X13036Y14904
X13430Y14904
X13824Y14904
X12446Y14904
X11658Y14904
X18942Y11951
X19729Y11951
X16186Y8998
X15792Y7620
X18351Y8408
X22131Y8408
X25832Y8408
X27210Y8112
X29966Y8408
X31934Y9097
X34099Y8408
X33903Y4471
X32525Y3683
X30162Y4471
X26225Y4471
X22288Y4471
X18155Y4471
X15989Y3683
X11658Y5849
X28745Y19077
X27013Y20219
T02
X2643Y6242
X2643Y4668
T03
X26225Y21400
X27407Y21400
T04
X3588Y6636
X3588Y3093
T05
X4375Y19431
X25241Y19431
T06
X14808Y19431
T07
X2603Y1715
X2603Y20612
X34887Y20612
X34887Y1715
M30
