G75*
G70*
%OFA0B0*%
%FSLAX24Y24*%
%IPPOS*%
%LPD*%
%AMOC8*
5,1,8,0,0,1.08239X$1,22.5*
%
%ADD10C,0.0000*%
%ADD11C,0.0740*%
%ADD12OC8,0.0709*%
%ADD13R,0.0591X0.0276*%
%ADD14R,0.0315X0.0394*%
%ADD15R,0.0925X0.0157*%
%ADD16R,0.0748X0.0748*%
%ADD17R,0.0551X0.0433*%
%ADD18R,0.0787X0.0300*%
%ADD19R,0.0512X0.0591*%
%ADD20R,0.0591X0.0512*%
%ADD21C,0.0167*%
%ADD22R,0.0551X0.0709*%
%ADD23R,0.0173X0.0453*%
%ADD24R,0.0248X0.0453*%
%ADD25OC8,0.0768*%
%ADD26OC8,0.0240*%
%ADD27C,0.0160*%
%ADD28C,0.0080*%
%ADD29C,0.0200*%
%ADD30R,0.0531X0.0531*%
%ADD31C,0.0240*%
%ADD32C,0.0320*%
%ADD33R,0.0356X0.0356*%
D10*
X002159Y000141D02*
X034443Y000141D01*
X034520Y000143D01*
X034597Y000149D01*
X034674Y000158D01*
X034750Y000171D01*
X034826Y000188D01*
X034900Y000209D01*
X034974Y000233D01*
X035046Y000261D01*
X035116Y000292D01*
X035185Y000327D01*
X035253Y000365D01*
X035318Y000406D01*
X035381Y000451D01*
X035442Y000499D01*
X035501Y000549D01*
X035557Y000602D01*
X035610Y000658D01*
X035660Y000717D01*
X035708Y000778D01*
X035753Y000841D01*
X035794Y000906D01*
X035832Y000974D01*
X035867Y001043D01*
X035898Y001113D01*
X035926Y001185D01*
X035950Y001259D01*
X035971Y001333D01*
X035988Y001409D01*
X036001Y001485D01*
X036010Y001562D01*
X036016Y001639D01*
X036018Y001716D01*
X036018Y020614D01*
X036016Y020691D01*
X036010Y020768D01*
X036001Y020845D01*
X035988Y020921D01*
X035971Y020997D01*
X035950Y021071D01*
X035926Y021145D01*
X035898Y021217D01*
X035867Y021287D01*
X035832Y021356D01*
X035794Y021424D01*
X035753Y021489D01*
X035708Y021552D01*
X035660Y021613D01*
X035610Y021672D01*
X035557Y021728D01*
X035501Y021781D01*
X035442Y021831D01*
X035381Y021879D01*
X035318Y021924D01*
X035253Y021965D01*
X035185Y022003D01*
X035116Y022038D01*
X035046Y022069D01*
X034974Y022097D01*
X034900Y022121D01*
X034826Y022142D01*
X034750Y022159D01*
X034674Y022172D01*
X034597Y022181D01*
X034520Y022187D01*
X034443Y022189D01*
X034443Y022188D02*
X010821Y022188D01*
X010821Y021401D01*
X006884Y021401D01*
X006884Y022188D01*
X002159Y022188D01*
X000585Y021007D02*
X000585Y002110D01*
X001529Y001716D02*
X001531Y001766D01*
X001537Y001816D01*
X001547Y001865D01*
X001561Y001913D01*
X001578Y001960D01*
X001599Y002005D01*
X001624Y002049D01*
X001652Y002090D01*
X001684Y002129D01*
X001718Y002166D01*
X001755Y002200D01*
X001795Y002230D01*
X001837Y002257D01*
X001881Y002281D01*
X001927Y002302D01*
X001974Y002318D01*
X002022Y002331D01*
X002072Y002340D01*
X002121Y002345D01*
X002172Y002346D01*
X002222Y002343D01*
X002271Y002336D01*
X002320Y002325D01*
X002368Y002310D01*
X002414Y002292D01*
X002459Y002270D01*
X002502Y002244D01*
X002543Y002215D01*
X002582Y002183D01*
X002618Y002148D01*
X002650Y002110D01*
X002680Y002070D01*
X002707Y002027D01*
X002730Y001983D01*
X002749Y001937D01*
X002765Y001889D01*
X002777Y001840D01*
X002785Y001791D01*
X002789Y001741D01*
X002789Y001691D01*
X002785Y001641D01*
X002777Y001592D01*
X002765Y001543D01*
X002749Y001495D01*
X002730Y001449D01*
X002707Y001405D01*
X002680Y001362D01*
X002650Y001322D01*
X002618Y001284D01*
X002582Y001249D01*
X002543Y001217D01*
X002502Y001188D01*
X002459Y001162D01*
X002414Y001140D01*
X002368Y001122D01*
X002320Y001107D01*
X002271Y001096D01*
X002222Y001089D01*
X002172Y001086D01*
X002121Y001087D01*
X002072Y001092D01*
X002022Y001101D01*
X001974Y001114D01*
X001927Y001130D01*
X001881Y001151D01*
X001837Y001175D01*
X001795Y001202D01*
X001755Y001232D01*
X001718Y001266D01*
X001684Y001303D01*
X001652Y001342D01*
X001624Y001383D01*
X001599Y001427D01*
X001578Y001472D01*
X001561Y001519D01*
X001547Y001567D01*
X001537Y001616D01*
X001531Y001666D01*
X001529Y001716D01*
X000584Y002110D02*
X000576Y002023D01*
X000573Y001935D01*
X000574Y001848D01*
X000580Y001760D01*
X000589Y001673D01*
X000603Y001587D01*
X000621Y001501D01*
X000643Y001417D01*
X000670Y001333D01*
X000700Y001251D01*
X000735Y001171D01*
X000773Y001092D01*
X000815Y001016D01*
X000861Y000941D01*
X000911Y000869D01*
X000964Y000799D01*
X001020Y000732D01*
X001080Y000668D01*
X001142Y000607D01*
X001208Y000549D01*
X001276Y000494D01*
X001347Y000443D01*
X001420Y000395D01*
X001496Y000351D01*
X001574Y000311D01*
X001653Y000274D01*
X001734Y000242D01*
X001817Y000213D01*
X001901Y000189D01*
X001986Y000169D01*
X002072Y000153D01*
X002159Y000141D01*
X001884Y006440D02*
X001886Y006461D01*
X001892Y006481D01*
X001901Y006501D01*
X001913Y006518D01*
X001928Y006532D01*
X001946Y006544D01*
X001966Y006552D01*
X001986Y006557D01*
X002007Y006558D01*
X002028Y006555D01*
X002048Y006549D01*
X002067Y006538D01*
X002084Y006525D01*
X002097Y006509D01*
X002108Y006491D01*
X002116Y006471D01*
X002120Y006451D01*
X002120Y006429D01*
X002116Y006409D01*
X002108Y006389D01*
X002097Y006371D01*
X002084Y006355D01*
X002067Y006342D01*
X002048Y006331D01*
X002028Y006325D01*
X002007Y006322D01*
X001986Y006323D01*
X001966Y006328D01*
X001946Y006336D01*
X001928Y006348D01*
X001913Y006362D01*
X001901Y006379D01*
X001892Y006399D01*
X001886Y006419D01*
X001884Y006440D01*
X001884Y008015D02*
X001886Y008036D01*
X001892Y008056D01*
X001901Y008076D01*
X001913Y008093D01*
X001928Y008107D01*
X001946Y008119D01*
X001966Y008127D01*
X001986Y008132D01*
X002007Y008133D01*
X002028Y008130D01*
X002048Y008124D01*
X002067Y008113D01*
X002084Y008100D01*
X002097Y008084D01*
X002108Y008066D01*
X002116Y008046D01*
X002120Y008026D01*
X002120Y008004D01*
X002116Y007984D01*
X002108Y007964D01*
X002097Y007946D01*
X002084Y007930D01*
X002067Y007917D01*
X002048Y007906D01*
X002028Y007900D01*
X002007Y007897D01*
X001986Y007898D01*
X001966Y007903D01*
X001946Y007911D01*
X001928Y007923D01*
X001913Y007937D01*
X001901Y007954D01*
X001892Y007974D01*
X001886Y007994D01*
X001884Y008015D01*
X001529Y020614D02*
X001531Y020664D01*
X001537Y020714D01*
X001547Y020763D01*
X001561Y020811D01*
X001578Y020858D01*
X001599Y020903D01*
X001624Y020947D01*
X001652Y020988D01*
X001684Y021027D01*
X001718Y021064D01*
X001755Y021098D01*
X001795Y021128D01*
X001837Y021155D01*
X001881Y021179D01*
X001927Y021200D01*
X001974Y021216D01*
X002022Y021229D01*
X002072Y021238D01*
X002121Y021243D01*
X002172Y021244D01*
X002222Y021241D01*
X002271Y021234D01*
X002320Y021223D01*
X002368Y021208D01*
X002414Y021190D01*
X002459Y021168D01*
X002502Y021142D01*
X002543Y021113D01*
X002582Y021081D01*
X002618Y021046D01*
X002650Y021008D01*
X002680Y020968D01*
X002707Y020925D01*
X002730Y020881D01*
X002749Y020835D01*
X002765Y020787D01*
X002777Y020738D01*
X002785Y020689D01*
X002789Y020639D01*
X002789Y020589D01*
X002785Y020539D01*
X002777Y020490D01*
X002765Y020441D01*
X002749Y020393D01*
X002730Y020347D01*
X002707Y020303D01*
X002680Y020260D01*
X002650Y020220D01*
X002618Y020182D01*
X002582Y020147D01*
X002543Y020115D01*
X002502Y020086D01*
X002459Y020060D01*
X002414Y020038D01*
X002368Y020020D01*
X002320Y020005D01*
X002271Y019994D01*
X002222Y019987D01*
X002172Y019984D01*
X002121Y019985D01*
X002072Y019990D01*
X002022Y019999D01*
X001974Y020012D01*
X001927Y020028D01*
X001881Y020049D01*
X001837Y020073D01*
X001795Y020100D01*
X001755Y020130D01*
X001718Y020164D01*
X001684Y020201D01*
X001652Y020240D01*
X001624Y020281D01*
X001599Y020325D01*
X001578Y020370D01*
X001561Y020417D01*
X001547Y020465D01*
X001537Y020514D01*
X001531Y020564D01*
X001529Y020614D01*
X000585Y021007D02*
X000597Y021079D01*
X000613Y021150D01*
X000633Y021220D01*
X000656Y021289D01*
X000683Y021357D01*
X000713Y021423D01*
X000747Y021488D01*
X000784Y021550D01*
X000825Y021611D01*
X000868Y021669D01*
X000915Y021726D01*
X000964Y021779D01*
X001016Y021830D01*
X001071Y021878D01*
X001128Y021924D01*
X001187Y021966D01*
X001249Y022005D01*
X001312Y022041D01*
X001378Y022073D01*
X001444Y022102D01*
X001513Y022127D01*
X001582Y022149D01*
X001653Y022167D01*
X001724Y022181D01*
X001796Y022192D01*
X001869Y022199D01*
X001942Y022202D01*
X002015Y022201D01*
X002087Y022196D01*
X002160Y022188D01*
X019049Y021058D02*
X019051Y021099D01*
X019057Y021140D01*
X019067Y021180D01*
X019080Y021219D01*
X019097Y021256D01*
X019118Y021292D01*
X019142Y021326D01*
X019169Y021357D01*
X019198Y021385D01*
X019231Y021411D01*
X019265Y021433D01*
X019302Y021452D01*
X019340Y021467D01*
X019380Y021479D01*
X019420Y021487D01*
X019461Y021491D01*
X019503Y021491D01*
X019544Y021487D01*
X019584Y021479D01*
X019624Y021467D01*
X019662Y021452D01*
X019698Y021433D01*
X019733Y021411D01*
X019766Y021385D01*
X019795Y021357D01*
X019822Y021326D01*
X019846Y021292D01*
X019867Y021256D01*
X019884Y021219D01*
X019897Y021180D01*
X019907Y021140D01*
X019913Y021099D01*
X019915Y021058D01*
X019913Y021017D01*
X019907Y020976D01*
X019897Y020936D01*
X019884Y020897D01*
X019867Y020860D01*
X019846Y020824D01*
X019822Y020790D01*
X019795Y020759D01*
X019766Y020731D01*
X019733Y020705D01*
X019699Y020683D01*
X019662Y020664D01*
X019624Y020649D01*
X019584Y020637D01*
X019544Y020629D01*
X019503Y020625D01*
X019461Y020625D01*
X019420Y020629D01*
X019380Y020637D01*
X019340Y020649D01*
X019302Y020664D01*
X019266Y020683D01*
X019231Y020705D01*
X019198Y020731D01*
X019169Y020759D01*
X019142Y020790D01*
X019118Y020824D01*
X019097Y020860D01*
X019080Y020897D01*
X019067Y020936D01*
X019057Y020976D01*
X019051Y021017D01*
X019049Y021058D01*
X033813Y012740D02*
X033815Y012790D01*
X033821Y012840D01*
X033831Y012889D01*
X033845Y012937D01*
X033862Y012984D01*
X033883Y013029D01*
X033908Y013073D01*
X033936Y013114D01*
X033968Y013153D01*
X034002Y013190D01*
X034039Y013224D01*
X034079Y013254D01*
X034121Y013281D01*
X034165Y013305D01*
X034211Y013326D01*
X034258Y013342D01*
X034306Y013355D01*
X034356Y013364D01*
X034405Y013369D01*
X034456Y013370D01*
X034506Y013367D01*
X034555Y013360D01*
X034604Y013349D01*
X034652Y013334D01*
X034698Y013316D01*
X034743Y013294D01*
X034786Y013268D01*
X034827Y013239D01*
X034866Y013207D01*
X034902Y013172D01*
X034934Y013134D01*
X034964Y013094D01*
X034991Y013051D01*
X035014Y013007D01*
X035033Y012961D01*
X035049Y012913D01*
X035061Y012864D01*
X035069Y012815D01*
X035073Y012765D01*
X035073Y012715D01*
X035069Y012665D01*
X035061Y012616D01*
X035049Y012567D01*
X035033Y012519D01*
X035014Y012473D01*
X034991Y012429D01*
X034964Y012386D01*
X034934Y012346D01*
X034902Y012308D01*
X034866Y012273D01*
X034827Y012241D01*
X034786Y012212D01*
X034743Y012186D01*
X034698Y012164D01*
X034652Y012146D01*
X034604Y012131D01*
X034555Y012120D01*
X034506Y012113D01*
X034456Y012110D01*
X034405Y012111D01*
X034356Y012116D01*
X034306Y012125D01*
X034258Y012138D01*
X034211Y012154D01*
X034165Y012175D01*
X034121Y012199D01*
X034079Y012226D01*
X034039Y012256D01*
X034002Y012290D01*
X033968Y012327D01*
X033936Y012366D01*
X033908Y012407D01*
X033883Y012451D01*
X033862Y012496D01*
X033845Y012543D01*
X033831Y012591D01*
X033821Y012640D01*
X033815Y012690D01*
X033813Y012740D01*
X035053Y010180D02*
X035055Y010206D01*
X035061Y010232D01*
X035071Y010257D01*
X035084Y010280D01*
X035100Y010300D01*
X035120Y010318D01*
X035142Y010333D01*
X035165Y010345D01*
X035191Y010353D01*
X035217Y010357D01*
X035243Y010357D01*
X035269Y010353D01*
X035295Y010345D01*
X035319Y010333D01*
X035340Y010318D01*
X035360Y010300D01*
X035376Y010280D01*
X035389Y010257D01*
X035399Y010232D01*
X035405Y010206D01*
X035407Y010180D01*
X035405Y010154D01*
X035399Y010128D01*
X035389Y010103D01*
X035376Y010080D01*
X035360Y010060D01*
X035340Y010042D01*
X035318Y010027D01*
X035295Y010015D01*
X035269Y010007D01*
X035243Y010003D01*
X035217Y010003D01*
X035191Y010007D01*
X035165Y010015D01*
X035141Y010027D01*
X035120Y010042D01*
X035100Y010060D01*
X035084Y010080D01*
X035071Y010103D01*
X035061Y010128D01*
X035055Y010154D01*
X035053Y010180D01*
X035053Y008999D02*
X035055Y009025D01*
X035061Y009051D01*
X035071Y009076D01*
X035084Y009099D01*
X035100Y009119D01*
X035120Y009137D01*
X035142Y009152D01*
X035165Y009164D01*
X035191Y009172D01*
X035217Y009176D01*
X035243Y009176D01*
X035269Y009172D01*
X035295Y009164D01*
X035319Y009152D01*
X035340Y009137D01*
X035360Y009119D01*
X035376Y009099D01*
X035389Y009076D01*
X035399Y009051D01*
X035405Y009025D01*
X035407Y008999D01*
X035405Y008973D01*
X035399Y008947D01*
X035389Y008922D01*
X035376Y008899D01*
X035360Y008879D01*
X035340Y008861D01*
X035318Y008846D01*
X035295Y008834D01*
X035269Y008826D01*
X035243Y008822D01*
X035217Y008822D01*
X035191Y008826D01*
X035165Y008834D01*
X035141Y008846D01*
X035120Y008861D01*
X035100Y008879D01*
X035084Y008899D01*
X035071Y008922D01*
X035061Y008947D01*
X035055Y008973D01*
X035053Y008999D01*
X033813Y001716D02*
X033815Y001766D01*
X033821Y001816D01*
X033831Y001865D01*
X033845Y001913D01*
X033862Y001960D01*
X033883Y002005D01*
X033908Y002049D01*
X033936Y002090D01*
X033968Y002129D01*
X034002Y002166D01*
X034039Y002200D01*
X034079Y002230D01*
X034121Y002257D01*
X034165Y002281D01*
X034211Y002302D01*
X034258Y002318D01*
X034306Y002331D01*
X034356Y002340D01*
X034405Y002345D01*
X034456Y002346D01*
X034506Y002343D01*
X034555Y002336D01*
X034604Y002325D01*
X034652Y002310D01*
X034698Y002292D01*
X034743Y002270D01*
X034786Y002244D01*
X034827Y002215D01*
X034866Y002183D01*
X034902Y002148D01*
X034934Y002110D01*
X034964Y002070D01*
X034991Y002027D01*
X035014Y001983D01*
X035033Y001937D01*
X035049Y001889D01*
X035061Y001840D01*
X035069Y001791D01*
X035073Y001741D01*
X035073Y001691D01*
X035069Y001641D01*
X035061Y001592D01*
X035049Y001543D01*
X035033Y001495D01*
X035014Y001449D01*
X034991Y001405D01*
X034964Y001362D01*
X034934Y001322D01*
X034902Y001284D01*
X034866Y001249D01*
X034827Y001217D01*
X034786Y001188D01*
X034743Y001162D01*
X034698Y001140D01*
X034652Y001122D01*
X034604Y001107D01*
X034555Y001096D01*
X034506Y001089D01*
X034456Y001086D01*
X034405Y001087D01*
X034356Y001092D01*
X034306Y001101D01*
X034258Y001114D01*
X034211Y001130D01*
X034165Y001151D01*
X034121Y001175D01*
X034079Y001202D01*
X034039Y001232D01*
X034002Y001266D01*
X033968Y001303D01*
X033936Y001342D01*
X033908Y001383D01*
X033883Y001427D01*
X033862Y001472D01*
X033845Y001519D01*
X033831Y001567D01*
X033821Y001616D01*
X033815Y001666D01*
X033813Y001716D01*
D11*
X032770Y002606D03*
X032770Y004172D03*
X030210Y004172D03*
X028833Y004172D03*
X028833Y002606D03*
X030210Y002606D03*
X030210Y000826D03*
X028833Y000826D03*
X026273Y000826D03*
X024896Y000826D03*
X022336Y000826D03*
X020959Y000826D03*
X018399Y000826D03*
X018399Y002606D03*
X018399Y004172D03*
X020959Y004172D03*
X022336Y004172D03*
X022336Y002606D03*
X020959Y002606D03*
X024896Y002606D03*
X026273Y002606D03*
X026273Y004172D03*
X024896Y004172D03*
X024896Y005952D03*
X026273Y005952D03*
X026273Y007519D03*
X024896Y007519D03*
X022336Y007519D03*
X020959Y007519D03*
X020959Y005952D03*
X022336Y005952D03*
X018399Y005952D03*
X018399Y007519D03*
X018399Y009299D03*
X018399Y010865D03*
X020959Y010865D03*
X022336Y010865D03*
X022336Y009299D03*
X020959Y009299D03*
X024896Y009299D03*
X026273Y009299D03*
X026273Y010865D03*
X024896Y010865D03*
X024896Y012645D03*
X026273Y012645D03*
X028833Y012645D03*
X030210Y012645D03*
X032770Y012645D03*
X032770Y010865D03*
X032770Y009299D03*
X030210Y009299D03*
X028833Y009299D03*
X028833Y010865D03*
X030210Y010865D03*
X030210Y007519D03*
X028833Y007519D03*
X028833Y005952D03*
X030210Y005952D03*
X032770Y005952D03*
X032770Y007519D03*
X022336Y012645D03*
X020959Y012645D03*
X018399Y012645D03*
X010329Y005952D03*
X007769Y005952D03*
X006392Y005952D03*
X003832Y005952D03*
X003832Y004172D03*
X003832Y002606D03*
X006392Y002606D03*
X007769Y002606D03*
X007769Y004172D03*
X006392Y004172D03*
X010329Y004172D03*
X010329Y002606D03*
X010329Y000826D03*
X007769Y000826D03*
X006392Y000826D03*
X003832Y000826D03*
X032770Y000826D03*
D12*
X034443Y017858D03*
X019482Y017858D03*
D13*
X034541Y010476D03*
X034541Y009885D03*
X034541Y008704D03*
D14*
X034797Y008173D03*
X035663Y008173D03*
X035663Y011007D03*
X034797Y011007D03*
D15*
X002396Y007740D03*
X002396Y007484D03*
X002396Y007228D03*
X002396Y006972D03*
X002396Y006716D03*
D16*
X001155Y005869D03*
X001155Y008586D03*
D17*
X002905Y015821D03*
X002905Y016609D03*
D18*
X012120Y007972D03*
X012120Y007472D03*
X012120Y006972D03*
X012120Y006472D03*
X012120Y005972D03*
X012120Y005472D03*
X012120Y004972D03*
X012120Y004472D03*
X012120Y003972D03*
X012120Y003472D03*
X012120Y002972D03*
X012120Y002472D03*
X012120Y001972D03*
X012120Y001472D03*
X015821Y001472D03*
X015821Y001972D03*
X015821Y002472D03*
X015821Y002972D03*
X015821Y003472D03*
X015821Y003972D03*
X015821Y004472D03*
X015821Y004972D03*
X015821Y005472D03*
X015821Y005972D03*
X015821Y006472D03*
X015821Y006972D03*
X015821Y007472D03*
X015821Y007972D03*
D19*
X016746Y004078D03*
X017494Y004078D03*
X017494Y003291D03*
X016746Y003291D03*
X014474Y000732D03*
X013726Y000732D03*
D20*
X016923Y007444D03*
X016923Y008192D03*
X002861Y017706D03*
X002861Y018454D03*
D21*
X000963Y014991D02*
X000963Y014489D01*
X000963Y014991D02*
X001781Y014991D01*
X001781Y014489D01*
X000963Y014489D01*
X000963Y014655D02*
X001781Y014655D01*
X001781Y014821D02*
X000963Y014821D01*
X000963Y014987D02*
X001781Y014987D01*
X000963Y013991D02*
X000963Y013489D01*
X000963Y013991D02*
X001781Y013991D01*
X001781Y013489D01*
X000963Y013489D01*
X000963Y013655D02*
X001781Y013655D01*
X001781Y013821D02*
X000963Y013821D01*
X000963Y013987D02*
X001781Y013987D01*
X000963Y012991D02*
X000963Y012489D01*
X000963Y012991D02*
X001781Y012991D01*
X001781Y012489D01*
X000963Y012489D01*
X000963Y012655D02*
X001781Y012655D01*
X001781Y012821D02*
X000963Y012821D01*
X000963Y012987D02*
X001781Y012987D01*
X000963Y011991D02*
X000963Y011489D01*
X000963Y011991D02*
X001781Y011991D01*
X001781Y011489D01*
X000963Y011489D01*
X000963Y011655D02*
X001781Y011655D01*
X001781Y011821D02*
X000963Y011821D01*
X000963Y011987D02*
X001781Y011987D01*
X000963Y010991D02*
X000963Y010489D01*
X000963Y010991D02*
X001781Y010991D01*
X001781Y010489D01*
X000963Y010489D01*
X000963Y010655D02*
X001781Y010655D01*
X001781Y010821D02*
X000963Y010821D01*
X000963Y010987D02*
X001781Y010987D01*
D22*
X004443Y006834D03*
X005781Y006834D03*
X008380Y006834D03*
X009718Y006834D03*
X009718Y003389D03*
X008380Y003389D03*
X005781Y003389D03*
X004443Y003389D03*
X019108Y003389D03*
X020447Y003389D03*
X022947Y003389D03*
X024285Y003389D03*
X026982Y003389D03*
X028321Y003389D03*
X030821Y003389D03*
X032159Y003389D03*
X032159Y006736D03*
X030821Y006736D03*
X028321Y006736D03*
X026982Y006736D03*
X024384Y006736D03*
X023045Y006736D03*
X020348Y006736D03*
X019010Y006736D03*
X019108Y010082D03*
X020447Y010082D03*
X023045Y010082D03*
X024384Y010082D03*
X026982Y010082D03*
X028321Y010082D03*
X030919Y010082D03*
X032258Y010082D03*
X032258Y013429D03*
X030919Y013429D03*
X028321Y013429D03*
X026982Y013429D03*
X024285Y013429D03*
X022947Y013429D03*
X020348Y013429D03*
X019010Y013429D03*
D23*
X034285Y006627D03*
X034600Y006627D03*
X034600Y005860D03*
X034285Y005860D03*
D24*
X033933Y005860D03*
X034953Y005860D03*
X034953Y006627D03*
X033933Y006627D03*
D25*
X001545Y016015D03*
X001545Y018495D03*
D26*
X002239Y019002D03*
X003407Y017750D03*
X003714Y017750D03*
X007785Y017901D03*
X008105Y017741D03*
X008745Y017821D03*
X008505Y018061D03*
X009945Y018141D03*
X009148Y021007D03*
X008882Y021007D03*
X002159Y013724D03*
X002159Y012740D03*
X003144Y007818D03*
X003537Y007228D03*
X003144Y006834D03*
X004325Y007425D03*
X011214Y005653D03*
X012789Y004275D03*
X014431Y004472D03*
X014431Y004866D03*
X014665Y005981D03*
X014659Y006440D03*
X015151Y007425D03*
X017514Y004669D03*
X017907Y003291D03*
X017625Y002301D03*
X019465Y001981D03*
X015151Y003488D03*
X013145Y003021D03*
X013225Y002221D03*
X013355Y001716D03*
X014924Y000732D03*
X011214Y002700D03*
X009049Y002897D03*
X032081Y005456D03*
X035033Y007031D03*
D27*
X017907Y003291D02*
X017494Y003291D01*
X016746Y003291D02*
X016746Y003881D01*
X016655Y003972D01*
X015821Y003972D01*
X015821Y003472D02*
X015167Y003472D01*
X015151Y003488D01*
X016746Y003881D02*
X016746Y004078D01*
X017494Y004078D02*
X017494Y004649D01*
X017514Y004669D01*
X016923Y007444D02*
X016896Y007472D01*
X015821Y007472D01*
X015396Y007472D01*
X015151Y007425D01*
X012592Y004472D02*
X012120Y004472D01*
X012592Y004472D02*
X012789Y004275D01*
X014474Y000732D02*
X014924Y000732D01*
X003144Y006834D02*
X003065Y006716D01*
X002396Y006716D01*
D28*
X003242Y006440D02*
X003636Y006834D01*
X004443Y006834D01*
X004522Y006755D01*
X005132Y006755D01*
X005309Y006932D01*
X005309Y010574D01*
X010624Y010574D01*
X011214Y009984D01*
X011214Y006243D01*
X011486Y005972D01*
X012120Y005972D01*
X012089Y006440D02*
X011608Y006440D01*
X011411Y006637D01*
X011411Y010771D01*
X010837Y011740D01*
X001372Y011740D01*
X001372Y012740D02*
X002159Y012740D01*
X002159Y013724D02*
X001388Y013740D01*
X001372Y013740D01*
X001403Y014708D02*
X001372Y014740D01*
X001403Y014708D02*
X002258Y014708D01*
X002356Y014806D01*
X002356Y015594D01*
X001935Y016015D01*
X001545Y016015D01*
X002905Y015821D02*
X003551Y015821D01*
X004745Y017015D01*
X006345Y018301D01*
X008985Y018301D01*
X009705Y017581D01*
X010505Y017581D01*
X013705Y014381D01*
X013705Y004781D01*
X012895Y003972D01*
X012120Y003972D01*
X012136Y003488D02*
X012120Y003472D01*
X012136Y003488D02*
X012789Y003488D01*
X013970Y004669D01*
X013970Y010771D01*
X016628Y013429D01*
X019010Y013429D01*
X019010Y013645D01*
X019285Y013921D01*
X023026Y013921D01*
X022947Y013842D01*
X022947Y013429D01*
X023026Y013921D02*
X026963Y013921D01*
X026982Y013901D01*
X026982Y013429D01*
X026963Y013921D02*
X030703Y013921D01*
X030900Y013724D01*
X030900Y013448D01*
X030919Y013429D01*
X032258Y013429D02*
X032770Y012916D01*
X032770Y012645D01*
X030900Y010968D02*
X030506Y011362D01*
X026963Y011362D01*
X026982Y011342D01*
X026982Y010082D01*
X028321Y010082D02*
X028833Y009570D01*
X028833Y009299D01*
X030900Y010102D02*
X030919Y010082D01*
X030900Y010102D02*
X030900Y010968D01*
X032258Y010082D02*
X032770Y009570D01*
X032770Y009299D01*
X033262Y008015D02*
X031687Y008015D01*
X031490Y007818D01*
X031490Y005741D01*
X032265Y005741D01*
X032425Y005581D01*
X032425Y005261D01*
X032265Y005101D01*
X018345Y005101D01*
X016974Y006472D01*
X015821Y006472D01*
X014711Y006472D01*
X014659Y006440D01*
X014665Y005981D02*
X014594Y005972D01*
X015821Y005972D01*
X017154Y005972D01*
X018185Y004941D01*
X031465Y004941D01*
X031712Y004694D01*
X031884Y004866D01*
X032671Y004866D01*
X033340Y005535D01*
X033340Y006086D01*
X033498Y006243D01*
X034443Y006243D01*
X034600Y006401D01*
X034600Y006627D01*
X034285Y006627D02*
X034285Y006991D01*
X033262Y008015D01*
X032770Y007519D02*
X032770Y007129D01*
X033272Y006627D01*
X033933Y006627D01*
X034953Y006627D02*
X034953Y006950D01*
X035033Y007031D01*
X034953Y005860D02*
X034953Y005259D01*
X035427Y005259D01*
X034953Y005259D02*
X034600Y005259D01*
X034600Y005860D01*
X034285Y005860D02*
X034285Y005259D01*
X033933Y005259D01*
X033933Y005860D01*
X034285Y005259D02*
X034600Y005259D01*
X032770Y005952D02*
X032770Y006125D01*
X032159Y006736D01*
X031490Y005741D02*
X031490Y005653D01*
X031293Y005456D01*
X029718Y005456D01*
X029522Y005653D01*
X029522Y006830D01*
X028833Y007519D01*
X028321Y006736D02*
X028833Y006223D01*
X028833Y005952D01*
X030821Y006736D02*
X030900Y006814D01*
X030900Y007621D01*
X030506Y008015D01*
X026963Y008015D01*
X026982Y007995D01*
X026982Y006736D01*
X024896Y006223D02*
X024896Y005952D01*
X024896Y006223D02*
X024384Y006736D01*
X023045Y006736D02*
X023045Y007995D01*
X023026Y008015D01*
X026963Y008015D01*
X024896Y009299D02*
X024896Y009570D01*
X024384Y010082D01*
X023045Y010082D02*
X023045Y011342D01*
X023026Y011362D01*
X026963Y011362D01*
X028833Y012645D02*
X028833Y012916D01*
X028321Y013429D01*
X024896Y012818D02*
X024896Y012645D01*
X024896Y012818D02*
X024285Y013429D01*
X023026Y011362D02*
X019876Y011362D01*
X019108Y010594D01*
X019108Y010082D01*
X019010Y010180D01*
X014561Y010180D01*
X014167Y009787D01*
X014167Y004472D01*
X012667Y002972D01*
X012120Y002972D01*
X012120Y002472D02*
X011395Y002472D01*
X011305Y002381D01*
X011305Y000701D01*
X012105Y000701D02*
X012105Y001456D01*
X012120Y001472D01*
X013355Y001716D02*
X015010Y001716D01*
X015305Y001421D01*
X015770Y001421D01*
X015821Y001472D01*
X015821Y001972D02*
X013474Y001972D01*
X013225Y002221D01*
X013194Y002972D02*
X013145Y003021D01*
X013194Y002972D02*
X015821Y002972D01*
X016234Y002972D01*
X016505Y002701D01*
X017225Y002701D01*
X017625Y002301D01*
X017465Y001981D02*
X018825Y001981D01*
X019145Y002301D01*
X019145Y003353D01*
X019108Y003389D01*
X019108Y003901D01*
X019876Y004669D01*
X023026Y004669D01*
X022947Y004590D01*
X022947Y003389D01*
X024285Y003389D02*
X024896Y002778D01*
X024896Y002606D01*
X025585Y002306D02*
X025781Y002110D01*
X031096Y002110D01*
X031490Y002503D01*
X031490Y004472D01*
X031712Y004694D01*
X032025Y004221D02*
X032721Y004221D01*
X032770Y004172D01*
X032025Y004221D02*
X031705Y003901D01*
X031705Y002381D01*
X031225Y001901D01*
X019625Y001901D01*
X019545Y001981D01*
X019465Y001981D01*
X018905Y001821D02*
X019625Y002541D01*
X019625Y003821D01*
X020025Y004221D01*
X020910Y004221D01*
X020959Y004172D01*
X020447Y003389D02*
X020959Y002877D01*
X020959Y002606D01*
X018905Y001821D02*
X017225Y001821D01*
X017074Y001972D01*
X015821Y001972D01*
X015821Y002472D02*
X016974Y002472D01*
X017465Y001981D01*
X015821Y004472D02*
X014431Y004472D01*
X014431Y004866D02*
X014538Y004972D01*
X015821Y004972D01*
X015821Y005472D02*
X014539Y005472D01*
X014358Y005653D01*
X014358Y007621D01*
X014708Y007972D01*
X015821Y007972D01*
X015821Y006972D02*
X018360Y006972D01*
X018498Y006834D01*
X018911Y006834D01*
X019010Y006736D01*
X019010Y007346D01*
X019679Y008015D01*
X023026Y008015D01*
X021648Y006637D02*
X021648Y005456D01*
X021844Y005259D01*
X031884Y005259D01*
X032081Y005456D01*
X030900Y004275D02*
X030506Y004669D01*
X026963Y004669D01*
X026982Y004649D01*
X026982Y003389D01*
X025585Y003484D02*
X024896Y004172D01*
X025585Y003484D02*
X025585Y002306D01*
X028321Y003389D02*
X028833Y002877D01*
X028833Y002606D01*
X030821Y003389D02*
X030900Y003468D01*
X030900Y004275D01*
X032159Y003389D02*
X032770Y002778D01*
X032770Y002606D01*
X026963Y004669D02*
X023026Y004669D01*
X020959Y005952D02*
X020959Y006125D01*
X020348Y006736D01*
X020959Y007326D02*
X021648Y006637D01*
X020959Y007326D02*
X020959Y007519D01*
X020959Y009299D02*
X020959Y009570D01*
X020447Y010082D01*
X020959Y012645D02*
X020959Y012818D01*
X020348Y013429D01*
X013465Y014381D02*
X011225Y016621D01*
X008905Y016621D01*
X008745Y016781D01*
X008745Y017821D01*
X008505Y018061D02*
X008505Y016541D01*
X008745Y016301D01*
X010985Y016301D01*
X013225Y014061D01*
X013225Y005821D01*
X012875Y005472D01*
X012120Y005472D01*
X012120Y004972D02*
X012855Y004972D01*
X013465Y005581D01*
X013465Y014381D01*
X012985Y013821D02*
X010825Y015981D01*
X008345Y015981D01*
X008105Y016221D01*
X008105Y017741D01*
X007785Y017901D02*
X007785Y016061D01*
X008105Y015741D01*
X010585Y015741D01*
X012745Y013581D01*
X012745Y007661D01*
X012555Y007472D01*
X012120Y007472D01*
X012120Y007972D02*
X012120Y012818D01*
X010230Y014708D01*
X002345Y014708D01*
X002345Y014701D01*
X002345Y014708D02*
X002258Y014708D01*
X002905Y016609D02*
X003858Y016609D01*
X006105Y018461D01*
X009625Y018461D01*
X009945Y018141D01*
X012985Y013821D02*
X012985Y007341D01*
X012615Y006972D01*
X012120Y006972D01*
X012120Y006472D02*
X012089Y006440D01*
X011214Y005653D02*
X011214Y005058D01*
X010329Y004172D01*
X009718Y003389D02*
X010329Y002778D01*
X010329Y002606D01*
X011214Y002700D02*
X010329Y001421D01*
X010329Y000826D01*
X009049Y001913D02*
X008852Y001716D01*
X007282Y001716D01*
X006392Y000826D01*
X006687Y001913D02*
X005211Y001913D01*
X004423Y002700D01*
X004423Y003369D01*
X004443Y003389D01*
X003636Y003389D01*
X003242Y003783D01*
X003242Y006440D01*
X003537Y007228D02*
X002396Y007228D01*
X002396Y007484D02*
X004266Y007484D01*
X004325Y007425D01*
X004522Y006755D02*
X004522Y005751D01*
X004915Y005358D01*
X008065Y005358D01*
X008380Y005673D01*
X008380Y006834D01*
X009049Y007228D02*
X009246Y007425D01*
X010821Y007425D01*
X009718Y006834D02*
X010329Y006223D01*
X010329Y005952D01*
X009049Y005850D02*
X009049Y007228D01*
X009049Y005850D02*
X008262Y005062D01*
X007282Y005062D01*
X006392Y004172D01*
X005781Y003389D02*
X006392Y002778D01*
X006392Y002606D01*
X007081Y002799D02*
X007081Y002306D01*
X006687Y001913D01*
X007081Y002799D02*
X007671Y003389D01*
X008380Y003389D01*
X009049Y002897D02*
X009049Y001913D01*
X006392Y005952D02*
X006392Y006223D01*
X005781Y006834D01*
X003144Y007818D02*
X003065Y007740D01*
X002396Y007740D01*
X001537Y010574D02*
X001372Y010740D01*
X001537Y010574D02*
X005309Y010574D01*
D29*
X015821Y007972D02*
X016289Y007972D01*
X016529Y008212D01*
X016903Y008212D01*
X016943Y008212D02*
X017317Y008212D01*
X017711Y008606D01*
X033852Y008606D01*
X033852Y008015D01*
X034246Y007621D01*
X035230Y007621D01*
X035427Y007425D01*
X035427Y005259D01*
X035427Y004275D01*
X032671Y001519D01*
X016837Y001519D01*
X016246Y000812D01*
X015471Y000812D01*
X014881Y001322D01*
X013785Y001322D01*
X013726Y001263D01*
X013726Y000732D01*
X013785Y001322D02*
X012986Y001322D01*
X012986Y001716D01*
X012730Y001972D01*
X012120Y001972D01*
X033360Y010476D02*
X033951Y009885D01*
X033852Y009787D01*
X033852Y008606D01*
X033951Y009885D02*
X034541Y009885D01*
X034541Y010476D02*
X034090Y010476D01*
X033945Y010621D01*
X033945Y011261D01*
X034191Y011507D01*
X035145Y011507D01*
X035625Y011987D01*
X035625Y014141D01*
X031908Y017858D01*
X019482Y017858D01*
X019089Y017027D02*
X029958Y017027D01*
X033360Y014019D01*
X033360Y010476D01*
X019089Y017027D02*
X015188Y021007D01*
X009148Y021007D01*
X008882Y021007D02*
X004958Y021007D01*
X002861Y018910D01*
X002861Y018454D01*
X002861Y018935D02*
X002794Y019002D01*
X002239Y019002D01*
X002861Y017706D02*
X003670Y017706D01*
X003714Y017750D01*
D30*
X011305Y000701D03*
X012105Y000701D03*
X012905Y000701D03*
D31*
X016923Y008192D02*
X016943Y008212D01*
X016923Y008192D02*
X016903Y008212D01*
X009148Y021007D02*
X008882Y021007D01*
D32*
X002861Y018935D02*
X002861Y018910D01*
D33*
X010821Y007425D03*
M02*
