G75*
G70*
%OFA0B0*%
%FSLAX24Y24*%
%IPPOS*%
%LPD*%
%AMOC8*
5,1,8,0,0,1.08239X$1,22.5*
%
%ADD10C,0.0000*%
%ADD11C,0.0060*%
%ADD12C,0.0350*%
%ADD13C,0.0150*%
%ADD14C,0.0050*%
%ADD15C,0.0030*%
D10*
X001029Y001715D02*
X001029Y020612D01*
X001973Y020612D02*
X001975Y020662D01*
X001981Y020712D01*
X001991Y020761D01*
X002005Y020809D01*
X002022Y020856D01*
X002043Y020901D01*
X002068Y020945D01*
X002096Y020986D01*
X002128Y021025D01*
X002162Y021062D01*
X002199Y021096D01*
X002239Y021126D01*
X002281Y021153D01*
X002325Y021177D01*
X002371Y021198D01*
X002418Y021214D01*
X002466Y021227D01*
X002516Y021236D01*
X002565Y021241D01*
X002616Y021242D01*
X002666Y021239D01*
X002715Y021232D01*
X002764Y021221D01*
X002812Y021206D01*
X002858Y021188D01*
X002903Y021166D01*
X002946Y021140D01*
X002987Y021111D01*
X003026Y021079D01*
X003062Y021044D01*
X003094Y021006D01*
X003124Y020966D01*
X003151Y020923D01*
X003174Y020879D01*
X003193Y020833D01*
X003209Y020785D01*
X003221Y020736D01*
X003229Y020687D01*
X003233Y020637D01*
X003233Y020587D01*
X003229Y020537D01*
X003221Y020488D01*
X003209Y020439D01*
X003193Y020391D01*
X003174Y020345D01*
X003151Y020301D01*
X003124Y020258D01*
X003094Y020218D01*
X003062Y020180D01*
X003026Y020145D01*
X002987Y020113D01*
X002946Y020084D01*
X002903Y020058D01*
X002858Y020036D01*
X002812Y020018D01*
X002764Y020003D01*
X002715Y019992D01*
X002666Y019985D01*
X002616Y019982D01*
X002565Y019983D01*
X002516Y019988D01*
X002466Y019997D01*
X002418Y020010D01*
X002371Y020026D01*
X002325Y020047D01*
X002281Y020071D01*
X002239Y020098D01*
X002199Y020128D01*
X002162Y020162D01*
X002128Y020199D01*
X002096Y020238D01*
X002068Y020279D01*
X002043Y020323D01*
X002022Y020368D01*
X002005Y020415D01*
X001991Y020463D01*
X001981Y020512D01*
X001975Y020562D01*
X001973Y020612D01*
X001028Y020612D02*
X001030Y020689D01*
X001036Y020766D01*
X001045Y020843D01*
X001058Y020919D01*
X001075Y020995D01*
X001096Y021069D01*
X001120Y021143D01*
X001148Y021215D01*
X001179Y021285D01*
X001214Y021354D01*
X001252Y021422D01*
X001293Y021487D01*
X001338Y021550D01*
X001386Y021611D01*
X001436Y021670D01*
X001489Y021726D01*
X001545Y021779D01*
X001604Y021829D01*
X001665Y021877D01*
X001728Y021922D01*
X001793Y021963D01*
X001861Y022001D01*
X001930Y022036D01*
X002000Y022067D01*
X002072Y022095D01*
X002146Y022119D01*
X002220Y022140D01*
X002296Y022157D01*
X002372Y022170D01*
X002449Y022179D01*
X002526Y022185D01*
X002603Y022187D01*
X034887Y022187D01*
X034257Y020612D02*
X034259Y020662D01*
X034265Y020712D01*
X034275Y020761D01*
X034289Y020809D01*
X034306Y020856D01*
X034327Y020901D01*
X034352Y020945D01*
X034380Y020986D01*
X034412Y021025D01*
X034446Y021062D01*
X034483Y021096D01*
X034523Y021126D01*
X034565Y021153D01*
X034609Y021177D01*
X034655Y021198D01*
X034702Y021214D01*
X034750Y021227D01*
X034800Y021236D01*
X034849Y021241D01*
X034900Y021242D01*
X034950Y021239D01*
X034999Y021232D01*
X035048Y021221D01*
X035096Y021206D01*
X035142Y021188D01*
X035187Y021166D01*
X035230Y021140D01*
X035271Y021111D01*
X035310Y021079D01*
X035346Y021044D01*
X035378Y021006D01*
X035408Y020966D01*
X035435Y020923D01*
X035458Y020879D01*
X035477Y020833D01*
X035493Y020785D01*
X035505Y020736D01*
X035513Y020687D01*
X035517Y020637D01*
X035517Y020587D01*
X035513Y020537D01*
X035505Y020488D01*
X035493Y020439D01*
X035477Y020391D01*
X035458Y020345D01*
X035435Y020301D01*
X035408Y020258D01*
X035378Y020218D01*
X035346Y020180D01*
X035310Y020145D01*
X035271Y020113D01*
X035230Y020084D01*
X035187Y020058D01*
X035142Y020036D01*
X035096Y020018D01*
X035048Y020003D01*
X034999Y019992D01*
X034950Y019985D01*
X034900Y019982D01*
X034849Y019983D01*
X034800Y019988D01*
X034750Y019997D01*
X034702Y020010D01*
X034655Y020026D01*
X034609Y020047D01*
X034565Y020071D01*
X034523Y020098D01*
X034483Y020128D01*
X034446Y020162D01*
X034412Y020199D01*
X034380Y020238D01*
X034352Y020279D01*
X034327Y020323D01*
X034306Y020368D01*
X034289Y020415D01*
X034275Y020463D01*
X034265Y020512D01*
X034259Y020562D01*
X034257Y020612D01*
X034887Y022188D02*
X034971Y022177D01*
X035054Y022161D01*
X035137Y022142D01*
X035219Y022119D01*
X035299Y022092D01*
X035378Y022061D01*
X035456Y022026D01*
X035531Y021988D01*
X035605Y021946D01*
X035677Y021901D01*
X035747Y021852D01*
X035814Y021800D01*
X035878Y021745D01*
X035940Y021687D01*
X035999Y021626D01*
X036055Y021563D01*
X036108Y021496D01*
X036158Y021428D01*
X036205Y021357D01*
X036248Y021284D01*
X036287Y021208D01*
X036323Y021132D01*
X036355Y021053D01*
X036384Y020973D01*
X036408Y020892D01*
X036429Y020810D01*
X036446Y020726D01*
X036459Y020642D01*
X036467Y020558D01*
X036472Y020473D01*
X036473Y020388D01*
X036469Y020304D01*
X036462Y020219D01*
X036462Y001321D01*
X036450Y001249D01*
X036434Y001178D01*
X036414Y001108D01*
X036391Y001039D01*
X036364Y000971D01*
X036334Y000905D01*
X036300Y000840D01*
X036263Y000778D01*
X036222Y000717D01*
X036179Y000659D01*
X036132Y000602D01*
X036083Y000549D01*
X036031Y000498D01*
X035976Y000450D01*
X035919Y000404D01*
X035860Y000362D01*
X035798Y000323D01*
X035735Y000287D01*
X035669Y000255D01*
X035603Y000226D01*
X035534Y000201D01*
X035465Y000179D01*
X035394Y000161D01*
X035323Y000147D01*
X035251Y000136D01*
X035178Y000129D01*
X035105Y000126D01*
X035032Y000127D01*
X034960Y000132D01*
X034887Y000140D01*
X002603Y000140D01*
X001973Y001715D02*
X001975Y001765D01*
X001981Y001815D01*
X001991Y001864D01*
X002005Y001912D01*
X002022Y001959D01*
X002043Y002004D01*
X002068Y002048D01*
X002096Y002089D01*
X002128Y002128D01*
X002162Y002165D01*
X002199Y002199D01*
X002239Y002229D01*
X002281Y002256D01*
X002325Y002280D01*
X002371Y002301D01*
X002418Y002317D01*
X002466Y002330D01*
X002516Y002339D01*
X002565Y002344D01*
X002616Y002345D01*
X002666Y002342D01*
X002715Y002335D01*
X002764Y002324D01*
X002812Y002309D01*
X002858Y002291D01*
X002903Y002269D01*
X002946Y002243D01*
X002987Y002214D01*
X003026Y002182D01*
X003062Y002147D01*
X003094Y002109D01*
X003124Y002069D01*
X003151Y002026D01*
X003174Y001982D01*
X003193Y001936D01*
X003209Y001888D01*
X003221Y001839D01*
X003229Y001790D01*
X003233Y001740D01*
X003233Y001690D01*
X003229Y001640D01*
X003221Y001591D01*
X003209Y001542D01*
X003193Y001494D01*
X003174Y001448D01*
X003151Y001404D01*
X003124Y001361D01*
X003094Y001321D01*
X003062Y001283D01*
X003026Y001248D01*
X002987Y001216D01*
X002946Y001187D01*
X002903Y001161D01*
X002858Y001139D01*
X002812Y001121D01*
X002764Y001106D01*
X002715Y001095D01*
X002666Y001088D01*
X002616Y001085D01*
X002565Y001086D01*
X002516Y001091D01*
X002466Y001100D01*
X002418Y001113D01*
X002371Y001129D01*
X002325Y001150D01*
X002281Y001174D01*
X002239Y001201D01*
X002199Y001231D01*
X002162Y001265D01*
X002128Y001302D01*
X002096Y001341D01*
X002068Y001382D01*
X002043Y001426D01*
X002022Y001471D01*
X002005Y001518D01*
X001991Y001566D01*
X001981Y001615D01*
X001975Y001665D01*
X001973Y001715D01*
X001028Y001715D02*
X001030Y001638D01*
X001036Y001561D01*
X001045Y001484D01*
X001058Y001408D01*
X001075Y001332D01*
X001096Y001258D01*
X001120Y001184D01*
X001148Y001112D01*
X001179Y001042D01*
X001214Y000973D01*
X001252Y000905D01*
X001293Y000840D01*
X001338Y000777D01*
X001386Y000716D01*
X001436Y000657D01*
X001489Y000601D01*
X001545Y000548D01*
X001604Y000498D01*
X001665Y000450D01*
X001728Y000405D01*
X001793Y000364D01*
X001861Y000326D01*
X001930Y000291D01*
X002000Y000260D01*
X002072Y000232D01*
X002146Y000208D01*
X002220Y000187D01*
X002296Y000170D01*
X002372Y000157D01*
X002449Y000148D01*
X002526Y000142D01*
X002603Y000140D01*
X002545Y004668D02*
X002547Y004687D01*
X002552Y004706D01*
X002562Y004722D01*
X002574Y004737D01*
X002589Y004749D01*
X002605Y004759D01*
X002624Y004764D01*
X002643Y004766D01*
X002662Y004764D01*
X002681Y004759D01*
X002697Y004749D01*
X002712Y004737D01*
X002724Y004722D01*
X002734Y004706D01*
X002739Y004687D01*
X002741Y004668D01*
X002739Y004649D01*
X002734Y004630D01*
X002724Y004614D01*
X002712Y004599D01*
X002697Y004587D01*
X002681Y004577D01*
X002662Y004572D01*
X002643Y004570D01*
X002624Y004572D01*
X002605Y004577D01*
X002589Y004587D01*
X002574Y004599D01*
X002562Y004614D01*
X002552Y004630D01*
X002547Y004649D01*
X002545Y004668D01*
X002545Y006242D02*
X002547Y006261D01*
X002552Y006280D01*
X002562Y006296D01*
X002574Y006311D01*
X002589Y006323D01*
X002605Y006333D01*
X002624Y006338D01*
X002643Y006340D01*
X002662Y006338D01*
X002681Y006333D01*
X002697Y006323D01*
X002712Y006311D01*
X002724Y006296D01*
X002734Y006280D01*
X002739Y006261D01*
X002741Y006242D01*
X002739Y006223D01*
X002734Y006204D01*
X002724Y006188D01*
X002712Y006173D01*
X002697Y006161D01*
X002681Y006151D01*
X002662Y006146D01*
X002643Y006144D01*
X002624Y006146D01*
X002605Y006151D01*
X002589Y006161D01*
X002574Y006173D01*
X002562Y006188D01*
X002552Y006204D01*
X002547Y006223D01*
X002545Y006242D01*
X014316Y019431D02*
X014318Y019475D01*
X014324Y019519D01*
X014334Y019562D01*
X014347Y019604D01*
X014365Y019644D01*
X014386Y019683D01*
X014410Y019720D01*
X014437Y019755D01*
X014468Y019787D01*
X014501Y019816D01*
X014537Y019842D01*
X014575Y019864D01*
X014615Y019883D01*
X014656Y019899D01*
X014699Y019911D01*
X014742Y019919D01*
X014786Y019923D01*
X014830Y019923D01*
X014874Y019919D01*
X014917Y019911D01*
X014960Y019899D01*
X015001Y019883D01*
X015041Y019864D01*
X015079Y019842D01*
X015115Y019816D01*
X015148Y019787D01*
X015179Y019755D01*
X015206Y019720D01*
X015230Y019683D01*
X015251Y019644D01*
X015269Y019604D01*
X015282Y019562D01*
X015292Y019519D01*
X015298Y019475D01*
X015300Y019431D01*
X015298Y019387D01*
X015292Y019343D01*
X015282Y019300D01*
X015269Y019258D01*
X015251Y019218D01*
X015230Y019179D01*
X015206Y019142D01*
X015179Y019107D01*
X015148Y019075D01*
X015115Y019046D01*
X015079Y019020D01*
X015041Y018998D01*
X015001Y018979D01*
X014960Y018963D01*
X014917Y018951D01*
X014874Y018943D01*
X014830Y018939D01*
X014786Y018939D01*
X014742Y018943D01*
X014699Y018951D01*
X014656Y018963D01*
X014615Y018979D01*
X014575Y018998D01*
X014537Y019020D01*
X014501Y019046D01*
X014468Y019075D01*
X014437Y019107D01*
X014410Y019142D01*
X014386Y019179D01*
X014365Y019218D01*
X014347Y019258D01*
X014334Y019300D01*
X014324Y019343D01*
X014318Y019387D01*
X014316Y019431D01*
X026087Y021400D02*
X026089Y021423D01*
X026095Y021446D01*
X026105Y021467D01*
X026118Y021487D01*
X026134Y021504D01*
X026153Y021518D01*
X026174Y021528D01*
X026196Y021535D01*
X026219Y021538D01*
X026243Y021537D01*
X026265Y021532D01*
X026287Y021523D01*
X026307Y021511D01*
X026325Y021495D01*
X026339Y021477D01*
X026351Y021457D01*
X026359Y021435D01*
X026363Y021412D01*
X026363Y021388D01*
X026359Y021365D01*
X026351Y021343D01*
X026339Y021323D01*
X026325Y021305D01*
X026307Y021289D01*
X026287Y021277D01*
X026265Y021268D01*
X026243Y021263D01*
X026219Y021262D01*
X026196Y021265D01*
X026174Y021272D01*
X026153Y021282D01*
X026134Y021296D01*
X026118Y021313D01*
X026105Y021333D01*
X026095Y021354D01*
X026089Y021377D01*
X026087Y021400D01*
X027269Y021400D02*
X027271Y021423D01*
X027277Y021446D01*
X027287Y021467D01*
X027300Y021487D01*
X027316Y021504D01*
X027335Y021518D01*
X027356Y021528D01*
X027378Y021535D01*
X027401Y021538D01*
X027425Y021537D01*
X027447Y021532D01*
X027469Y021523D01*
X027489Y021511D01*
X027507Y021495D01*
X027521Y021477D01*
X027533Y021457D01*
X027541Y021435D01*
X027545Y021412D01*
X027545Y021388D01*
X027541Y021365D01*
X027533Y021343D01*
X027521Y021323D01*
X027507Y021305D01*
X027489Y021289D01*
X027469Y021277D01*
X027447Y021268D01*
X027425Y021263D01*
X027401Y021262D01*
X027378Y021265D01*
X027356Y021272D01*
X027335Y021282D01*
X027316Y021296D01*
X027300Y021313D01*
X027287Y021333D01*
X027277Y021354D01*
X027271Y021377D01*
X027269Y021400D01*
X034257Y001715D02*
X034259Y001765D01*
X034265Y001815D01*
X034275Y001864D01*
X034289Y001912D01*
X034306Y001959D01*
X034327Y002004D01*
X034352Y002048D01*
X034380Y002089D01*
X034412Y002128D01*
X034446Y002165D01*
X034483Y002199D01*
X034523Y002229D01*
X034565Y002256D01*
X034609Y002280D01*
X034655Y002301D01*
X034702Y002317D01*
X034750Y002330D01*
X034800Y002339D01*
X034849Y002344D01*
X034900Y002345D01*
X034950Y002342D01*
X034999Y002335D01*
X035048Y002324D01*
X035096Y002309D01*
X035142Y002291D01*
X035187Y002269D01*
X035230Y002243D01*
X035271Y002214D01*
X035310Y002182D01*
X035346Y002147D01*
X035378Y002109D01*
X035408Y002069D01*
X035435Y002026D01*
X035458Y001982D01*
X035477Y001936D01*
X035493Y001888D01*
X035505Y001839D01*
X035513Y001790D01*
X035517Y001740D01*
X035517Y001690D01*
X035513Y001640D01*
X035505Y001591D01*
X035493Y001542D01*
X035477Y001494D01*
X035458Y001448D01*
X035435Y001404D01*
X035408Y001361D01*
X035378Y001321D01*
X035346Y001283D01*
X035310Y001248D01*
X035271Y001216D01*
X035230Y001187D01*
X035187Y001161D01*
X035142Y001139D01*
X035096Y001121D01*
X035048Y001106D01*
X034999Y001095D01*
X034950Y001088D01*
X034900Y001085D01*
X034849Y001086D01*
X034800Y001091D01*
X034750Y001100D01*
X034702Y001113D01*
X034655Y001129D01*
X034609Y001150D01*
X034565Y001174D01*
X034523Y001201D01*
X034483Y001231D01*
X034446Y001265D01*
X034412Y001302D01*
X034380Y001341D01*
X034352Y001382D01*
X034327Y001426D01*
X034306Y001471D01*
X034289Y001518D01*
X034275Y001566D01*
X034265Y001615D01*
X034259Y001665D01*
X034257Y001715D01*
D11*
X032300Y003549D02*
X032218Y003549D01*
X032136Y003631D01*
X032136Y004041D01*
X031956Y004205D02*
X031629Y004205D01*
X031629Y004123D01*
X031956Y003795D01*
X031956Y003713D01*
X032136Y003713D02*
X032382Y003713D01*
X032464Y003795D01*
X032464Y004041D01*
X032644Y004041D02*
X032971Y003713D01*
X033151Y003795D02*
X033233Y003713D01*
X033397Y003713D01*
X033479Y003795D01*
X033479Y003877D01*
X033397Y003959D01*
X033233Y003959D01*
X033151Y003877D01*
X033151Y003795D01*
X033233Y003959D02*
X033151Y004041D01*
X033151Y004123D01*
X033233Y004205D01*
X033397Y004205D01*
X033479Y004123D01*
X033479Y004041D01*
X033397Y003959D01*
X032971Y004041D02*
X032644Y003713D01*
X032300Y004376D02*
X032218Y004376D01*
X032136Y004458D01*
X032136Y004868D01*
X031956Y004786D02*
X031711Y004786D01*
X031629Y004704D01*
X031629Y004622D01*
X031711Y004540D01*
X031874Y004540D01*
X031956Y004622D01*
X031956Y004786D01*
X031792Y004950D01*
X031629Y005032D01*
X031449Y004786D02*
X031121Y004786D01*
X030941Y004868D02*
X030859Y004786D01*
X030695Y004786D01*
X030614Y004704D01*
X030614Y004622D01*
X030695Y004540D01*
X030859Y004540D01*
X030941Y004622D01*
X030941Y004868D02*
X030941Y004950D01*
X030859Y005032D01*
X030695Y005032D01*
X030614Y004950D01*
X030434Y005032D02*
X030434Y004540D01*
X030434Y004786D02*
X030106Y004786D01*
X029926Y004704D02*
X029680Y004704D01*
X029598Y004786D01*
X029598Y004950D01*
X029680Y005032D01*
X029926Y005032D01*
X029926Y004540D01*
X030106Y004540D02*
X030106Y005032D01*
X030188Y005367D02*
X030106Y005449D01*
X030106Y005858D01*
X029926Y005858D02*
X029680Y005858D01*
X029598Y005777D01*
X029598Y005695D01*
X029680Y005613D01*
X029926Y005613D01*
X029926Y005858D02*
X029926Y005367D01*
X029680Y005367D01*
X029598Y005449D01*
X029598Y005531D01*
X029680Y005613D01*
X030188Y005367D02*
X030352Y005367D01*
X030434Y005449D01*
X030434Y005858D01*
X030614Y005777D02*
X030695Y005858D01*
X030859Y005858D01*
X030941Y005777D01*
X030941Y005695D01*
X030859Y005613D01*
X030695Y005613D01*
X030614Y005531D01*
X030614Y005449D01*
X030695Y005367D01*
X030859Y005367D01*
X030941Y005449D01*
X031121Y005613D02*
X031449Y005613D01*
X031629Y005613D02*
X031711Y005695D01*
X031792Y005695D01*
X031956Y005613D01*
X031956Y005858D01*
X031629Y005858D01*
X031629Y005613D02*
X031629Y005449D01*
X031711Y005367D01*
X031874Y005367D01*
X031956Y005449D01*
X032136Y005367D02*
X032382Y005367D01*
X032464Y005449D01*
X032464Y005695D01*
X032644Y005695D02*
X032971Y005367D01*
X033151Y005449D02*
X033233Y005367D01*
X033397Y005367D01*
X033479Y005449D01*
X033479Y005531D01*
X033397Y005613D01*
X033233Y005613D01*
X033151Y005531D01*
X033151Y005449D01*
X033233Y005613D02*
X033151Y005695D01*
X033151Y005777D01*
X033233Y005858D01*
X033397Y005858D01*
X033479Y005777D01*
X033479Y005695D01*
X033397Y005613D01*
X032971Y005695D02*
X032644Y005367D01*
X032300Y005203D02*
X032218Y005203D01*
X032136Y005285D01*
X032136Y005695D01*
X032218Y006030D02*
X032300Y006030D01*
X032218Y006030D02*
X032136Y006112D01*
X032136Y006521D01*
X031956Y006439D02*
X031629Y006439D01*
X031449Y006439D02*
X031121Y006439D01*
X030941Y006439D02*
X030614Y006439D01*
X030614Y006521D02*
X030614Y006194D01*
X030434Y006194D02*
X030188Y006194D01*
X030106Y006276D01*
X030106Y006603D01*
X030188Y006685D01*
X030434Y006685D01*
X030434Y006194D01*
X030614Y006521D02*
X030777Y006685D01*
X030941Y006521D01*
X030941Y006194D01*
X031711Y006194D02*
X031711Y006685D01*
X031956Y006439D01*
X032136Y006194D02*
X032382Y006194D01*
X032464Y006276D01*
X032464Y006521D01*
X032644Y006521D02*
X032971Y006194D01*
X033151Y006276D02*
X033233Y006194D01*
X033397Y006194D01*
X033479Y006276D01*
X033479Y006357D01*
X033397Y006439D01*
X033233Y006439D01*
X033151Y006357D01*
X033151Y006276D01*
X033233Y006439D02*
X033151Y006521D01*
X033151Y006603D01*
X033233Y006685D01*
X033397Y006685D01*
X033479Y006603D01*
X033479Y006521D01*
X033397Y006439D01*
X032971Y006521D02*
X032644Y006194D01*
X032300Y006857D02*
X032218Y006857D01*
X032136Y006938D01*
X032136Y007348D01*
X031956Y007430D02*
X031874Y007512D01*
X031711Y007512D01*
X031629Y007430D01*
X031629Y007348D01*
X031711Y007266D01*
X031629Y007184D01*
X031629Y007102D01*
X031711Y007020D01*
X031874Y007020D01*
X031956Y007102D01*
X032136Y007020D02*
X032382Y007020D01*
X032464Y007102D01*
X032464Y007348D01*
X032644Y007348D02*
X032971Y007020D01*
X033151Y007102D02*
X033233Y007020D01*
X033397Y007020D01*
X033479Y007102D01*
X033479Y007184D01*
X033397Y007266D01*
X033233Y007266D01*
X033151Y007184D01*
X033151Y007102D01*
X033233Y007266D02*
X033151Y007348D01*
X033151Y007430D01*
X033233Y007512D01*
X033397Y007512D01*
X033479Y007430D01*
X033479Y007348D01*
X033397Y007266D01*
X032971Y007348D02*
X032644Y007020D01*
X032300Y007683D02*
X032218Y007683D01*
X032136Y007765D01*
X032136Y008175D01*
X031956Y008257D02*
X031874Y008339D01*
X031711Y008339D01*
X031629Y008257D01*
X031629Y008175D01*
X031956Y007847D01*
X031629Y007847D01*
X031449Y008093D02*
X031121Y008093D01*
X030941Y008093D02*
X030614Y008093D01*
X030614Y008175D02*
X030614Y007847D01*
X030434Y007847D02*
X030434Y008339D01*
X030106Y007847D01*
X030106Y008339D01*
X029926Y008339D02*
X029680Y008339D01*
X029598Y008257D01*
X029598Y007929D01*
X029680Y007847D01*
X029926Y007847D01*
X029926Y008339D01*
X030106Y008674D02*
X030270Y008838D01*
X030188Y008838D02*
X030434Y008838D01*
X030434Y008674D02*
X030434Y009166D01*
X030188Y009166D01*
X030106Y009084D01*
X030106Y008920D01*
X030188Y008838D01*
X030614Y008756D02*
X030614Y009084D01*
X030695Y009166D01*
X030859Y009166D01*
X030941Y009084D01*
X030941Y008756D01*
X030859Y008674D01*
X030695Y008674D01*
X030614Y008756D01*
X030777Y008339D02*
X030614Y008175D01*
X030777Y008339D02*
X030941Y008175D01*
X030941Y007847D01*
X030941Y007512D02*
X030614Y007020D01*
X030434Y007102D02*
X030352Y007020D01*
X030188Y007020D01*
X030106Y007102D01*
X030106Y007430D01*
X030188Y007512D01*
X030352Y007512D01*
X030434Y007430D01*
X030434Y007102D01*
X030614Y007512D02*
X030941Y007020D01*
X031121Y007266D02*
X031449Y007266D01*
X031711Y007266D02*
X031792Y007266D01*
X032136Y007847D02*
X032382Y007847D01*
X032464Y007929D01*
X032464Y008175D01*
X032644Y008175D02*
X032971Y007847D01*
X033151Y007929D02*
X033233Y007847D01*
X033397Y007847D01*
X033479Y007929D01*
X033479Y008011D01*
X033397Y008093D01*
X033233Y008093D01*
X033151Y008011D01*
X033151Y007929D01*
X033233Y008093D02*
X033151Y008175D01*
X033151Y008257D01*
X033233Y008339D01*
X033397Y008339D01*
X033479Y008257D01*
X033479Y008175D01*
X033397Y008093D01*
X032971Y008175D02*
X032644Y007847D01*
X032300Y008510D02*
X032218Y008510D01*
X032136Y008592D01*
X032136Y009002D01*
X031956Y009002D02*
X031792Y009166D01*
X031792Y008674D01*
X031629Y008674D02*
X031956Y008674D01*
X032136Y008674D02*
X032382Y008674D01*
X032464Y008756D01*
X032464Y009002D01*
X032644Y009002D02*
X032971Y008674D01*
X033151Y008756D02*
X033233Y008674D01*
X033397Y008674D01*
X033479Y008756D01*
X033479Y008838D01*
X033397Y008920D01*
X033233Y008920D01*
X033151Y008838D01*
X033151Y008756D01*
X033233Y008920D02*
X033151Y009002D01*
X033151Y009084D01*
X033233Y009166D01*
X033397Y009166D01*
X033479Y009084D01*
X033479Y009002D01*
X033397Y008920D01*
X032971Y009002D02*
X032644Y008674D01*
X032300Y009337D02*
X032218Y009337D01*
X032136Y009419D01*
X032136Y009828D01*
X031956Y009910D02*
X031874Y009992D01*
X031711Y009992D01*
X031629Y009910D01*
X031956Y009583D01*
X031874Y009501D01*
X031711Y009501D01*
X031629Y009583D01*
X031629Y009910D01*
X031449Y009747D02*
X031121Y009747D01*
X030941Y009992D02*
X030941Y009501D01*
X030614Y009501D01*
X030434Y009501D02*
X030188Y009501D01*
X030106Y009583D01*
X030106Y009910D01*
X030188Y009992D01*
X030434Y009992D01*
X030434Y009501D01*
X031121Y008920D02*
X031449Y008920D01*
X032136Y009501D02*
X032382Y009501D01*
X032464Y009583D01*
X032464Y009828D01*
X032644Y009828D02*
X032971Y009501D01*
X033151Y009583D02*
X033233Y009501D01*
X033397Y009501D01*
X033479Y009583D01*
X033479Y009665D01*
X033397Y009747D01*
X033233Y009747D01*
X033151Y009665D01*
X033151Y009583D01*
X033233Y009747D02*
X033151Y009828D01*
X033151Y009910D01*
X033233Y009992D01*
X033397Y009992D01*
X033479Y009910D01*
X033479Y009828D01*
X033397Y009747D01*
X032971Y009828D02*
X032644Y009501D01*
X031956Y009583D02*
X031956Y009910D01*
X032041Y010327D02*
X032041Y010819D01*
X032218Y010655D02*
X032464Y010491D01*
X032218Y010327D01*
X032041Y010491D02*
X031795Y010655D01*
X031618Y010573D02*
X031290Y010573D01*
X031110Y010573D02*
X030783Y010573D01*
X030783Y010655D02*
X030783Y010327D01*
X030603Y010327D02*
X030357Y010327D01*
X030275Y010409D01*
X030275Y010737D01*
X030357Y010819D01*
X030603Y010819D01*
X030603Y010327D01*
X031110Y010327D02*
X031110Y010655D01*
X030947Y010819D01*
X030783Y010655D01*
X030783Y011154D02*
X031110Y011154D01*
X031110Y011646D01*
X031290Y011400D02*
X031618Y011400D01*
X031795Y011482D02*
X032041Y011318D01*
X031795Y011154D01*
X032041Y011154D02*
X032041Y011646D01*
X032218Y011482D02*
X032464Y011318D01*
X032218Y011154D01*
X032464Y011154D02*
X032464Y011646D01*
X032300Y011817D02*
X032218Y011817D01*
X032136Y011899D01*
X032136Y012309D01*
X031956Y012391D02*
X031874Y012473D01*
X031711Y012473D01*
X031629Y012391D01*
X031956Y012063D01*
X031874Y011981D01*
X031711Y011981D01*
X031629Y012063D01*
X031629Y012391D01*
X031449Y012227D02*
X031121Y012227D01*
X030941Y012309D02*
X030859Y012227D01*
X030695Y012227D01*
X030614Y012145D01*
X030614Y012063D01*
X030695Y011981D01*
X030859Y011981D01*
X030941Y012063D01*
X030941Y012309D02*
X030941Y012391D01*
X030859Y012473D01*
X030695Y012473D01*
X030614Y012391D01*
X030434Y012473D02*
X030106Y012473D01*
X030270Y012227D02*
X030434Y012227D01*
X030434Y012473D02*
X030434Y011981D01*
X030106Y011981D01*
X030357Y011646D02*
X030603Y011646D01*
X030603Y011154D01*
X030357Y011154D01*
X030275Y011236D01*
X030275Y011564D01*
X030357Y011646D01*
X029588Y011646D02*
X029588Y011318D01*
X029424Y011154D01*
X029260Y011318D01*
X029260Y011646D01*
X029080Y011482D02*
X028753Y011154D01*
X028573Y010990D02*
X028409Y011154D01*
X028491Y011154D01*
X028491Y011236D01*
X028409Y011236D01*
X028409Y011154D01*
X028234Y011154D02*
X027989Y011154D01*
X027907Y011236D01*
X027907Y011400D01*
X027989Y011482D01*
X028234Y011482D01*
X028234Y011646D02*
X028234Y011154D01*
X028753Y011482D02*
X029080Y011154D01*
X029080Y010819D02*
X029080Y010491D01*
X028916Y010327D01*
X028753Y010491D01*
X028753Y010819D01*
X028573Y010655D02*
X028245Y010327D01*
X028065Y010164D02*
X027901Y010327D01*
X027983Y010327D01*
X027983Y010409D01*
X027901Y010409D01*
X027901Y010327D01*
X027727Y010327D02*
X027481Y010327D01*
X027399Y010409D01*
X027399Y010573D01*
X027481Y010655D01*
X027727Y010655D01*
X027727Y010819D02*
X027727Y010327D01*
X027738Y009992D02*
X027738Y009665D01*
X027901Y009501D01*
X028065Y009665D01*
X028065Y009992D01*
X027558Y009828D02*
X027558Y009583D01*
X027476Y009501D01*
X027230Y009501D01*
X027230Y009419D02*
X027312Y009337D01*
X027394Y009337D01*
X027230Y009419D02*
X027230Y009828D01*
X027056Y010164D02*
X026974Y010164D01*
X026892Y010246D01*
X026892Y010655D01*
X026712Y010655D02*
X026548Y010655D01*
X026630Y010737D02*
X026630Y010409D01*
X026548Y010327D01*
X026374Y010409D02*
X026374Y010573D01*
X026292Y010655D01*
X026128Y010655D01*
X026046Y010573D01*
X026046Y010491D01*
X026374Y010491D01*
X026374Y010409D02*
X026292Y010327D01*
X026128Y010327D01*
X026892Y010327D02*
X027138Y010327D01*
X027219Y010409D01*
X027219Y010655D01*
X027481Y010990D02*
X027399Y011072D01*
X027399Y011482D01*
X027219Y011482D02*
X027056Y011482D01*
X027138Y011564D02*
X027138Y011236D01*
X027056Y011154D01*
X026881Y011236D02*
X026881Y011400D01*
X026799Y011482D01*
X026635Y011482D01*
X026553Y011400D01*
X026553Y011318D01*
X026881Y011318D01*
X026881Y011236D02*
X026799Y011154D01*
X026635Y011154D01*
X027399Y011154D02*
X027645Y011154D01*
X027727Y011236D01*
X027727Y011482D01*
X027394Y011817D02*
X027312Y011817D01*
X027230Y011899D01*
X027230Y012309D01*
X027558Y012309D02*
X027558Y012063D01*
X027476Y011981D01*
X027230Y011981D01*
X027738Y012145D02*
X027738Y012473D01*
X028065Y012473D02*
X028065Y012145D01*
X027901Y011981D01*
X027738Y012145D01*
X028240Y012063D02*
X028240Y011981D01*
X028322Y011981D01*
X028322Y012063D01*
X028240Y012063D01*
X028240Y011981D02*
X028404Y011817D01*
X028583Y011981D02*
X028911Y012309D01*
X029091Y012145D02*
X029091Y012473D01*
X029419Y012473D02*
X029419Y012145D01*
X029255Y011981D01*
X029091Y012145D01*
X028911Y011981D02*
X028583Y012309D01*
X028573Y012808D02*
X028245Y013136D01*
X028573Y013136D02*
X028245Y012808D01*
X028065Y012644D02*
X027901Y012808D01*
X027983Y012808D01*
X027983Y012890D01*
X027901Y012890D01*
X027901Y012808D01*
X027727Y012808D02*
X027481Y012808D01*
X027399Y012890D01*
X027399Y013054D01*
X027481Y013136D01*
X027727Y013136D01*
X027727Y013299D02*
X027727Y012808D01*
X027219Y012890D02*
X027138Y012808D01*
X026892Y012808D01*
X026892Y012726D02*
X026974Y012644D01*
X027056Y012644D01*
X026892Y012726D02*
X026892Y013136D01*
X026712Y013136D02*
X026548Y013136D01*
X026630Y013217D02*
X026630Y012890D01*
X026548Y012808D01*
X026374Y012890D02*
X026374Y013054D01*
X026292Y013136D01*
X026128Y013136D01*
X026046Y013054D01*
X026046Y012972D01*
X026374Y012972D01*
X026374Y012890D02*
X026292Y012808D01*
X026128Y012808D01*
X027219Y012890D02*
X027219Y013136D01*
X027481Y013471D02*
X027399Y013553D01*
X027399Y013962D01*
X027219Y013962D02*
X027056Y013962D01*
X027138Y014044D02*
X027138Y013716D01*
X027056Y013635D01*
X026881Y013716D02*
X026881Y013880D01*
X026799Y013962D01*
X026635Y013962D01*
X026553Y013880D01*
X026553Y013798D01*
X026881Y013798D01*
X026881Y013716D02*
X026799Y013635D01*
X026635Y013635D01*
X027399Y013635D02*
X027645Y013635D01*
X027727Y013716D01*
X027727Y013962D01*
X027907Y013880D02*
X027907Y013716D01*
X027989Y013635D01*
X028234Y013635D01*
X028234Y014126D01*
X028234Y013962D02*
X027989Y013962D01*
X027907Y013880D01*
X028409Y013716D02*
X028491Y013716D01*
X028491Y013635D01*
X028409Y013635D01*
X028409Y013716D01*
X028409Y013635D02*
X028573Y013471D01*
X028753Y013635D02*
X029080Y013962D01*
X029260Y013798D02*
X029260Y014126D01*
X029588Y014126D02*
X029588Y013798D01*
X029424Y013635D01*
X029260Y013798D01*
X029080Y013635D02*
X028753Y013962D01*
X029091Y014461D02*
X029419Y014461D01*
X029419Y014953D01*
X029337Y015288D02*
X029091Y015288D01*
X029091Y015534D01*
X029173Y015616D01*
X029337Y015616D01*
X029337Y015452D02*
X029091Y015452D01*
X028911Y015370D02*
X028911Y015534D01*
X028829Y015616D01*
X028583Y015616D01*
X028583Y015780D02*
X028583Y015288D01*
X028829Y015288D01*
X028911Y015370D01*
X028404Y015370D02*
X028404Y015534D01*
X028322Y015616D01*
X028076Y015616D01*
X028076Y015780D02*
X028076Y015288D01*
X028322Y015288D01*
X028404Y015370D01*
X027896Y015288D02*
X027896Y015616D01*
X027896Y015452D02*
X027732Y015616D01*
X027650Y015616D01*
X027568Y016115D02*
X027814Y016115D01*
X027896Y016197D01*
X027896Y016361D01*
X027814Y016443D01*
X027568Y016443D01*
X027568Y016606D02*
X027568Y016115D01*
X027389Y016115D02*
X027389Y016443D01*
X027225Y016443D02*
X027143Y016443D01*
X027225Y016443D02*
X027389Y016279D01*
X028076Y016443D02*
X028322Y016443D01*
X028404Y016361D01*
X028404Y016197D01*
X028322Y016115D01*
X028076Y016115D01*
X028076Y016606D01*
X028583Y016361D02*
X028583Y016115D01*
X028829Y016115D01*
X028911Y016197D01*
X028829Y016279D01*
X028583Y016279D01*
X028583Y016361D02*
X028665Y016443D01*
X028829Y016443D01*
X029598Y016525D02*
X029680Y016606D01*
X029844Y016606D01*
X029926Y016525D01*
X029926Y016443D01*
X029844Y016361D01*
X029680Y016361D01*
X029598Y016279D01*
X029598Y016197D01*
X029680Y016115D01*
X029844Y016115D01*
X029926Y016197D01*
X030270Y016115D02*
X030270Y016361D01*
X030106Y016525D01*
X030106Y016606D01*
X030270Y016361D02*
X030434Y016525D01*
X030434Y016606D01*
X030614Y016525D02*
X030695Y016606D01*
X030859Y016606D01*
X030941Y016525D01*
X030941Y016443D01*
X030859Y016361D01*
X030695Y016361D01*
X030614Y016279D01*
X030614Y016197D01*
X030695Y016115D01*
X030859Y016115D01*
X030941Y016197D01*
X031121Y016361D02*
X031449Y016361D01*
X031629Y016361D02*
X031629Y016115D01*
X031629Y016361D02*
X031711Y016443D01*
X031956Y016443D01*
X031956Y016115D01*
X032136Y016115D02*
X032136Y016361D01*
X032218Y016443D01*
X032464Y016443D01*
X032464Y016115D01*
X032644Y016115D02*
X032644Y016361D01*
X032726Y016443D01*
X032971Y016443D01*
X032971Y016115D01*
X033151Y016197D02*
X033233Y016115D01*
X033397Y016115D01*
X033479Y016197D01*
X033151Y016525D01*
X033151Y016197D01*
X033479Y016197D02*
X033479Y016525D01*
X033397Y016606D01*
X033233Y016606D01*
X033151Y016525D01*
X033233Y016942D02*
X033397Y016942D01*
X033479Y017024D01*
X033151Y017351D01*
X033151Y017024D01*
X033233Y016942D01*
X033479Y017024D02*
X033479Y017351D01*
X033397Y017433D01*
X033233Y017433D01*
X033151Y017351D01*
X032971Y017351D02*
X032889Y017433D01*
X032726Y017433D01*
X032644Y017351D01*
X032971Y017024D01*
X032889Y016942D01*
X032726Y016942D01*
X032644Y017024D01*
X032644Y017351D01*
X032464Y017433D02*
X032464Y016942D01*
X032136Y016942D01*
X031956Y016942D02*
X031629Y016942D01*
X031792Y017187D02*
X031956Y017187D01*
X031956Y016942D02*
X031956Y017433D01*
X031629Y017433D01*
X031711Y017768D02*
X031874Y017768D01*
X031956Y017850D01*
X031629Y018178D01*
X031629Y017850D01*
X031711Y017768D01*
X031956Y017850D02*
X031956Y018178D01*
X031874Y018260D01*
X031711Y018260D01*
X031629Y018178D01*
X031449Y018014D02*
X031121Y018014D01*
X030941Y017850D02*
X030859Y017768D01*
X030695Y017768D01*
X030614Y017850D01*
X030434Y017768D02*
X030106Y017768D01*
X029926Y017850D02*
X029844Y017768D01*
X029680Y017768D01*
X029598Y017850D01*
X029598Y017932D01*
X029680Y018014D01*
X029844Y018014D01*
X029926Y018096D01*
X029926Y018178D01*
X029844Y018260D01*
X029680Y018260D01*
X029598Y018178D01*
X029598Y017433D02*
X029926Y017433D01*
X029762Y017433D02*
X029762Y016942D01*
X030106Y016942D02*
X030434Y016942D01*
X030434Y017433D01*
X030106Y017433D01*
X030434Y017768D02*
X030434Y018260D01*
X030614Y018178D02*
X030695Y018260D01*
X030859Y018260D01*
X030941Y018178D01*
X030941Y017850D01*
X030941Y017433D02*
X030695Y017433D01*
X030614Y017351D01*
X030614Y017187D01*
X030695Y017106D01*
X030941Y017106D01*
X030777Y017106D02*
X030614Y016942D01*
X030434Y017187D02*
X030270Y017187D01*
X030941Y016942D02*
X030941Y017433D01*
X031121Y017187D02*
X031449Y017187D01*
X032136Y017433D02*
X032464Y017433D01*
X032464Y017768D02*
X032136Y017768D01*
X032300Y018014D02*
X032464Y018014D01*
X032644Y017850D02*
X032726Y017768D01*
X032889Y017768D01*
X032971Y017850D01*
X032644Y018178D01*
X032644Y017850D01*
X032464Y017768D02*
X032464Y018260D01*
X032136Y018260D01*
X032644Y018178D02*
X032726Y018260D01*
X032889Y018260D01*
X032971Y018178D01*
X032971Y017850D01*
X033151Y017850D02*
X033233Y017768D01*
X033397Y017768D01*
X033479Y017850D01*
X033151Y018178D01*
X033151Y017850D01*
X033479Y017850D02*
X033479Y018178D01*
X033397Y018260D01*
X033233Y018260D01*
X033151Y018178D01*
X032971Y017351D02*
X032971Y017024D01*
X032464Y017187D02*
X032300Y017187D01*
X032218Y015616D02*
X032136Y015534D01*
X032136Y015288D01*
X031956Y015288D02*
X031956Y015616D01*
X031711Y015616D01*
X031629Y015534D01*
X031629Y015288D01*
X031449Y015534D02*
X031121Y015534D01*
X030941Y015370D02*
X030859Y015288D01*
X030777Y015288D01*
X030695Y015370D01*
X030695Y015780D01*
X030614Y015780D02*
X030777Y015780D01*
X030434Y015780D02*
X030188Y015780D01*
X030106Y015698D01*
X030106Y015534D01*
X030188Y015452D01*
X030434Y015452D01*
X030434Y015288D02*
X030434Y015780D01*
X030270Y014953D02*
X030106Y014789D01*
X030106Y014461D01*
X029926Y014461D02*
X029598Y014461D01*
X029926Y014461D02*
X029926Y014953D01*
X030270Y014953D02*
X030434Y014789D01*
X030434Y014461D01*
X030614Y014543D02*
X030695Y014461D01*
X030859Y014461D01*
X030941Y014543D01*
X030941Y014871D01*
X030859Y014953D01*
X030695Y014953D01*
X030614Y014871D01*
X030434Y014707D02*
X030106Y014707D01*
X030275Y014126D02*
X030603Y014126D01*
X030603Y013635D01*
X030275Y013635D01*
X030439Y013880D02*
X030603Y013880D01*
X030783Y013798D02*
X030783Y013716D01*
X030865Y013635D01*
X031029Y013635D01*
X031110Y013716D01*
X031029Y013880D02*
X030865Y013880D01*
X030783Y013798D01*
X031029Y013880D02*
X031110Y013962D01*
X031110Y014044D01*
X031029Y014126D01*
X030865Y014126D01*
X030783Y014044D01*
X031290Y013880D02*
X031618Y013880D01*
X031795Y013962D02*
X032041Y013798D01*
X031795Y013635D01*
X032041Y013635D02*
X032041Y014126D01*
X032218Y013962D02*
X032464Y013798D01*
X032218Y013635D01*
X032464Y013635D02*
X032464Y014126D01*
X032644Y013962D02*
X032971Y013635D01*
X033151Y013716D02*
X033233Y013635D01*
X033397Y013635D01*
X033479Y013716D01*
X033315Y013880D02*
X033233Y013880D01*
X033151Y013798D01*
X033151Y013716D01*
X033233Y013880D02*
X033151Y013962D01*
X033151Y014044D01*
X033233Y014126D01*
X033397Y014126D01*
X033479Y014044D01*
X033479Y014461D02*
X033151Y014461D01*
X032971Y014461D02*
X032971Y014789D01*
X032726Y014789D01*
X032644Y014707D01*
X032644Y014461D01*
X032464Y014461D02*
X032464Y014789D01*
X032218Y014789D01*
X032136Y014707D01*
X032136Y014461D01*
X031956Y014461D02*
X031956Y014789D01*
X031711Y014789D01*
X031629Y014707D01*
X031629Y014461D01*
X031449Y014707D02*
X031121Y014707D01*
X032464Y015288D02*
X032464Y015616D01*
X032218Y015616D01*
X032644Y015534D02*
X032644Y015288D01*
X032644Y015534D02*
X032726Y015616D01*
X032971Y015616D01*
X032971Y015288D01*
X033151Y015288D02*
X033479Y015288D01*
X033315Y015288D02*
X033315Y015780D01*
X033479Y015616D01*
X033397Y014953D02*
X033233Y014953D01*
X033151Y014871D01*
X033151Y014789D01*
X033479Y014461D01*
X033479Y014871D02*
X033397Y014953D01*
X032971Y013962D02*
X032644Y013635D01*
X032464Y013299D02*
X032464Y012808D01*
X032464Y012972D02*
X032218Y012808D01*
X032041Y012808D02*
X032041Y013299D01*
X032218Y013136D02*
X032464Y012972D01*
X032644Y013136D02*
X032971Y012808D01*
X033233Y012808D02*
X033233Y013299D01*
X033479Y013054D01*
X033151Y013054D01*
X032971Y013136D02*
X032644Y012808D01*
X033151Y012473D02*
X033479Y012473D01*
X033479Y012227D01*
X033315Y012309D01*
X033233Y012309D01*
X033151Y012227D01*
X033151Y012063D01*
X033233Y011981D01*
X033397Y011981D01*
X033479Y012063D01*
X032971Y011981D02*
X032644Y012309D01*
X032464Y012309D02*
X032464Y012063D01*
X032382Y011981D01*
X032136Y011981D01*
X031956Y012063D02*
X031956Y012391D01*
X031795Y012808D02*
X032041Y012972D01*
X031795Y013136D01*
X031618Y013054D02*
X031290Y013054D01*
X031110Y013136D02*
X031029Y013054D01*
X030865Y013054D01*
X030783Y012972D01*
X030783Y012890D01*
X030865Y012808D01*
X031029Y012808D01*
X031110Y012890D01*
X030603Y012808D02*
X030603Y013299D01*
X030275Y012808D01*
X030275Y013299D01*
X030095Y013299D02*
X030095Y012808D01*
X029768Y012808D01*
X029932Y013054D02*
X030095Y013054D01*
X030095Y013299D02*
X029768Y013299D01*
X029080Y013299D02*
X029080Y012972D01*
X028916Y012808D01*
X028753Y012972D01*
X028753Y013299D01*
X027563Y013471D02*
X027481Y013471D01*
X027568Y014461D02*
X027814Y014461D01*
X027896Y014543D01*
X027896Y014707D01*
X027814Y014789D01*
X027568Y014789D01*
X027568Y014953D02*
X027568Y014461D01*
X027389Y014543D02*
X027389Y014707D01*
X027307Y014789D01*
X027061Y014789D01*
X027061Y014953D02*
X027061Y014461D01*
X027307Y014461D01*
X027389Y014543D01*
X026881Y014461D02*
X026881Y014789D01*
X026881Y014625D02*
X026717Y014789D01*
X026635Y014789D01*
X028076Y014707D02*
X028076Y014461D01*
X028322Y014461D01*
X028404Y014543D01*
X028322Y014625D01*
X028076Y014625D01*
X028076Y014707D02*
X028158Y014789D01*
X028322Y014789D01*
X029337Y015288D02*
X029419Y015370D01*
X029337Y015452D01*
X030865Y013299D02*
X031029Y013299D01*
X031110Y013217D01*
X031110Y013136D01*
X030865Y013299D02*
X030783Y013217D01*
X032644Y011981D02*
X032971Y012309D01*
X033151Y011646D02*
X033315Y011564D01*
X033479Y011400D01*
X033233Y011400D01*
X033151Y011318D01*
X033151Y011236D01*
X033233Y011154D01*
X033397Y011154D01*
X033479Y011236D01*
X033479Y011400D01*
X032971Y011482D02*
X032644Y011154D01*
X032971Y011154D02*
X032644Y011482D01*
X032464Y010819D02*
X032464Y010327D01*
X032644Y010327D02*
X032971Y010655D01*
X033151Y010737D02*
X033479Y010409D01*
X033479Y010327D01*
X032971Y010327D02*
X032644Y010655D01*
X033151Y010737D02*
X033151Y010819D01*
X033479Y010819D01*
X032041Y010491D02*
X031795Y010327D01*
X030095Y010327D02*
X029850Y010327D01*
X029768Y010409D01*
X029768Y010737D01*
X029850Y010819D01*
X030095Y010819D01*
X030095Y010327D01*
X029419Y009992D02*
X029419Y009665D01*
X029255Y009501D01*
X029091Y009665D01*
X029091Y009992D01*
X028911Y009828D02*
X028583Y009501D01*
X028404Y009337D02*
X028240Y009501D01*
X028322Y009501D01*
X028322Y009583D01*
X028240Y009583D01*
X028240Y009501D01*
X028065Y009166D02*
X028065Y008838D01*
X027901Y008674D01*
X027738Y008838D01*
X027738Y009166D01*
X027558Y009002D02*
X027558Y008756D01*
X027476Y008674D01*
X027230Y008674D01*
X027230Y008592D02*
X027312Y008510D01*
X027394Y008510D01*
X027230Y008592D02*
X027230Y009002D01*
X027230Y008339D02*
X027230Y008011D01*
X027394Y007847D01*
X027558Y008011D01*
X027558Y008339D01*
X027732Y007929D02*
X027814Y007929D01*
X027814Y007847D01*
X027732Y007847D01*
X027732Y007929D01*
X027732Y007847D02*
X027896Y007683D01*
X028076Y007847D02*
X028404Y008175D01*
X028583Y008011D02*
X028583Y008339D01*
X028404Y008510D02*
X028240Y008674D01*
X028322Y008674D01*
X028322Y008756D01*
X028240Y008756D01*
X028240Y008674D01*
X028583Y008674D02*
X028911Y009002D01*
X029091Y008838D02*
X029091Y009166D01*
X029419Y009166D02*
X029419Y008838D01*
X029255Y008674D01*
X029091Y008838D01*
X028911Y008674D02*
X028583Y009002D01*
X028911Y009501D02*
X028583Y009828D01*
X028573Y010327D02*
X028245Y010655D01*
X027563Y010990D02*
X027481Y010990D01*
X024513Y011981D02*
X024185Y011981D01*
X024005Y011981D02*
X023677Y012309D01*
X023498Y012309D02*
X023334Y012473D01*
X023170Y012309D01*
X023170Y011981D01*
X022990Y011981D02*
X022662Y011981D01*
X022826Y011981D02*
X022826Y012473D01*
X022990Y012309D01*
X023170Y012227D02*
X023498Y012227D01*
X023498Y012309D02*
X023498Y011981D01*
X023677Y011981D02*
X024005Y012309D01*
X024185Y012473D02*
X024513Y012473D01*
X024513Y011981D01*
X024344Y011646D02*
X024016Y011646D01*
X023836Y011482D02*
X023508Y011154D01*
X023328Y011236D02*
X023001Y011564D01*
X023001Y011236D01*
X023083Y011154D01*
X023247Y011154D01*
X023328Y011236D01*
X023328Y011564D01*
X023247Y011646D01*
X023083Y011646D01*
X023001Y011564D01*
X022821Y011646D02*
X022493Y011646D01*
X022493Y011564D01*
X022821Y011236D01*
X022821Y011154D01*
X022657Y010819D02*
X022493Y010655D01*
X022493Y010327D01*
X022493Y010573D02*
X022821Y010573D01*
X022821Y010655D02*
X022657Y010819D01*
X022821Y010655D02*
X022821Y010327D01*
X023001Y010409D02*
X023083Y010327D01*
X023247Y010327D01*
X023328Y010409D01*
X023001Y010737D01*
X023001Y010409D01*
X023328Y010409D02*
X023328Y010737D01*
X023247Y010819D01*
X023083Y010819D01*
X023001Y010737D01*
X023508Y010655D02*
X023836Y010327D01*
X023836Y010655D02*
X023508Y010327D01*
X023334Y009992D02*
X023334Y009501D01*
X023498Y009501D02*
X023170Y009501D01*
X022990Y009583D02*
X022908Y009501D01*
X022744Y009501D01*
X022662Y009583D01*
X022662Y009747D01*
X022744Y009828D01*
X022826Y009828D01*
X022990Y009747D01*
X022990Y009992D01*
X022662Y009992D01*
X022483Y009747D02*
X022155Y009747D01*
X021975Y009992D02*
X021975Y009501D01*
X021647Y009501D01*
X021468Y009501D02*
X021222Y009501D01*
X021140Y009583D01*
X021140Y009910D01*
X021222Y009992D01*
X021468Y009992D01*
X021468Y009501D01*
X021468Y009166D02*
X021222Y009166D01*
X021140Y009084D01*
X021140Y008756D01*
X021222Y008674D01*
X021468Y008674D01*
X021468Y009166D01*
X021975Y009166D02*
X021975Y008674D01*
X021647Y008674D01*
X022155Y008920D02*
X022483Y008920D01*
X022662Y009002D02*
X022744Y008920D01*
X022908Y008920D01*
X022990Y009002D01*
X022990Y009084D01*
X022908Y009166D01*
X022744Y009166D01*
X022662Y009084D01*
X022662Y009002D01*
X022744Y008920D02*
X022662Y008838D01*
X022662Y008756D01*
X022744Y008674D01*
X022908Y008674D01*
X022990Y008756D01*
X022990Y008838D01*
X022908Y008920D01*
X023170Y008674D02*
X023498Y008674D01*
X023334Y008674D02*
X023334Y009166D01*
X023498Y009002D01*
X023677Y009002D02*
X024005Y008674D01*
X024005Y009002D02*
X023677Y008674D01*
X023334Y008339D02*
X023334Y007847D01*
X023498Y007847D02*
X023170Y007847D01*
X022990Y007847D02*
X022662Y007847D01*
X022826Y008093D02*
X022990Y008093D01*
X022990Y008339D02*
X022662Y008339D01*
X022483Y008093D02*
X022155Y008093D01*
X021975Y008093D02*
X021647Y008093D01*
X021647Y008175D02*
X021647Y007847D01*
X021468Y007847D02*
X021222Y007847D01*
X021140Y007929D01*
X021140Y008257D01*
X021222Y008339D01*
X021468Y008339D01*
X021468Y007847D01*
X021468Y007512D02*
X021222Y007512D01*
X021140Y007430D01*
X021140Y007102D01*
X021222Y007020D01*
X021468Y007020D01*
X021468Y007512D01*
X020960Y007847D02*
X020714Y007847D01*
X020632Y007929D01*
X020632Y008257D01*
X020714Y008339D01*
X020960Y008339D01*
X020960Y007847D01*
X020453Y007512D02*
X020125Y007512D01*
X020289Y007266D02*
X020453Y007266D01*
X020453Y007020D02*
X020453Y007512D01*
X019945Y007847D02*
X019781Y007847D01*
X019863Y007847D02*
X019863Y008339D01*
X019945Y008339D02*
X019781Y008339D01*
X019437Y008510D02*
X019274Y008674D01*
X019356Y008674D01*
X019356Y008756D01*
X019274Y008756D01*
X019274Y008674D01*
X019099Y008838D02*
X018935Y008674D01*
X018771Y008838D01*
X018771Y009166D01*
X018592Y009002D02*
X018264Y008674D01*
X018592Y008674D02*
X018264Y009002D01*
X018264Y009501D02*
X018592Y009828D01*
X018771Y009665D02*
X018771Y009992D01*
X019099Y009992D02*
X019099Y009665D01*
X018935Y009501D01*
X018771Y009665D01*
X018592Y009501D02*
X018264Y009828D01*
X018602Y010327D02*
X018848Y010573D01*
X018930Y010491D02*
X018602Y010819D01*
X018930Y010819D02*
X018930Y010327D01*
X019104Y010327D02*
X019268Y010164D01*
X019186Y010327D02*
X019104Y010327D01*
X019104Y010409D01*
X019186Y010409D01*
X019186Y010327D01*
X019448Y010327D02*
X019776Y010655D01*
X019956Y010491D02*
X019956Y010819D01*
X020283Y010819D02*
X020283Y010491D01*
X020119Y010327D01*
X019956Y010491D01*
X019776Y010327D02*
X019448Y010655D01*
X019268Y010990D02*
X019104Y011154D01*
X019186Y011154D01*
X019186Y011236D01*
X019104Y011236D01*
X019104Y011154D01*
X018930Y011154D02*
X018684Y011154D01*
X018602Y011236D01*
X018602Y011564D01*
X018684Y011646D01*
X018930Y011646D01*
X018930Y011154D01*
X019448Y011154D02*
X019776Y011482D01*
X019956Y011318D02*
X019956Y011646D01*
X020283Y011646D02*
X020283Y011318D01*
X020119Y011154D01*
X019956Y011318D01*
X019776Y011154D02*
X019448Y011482D01*
X019274Y011981D02*
X019110Y012145D01*
X019110Y012473D01*
X018930Y012309D02*
X018602Y011981D01*
X018930Y011981D02*
X018602Y012309D01*
X018941Y012808D02*
X019268Y013136D01*
X019448Y013299D02*
X019448Y012972D01*
X019612Y012808D01*
X019776Y012972D01*
X019776Y013299D01*
X020463Y013217D02*
X020463Y013054D01*
X020545Y012972D01*
X020791Y012972D01*
X020791Y012808D02*
X020791Y013299D01*
X020545Y013299D01*
X020463Y013217D01*
X020463Y013635D02*
X020463Y014126D01*
X020791Y014126D02*
X020791Y013635D01*
X020627Y013798D01*
X020463Y013635D01*
X019776Y013798D02*
X019612Y013635D01*
X019448Y013798D01*
X019448Y014126D01*
X019268Y013962D02*
X018941Y013635D01*
X018761Y013471D02*
X018597Y013635D01*
X018679Y013635D01*
X018679Y013716D01*
X018597Y013716D01*
X018597Y013635D01*
X018422Y013798D02*
X018259Y013635D01*
X018095Y013798D01*
X018095Y014126D01*
X018005Y014297D02*
X017923Y014297D01*
X017841Y014379D01*
X017841Y014789D01*
X017661Y014789D02*
X017497Y014789D01*
X017579Y014871D02*
X017579Y014543D01*
X017497Y014461D01*
X017323Y014543D02*
X017241Y014461D01*
X017077Y014461D01*
X016995Y014625D02*
X017323Y014625D01*
X017323Y014543D02*
X017323Y014707D01*
X017241Y014789D01*
X017077Y014789D01*
X016995Y014707D01*
X016995Y014625D01*
X016480Y014208D02*
X016480Y014126D01*
X016480Y013962D02*
X016480Y013635D01*
X016562Y013635D02*
X016398Y013635D01*
X016223Y013635D02*
X015977Y013635D01*
X015895Y013716D01*
X015895Y013880D01*
X015977Y013962D01*
X016223Y013962D01*
X016223Y014126D02*
X016223Y013635D01*
X016480Y013962D02*
X016562Y013962D01*
X016741Y013880D02*
X016741Y013635D01*
X016741Y013880D02*
X016823Y013962D01*
X017069Y013962D01*
X017069Y013635D01*
X017244Y013635D02*
X017407Y013471D01*
X017325Y013635D02*
X017244Y013635D01*
X017244Y013716D01*
X017325Y013716D01*
X017325Y013635D01*
X017587Y013635D02*
X017833Y013635D01*
X017915Y013716D01*
X017915Y013962D01*
X017587Y013962D02*
X017587Y013553D01*
X017669Y013471D01*
X017751Y013471D01*
X018422Y013798D02*
X018422Y014126D01*
X018430Y014461D02*
X018348Y014543D01*
X018348Y014707D01*
X018430Y014789D01*
X018676Y014789D01*
X018676Y014953D02*
X018676Y014461D01*
X018430Y014461D01*
X018169Y014543D02*
X018087Y014461D01*
X017841Y014461D01*
X018169Y014543D02*
X018169Y014789D01*
X018179Y015288D02*
X018425Y015288D01*
X018507Y015370D01*
X018507Y015534D01*
X018425Y015616D01*
X018179Y015616D01*
X018179Y015780D02*
X018179Y015288D01*
X018000Y015370D02*
X018000Y015534D01*
X017918Y015616D01*
X017672Y015616D01*
X017672Y015780D02*
X017672Y015288D01*
X017918Y015288D01*
X018000Y015370D01*
X017492Y015288D02*
X017492Y015616D01*
X017328Y015616D02*
X017246Y015616D01*
X017328Y015616D02*
X017492Y015452D01*
X018169Y016115D02*
X018169Y016443D01*
X018005Y016443D02*
X017923Y016443D01*
X018005Y016443D02*
X018169Y016279D01*
X018348Y016443D02*
X018594Y016443D01*
X018676Y016361D01*
X018676Y016197D01*
X018594Y016115D01*
X018348Y016115D01*
X018348Y016606D01*
X018259Y016942D02*
X018095Y017106D01*
X018095Y017433D01*
X017915Y017269D02*
X017915Y017024D01*
X017833Y016942D01*
X017587Y016942D01*
X017587Y016860D02*
X017669Y016778D01*
X017751Y016778D01*
X017587Y016860D02*
X017587Y017269D01*
X017328Y017605D02*
X017246Y017605D01*
X017164Y017686D01*
X017164Y018096D01*
X016984Y018260D02*
X016903Y018260D01*
X016821Y018178D01*
X016821Y018096D01*
X016739Y018014D01*
X016821Y017932D01*
X016821Y017850D01*
X016903Y017768D01*
X016984Y017768D01*
X017164Y017768D02*
X017410Y017768D01*
X017492Y017850D01*
X017492Y018096D01*
X017672Y017932D02*
X017836Y017768D01*
X018000Y017932D01*
X018000Y018260D01*
X017672Y018260D02*
X017672Y017932D01*
X018174Y017850D02*
X018256Y017850D01*
X018256Y017768D01*
X018174Y017768D01*
X018174Y017850D01*
X018174Y017768D02*
X018338Y017605D01*
X018422Y017433D02*
X018422Y017106D01*
X018259Y016942D01*
X018597Y016942D02*
X018597Y017024D01*
X018679Y017024D01*
X018679Y016942D01*
X018597Y016942D01*
X018761Y016778D01*
X018856Y016606D02*
X018856Y016115D01*
X019102Y016115D01*
X019184Y016197D01*
X019184Y016361D01*
X019102Y016443D01*
X018856Y016443D01*
X019364Y016361D02*
X019364Y016115D01*
X019609Y016115D01*
X019691Y016197D01*
X019609Y016279D01*
X019364Y016279D01*
X019364Y016361D02*
X019445Y016443D01*
X019609Y016443D01*
X019866Y016197D02*
X019948Y016197D01*
X019948Y016115D01*
X019866Y016115D01*
X019866Y016197D01*
X019866Y016115D02*
X020030Y015951D01*
X020040Y015780D02*
X020040Y015452D01*
X020204Y015288D01*
X020368Y015452D01*
X020368Y015780D01*
X019860Y015698D02*
X019778Y015780D01*
X019615Y015780D01*
X019533Y015698D01*
X019860Y015370D01*
X019778Y015288D01*
X019615Y015288D01*
X019533Y015370D01*
X019533Y015698D01*
X019860Y015698D02*
X019860Y015370D01*
X019702Y014953D02*
X019702Y014625D01*
X019866Y014461D01*
X020030Y014625D01*
X020030Y014953D01*
X019522Y014789D02*
X019194Y014461D01*
X019015Y014297D02*
X018851Y014461D01*
X018933Y014461D01*
X018933Y014543D01*
X018851Y014543D01*
X018851Y014461D01*
X019194Y014789D02*
X019522Y014461D01*
X019776Y014126D02*
X019776Y013798D01*
X019268Y013635D02*
X018941Y013962D01*
X018941Y013136D02*
X019268Y012808D01*
X019437Y012473D02*
X019437Y012145D01*
X019274Y011981D01*
X020125Y012227D02*
X020207Y012145D01*
X020453Y012145D01*
X020453Y011981D02*
X020453Y012473D01*
X020207Y012473D01*
X020125Y012391D01*
X020125Y012227D01*
X020632Y011981D02*
X020632Y012473D01*
X020960Y012473D02*
X020632Y011981D01*
X020960Y011981D02*
X020960Y012473D01*
X021140Y012473D02*
X021468Y012145D01*
X021386Y012227D02*
X021140Y011981D01*
X021468Y011981D02*
X021468Y012473D01*
X021647Y012391D02*
X021729Y012473D01*
X021893Y012473D01*
X021975Y012391D01*
X021975Y012309D01*
X021893Y012227D01*
X021729Y012227D01*
X021647Y012145D01*
X021647Y012063D01*
X021729Y011981D01*
X021893Y011981D01*
X021975Y012063D01*
X022155Y012227D02*
X022483Y012227D01*
X022493Y012808D02*
X022821Y012808D01*
X022821Y013299D01*
X022493Y013299D01*
X022657Y013054D02*
X022821Y013054D01*
X023001Y013054D02*
X023247Y013054D01*
X023328Y013136D01*
X023328Y013217D01*
X023247Y013299D01*
X023083Y013299D01*
X023001Y013217D01*
X023001Y012890D01*
X023083Y012808D01*
X023247Y012808D01*
X023328Y012890D01*
X023508Y012808D02*
X023836Y013136D01*
X024016Y013299D02*
X024344Y013299D01*
X024344Y012808D01*
X024016Y012808D01*
X023836Y012808D02*
X023508Y013136D01*
X023165Y013471D02*
X023083Y013471D01*
X023001Y013553D01*
X023001Y013962D01*
X022821Y013962D02*
X022575Y013962D01*
X022493Y013880D01*
X022493Y013635D01*
X022313Y013880D02*
X021986Y013880D01*
X021806Y013635D02*
X021560Y013635D01*
X021478Y013716D01*
X021478Y014044D01*
X021560Y014126D01*
X021806Y014126D01*
X021806Y013635D01*
X021298Y013635D02*
X021298Y014126D01*
X021053Y014126D01*
X020971Y014044D01*
X020971Y013880D01*
X021053Y013798D01*
X021298Y013798D01*
X021135Y013798D02*
X020971Y013635D01*
X020971Y013299D02*
X021298Y012972D01*
X021216Y013054D02*
X020971Y012808D01*
X021298Y012808D02*
X021298Y013299D01*
X021478Y013217D02*
X021560Y013299D01*
X021724Y013299D01*
X021806Y013217D01*
X021806Y013136D01*
X021724Y013054D01*
X021560Y013054D01*
X021478Y012972D01*
X021478Y012890D01*
X021560Y012808D01*
X021724Y012808D01*
X021806Y012890D01*
X021986Y013054D02*
X022313Y013054D01*
X022821Y013635D02*
X022821Y013962D01*
X023001Y013635D02*
X023247Y013635D01*
X023328Y013716D01*
X023328Y013962D01*
X023508Y013962D02*
X023836Y013635D01*
X024016Y013716D02*
X024016Y014044D01*
X024098Y014126D01*
X024344Y014126D01*
X024344Y013635D01*
X024098Y013635D01*
X024016Y013716D01*
X023836Y013962D02*
X023508Y013635D01*
X023593Y014461D02*
X023921Y014789D01*
X024100Y014871D02*
X024182Y014953D01*
X024346Y014953D01*
X024428Y014871D01*
X024428Y014543D01*
X024346Y014461D01*
X024182Y014461D01*
X024100Y014543D01*
X023921Y014461D02*
X023593Y014789D01*
X023413Y014625D02*
X023167Y014789D01*
X022990Y014625D02*
X022744Y014789D01*
X022567Y014707D02*
X022239Y014707D01*
X022060Y014625D02*
X021814Y014625D01*
X021732Y014707D01*
X021732Y014871D01*
X021814Y014953D01*
X022060Y014953D01*
X022060Y014461D01*
X021896Y014625D02*
X021732Y014461D01*
X021552Y014461D02*
X021552Y014953D01*
X021224Y014461D01*
X021224Y014953D01*
X021045Y014953D02*
X020799Y014953D01*
X020717Y014871D01*
X020717Y014543D01*
X020799Y014461D01*
X021045Y014461D01*
X021045Y014953D01*
X021383Y015288D02*
X021383Y015780D01*
X021137Y015780D01*
X021055Y015698D01*
X021055Y015534D01*
X021137Y015452D01*
X021383Y015452D01*
X021645Y015370D02*
X021645Y015780D01*
X021727Y015780D02*
X021563Y015780D01*
X021563Y016115D02*
X021891Y016115D01*
X021891Y016606D01*
X022070Y016361D02*
X022398Y016361D01*
X022578Y016361D02*
X022578Y016115D01*
X022578Y016361D02*
X022660Y016443D01*
X022906Y016443D01*
X022906Y016115D01*
X023085Y016115D02*
X023085Y016361D01*
X023167Y016443D01*
X023413Y016443D01*
X023413Y016115D01*
X023593Y016115D02*
X023593Y016361D01*
X023675Y016443D01*
X023921Y016443D01*
X023921Y016115D01*
X024100Y016115D02*
X024100Y016443D01*
X024264Y016606D01*
X024428Y016443D01*
X024428Y016115D01*
X024428Y016361D02*
X024100Y016361D01*
X024098Y016942D02*
X024016Y017024D01*
X024016Y017351D01*
X024098Y017433D01*
X024262Y017433D01*
X024344Y017351D01*
X024344Y017269D01*
X024262Y017187D01*
X024016Y017187D01*
X023836Y017269D02*
X023508Y016942D01*
X023328Y017024D02*
X023247Y016942D01*
X023001Y016942D01*
X023001Y016860D02*
X023083Y016778D01*
X023165Y016778D01*
X023001Y016860D02*
X023001Y017269D01*
X022821Y017351D02*
X022739Y017433D01*
X022575Y017433D01*
X022493Y017351D01*
X022821Y017024D01*
X022739Y016942D01*
X022575Y016942D01*
X022493Y017024D01*
X022493Y017351D01*
X022313Y017187D02*
X021986Y017187D01*
X021806Y017269D02*
X021724Y017187D01*
X021560Y017187D01*
X021478Y017106D01*
X021478Y017024D01*
X021560Y016942D01*
X021724Y016942D01*
X021806Y017024D01*
X021806Y017269D02*
X021806Y017351D01*
X021724Y017433D01*
X021560Y017433D01*
X021478Y017351D01*
X021298Y017433D02*
X020971Y016942D01*
X020971Y017433D01*
X020791Y017433D02*
X020791Y016942D01*
X020463Y016942D01*
X020627Y017187D02*
X020791Y017187D01*
X020791Y017433D02*
X020463Y017433D01*
X020463Y017768D02*
X020791Y017768D01*
X020791Y018260D01*
X020971Y018260D02*
X020971Y017768D01*
X020971Y018014D02*
X021298Y018014D01*
X021478Y017932D02*
X021478Y017850D01*
X021560Y017768D01*
X021724Y017768D01*
X021806Y017850D01*
X021724Y018014D02*
X021560Y018014D01*
X021478Y017932D01*
X021298Y017768D02*
X021298Y018260D01*
X021478Y018178D02*
X021560Y018260D01*
X021724Y018260D01*
X021806Y018178D01*
X021806Y018096D01*
X021724Y018014D01*
X021986Y018014D02*
X022313Y018014D01*
X022493Y017768D02*
X022821Y017768D01*
X022821Y018260D01*
X022493Y018260D01*
X022657Y018014D02*
X022821Y018014D01*
X023001Y018096D02*
X023001Y017686D01*
X023083Y017605D01*
X023165Y017605D01*
X023247Y017768D02*
X023001Y017768D01*
X023247Y017768D02*
X023328Y017850D01*
X023328Y018096D01*
X023508Y018096D02*
X023836Y017768D01*
X024016Y017850D02*
X024098Y017768D01*
X024262Y017768D01*
X024344Y017850D01*
X024344Y017932D01*
X024262Y018014D01*
X024098Y018014D01*
X024016Y017932D01*
X024016Y017850D01*
X024098Y018014D02*
X024016Y018096D01*
X024016Y018178D01*
X024098Y018260D01*
X024262Y018260D01*
X024344Y018178D01*
X024344Y018096D01*
X024262Y018014D01*
X023836Y018096D02*
X023508Y017768D01*
X023508Y017269D02*
X023836Y016942D01*
X024098Y016942D02*
X024262Y016942D01*
X024344Y017024D01*
X023328Y017024D02*
X023328Y017269D01*
X022821Y017351D02*
X022821Y017024D01*
X021383Y016606D02*
X021383Y016115D01*
X021137Y016115D01*
X021055Y016197D01*
X021055Y016525D01*
X021137Y016606D01*
X021383Y016606D01*
X021298Y016942D02*
X021298Y017433D01*
X020368Y016606D02*
X020204Y016606D01*
X020286Y016606D02*
X020286Y016115D01*
X020368Y016115D02*
X020204Y016115D01*
X019612Y016942D02*
X019448Y017106D01*
X019448Y017433D01*
X019268Y017269D02*
X018941Y016942D01*
X019268Y016942D02*
X018941Y017269D01*
X018941Y017768D02*
X019268Y018096D01*
X019448Y017932D02*
X019612Y017768D01*
X019776Y017932D01*
X019776Y018260D01*
X019448Y018260D02*
X019448Y017932D01*
X019268Y017768D02*
X018941Y018096D01*
X018761Y018014D02*
X018679Y017932D01*
X018679Y017850D01*
X018597Y017768D01*
X018515Y017768D01*
X018761Y018014D02*
X018679Y018096D01*
X018679Y018178D01*
X018597Y018260D01*
X018515Y018260D01*
X019776Y017433D02*
X019776Y017106D01*
X019612Y016942D01*
X018933Y015616D02*
X018769Y015616D01*
X018687Y015534D01*
X018687Y015288D01*
X018933Y015288D01*
X019015Y015370D01*
X018933Y015452D01*
X018687Y015452D01*
X019189Y015370D02*
X019271Y015370D01*
X019271Y015288D01*
X019189Y015288D01*
X019189Y015370D01*
X019189Y015288D02*
X019353Y015124D01*
X021645Y015370D02*
X021727Y015288D01*
X021809Y015288D01*
X021891Y015370D01*
X022070Y015534D02*
X022398Y015534D01*
X022578Y015534D02*
X022578Y015288D01*
X022578Y015534D02*
X022660Y015616D01*
X022906Y015616D01*
X022906Y015288D01*
X023085Y015288D02*
X023085Y015534D01*
X023167Y015616D01*
X023413Y015616D01*
X023413Y015288D01*
X023593Y015288D02*
X023593Y015534D01*
X023675Y015616D01*
X023921Y015616D01*
X023921Y015288D01*
X024100Y015370D02*
X024182Y015288D01*
X024428Y015288D01*
X024428Y015780D01*
X024182Y015780D01*
X024100Y015698D01*
X024100Y015616D01*
X024182Y015534D01*
X024428Y015534D01*
X024182Y015534D02*
X024100Y015452D01*
X024100Y015370D01*
X023413Y014953D02*
X023413Y014461D01*
X023413Y014625D02*
X023167Y014461D01*
X022990Y014461D02*
X022990Y014953D01*
X022990Y014625D02*
X022744Y014461D01*
X024180Y013054D02*
X024344Y013054D01*
X024349Y012227D02*
X024513Y012227D01*
X024344Y011646D02*
X024344Y011154D01*
X024344Y011400D02*
X024180Y011400D01*
X023836Y011154D02*
X023508Y011482D01*
X024016Y010819D02*
X024344Y010819D01*
X024344Y010327D01*
X024344Y010573D02*
X024180Y010573D01*
X024185Y009992D02*
X024513Y009992D01*
X024513Y009501D01*
X024513Y009166D02*
X024185Y009166D01*
X024349Y008920D02*
X024513Y008920D01*
X024513Y008674D02*
X024513Y009166D01*
X024005Y009501D02*
X023677Y009828D01*
X023498Y009828D02*
X023334Y009992D01*
X023677Y009501D02*
X024005Y009828D01*
X024349Y009747D02*
X024513Y009747D01*
X022313Y010573D02*
X021986Y010573D01*
X021806Y010327D02*
X021478Y010327D01*
X021298Y010327D02*
X021053Y010327D01*
X020971Y010409D01*
X020971Y010737D01*
X021053Y010819D01*
X021298Y010819D01*
X021298Y010327D01*
X021806Y010327D02*
X021806Y010819D01*
X021806Y011154D02*
X021478Y011154D01*
X021298Y011154D02*
X021053Y011154D01*
X020971Y011236D01*
X020971Y011564D01*
X021053Y011646D01*
X021298Y011646D01*
X021298Y011154D01*
X021806Y011154D02*
X021806Y011646D01*
X021986Y011400D02*
X022313Y011400D01*
X020453Y009992D02*
X020207Y009992D01*
X020125Y009910D01*
X020125Y009583D01*
X020207Y009501D01*
X020453Y009501D01*
X020453Y009992D01*
X019945Y009992D02*
X019617Y009992D01*
X019781Y009992D02*
X019781Y009501D01*
X019781Y009166D02*
X019781Y008674D01*
X020125Y008756D02*
X020207Y008674D01*
X020371Y008674D01*
X020453Y008756D01*
X020371Y008920D02*
X020207Y008920D01*
X020125Y008838D01*
X020125Y008756D01*
X020371Y008920D02*
X020453Y009002D01*
X020453Y009084D01*
X020371Y009166D01*
X020207Y009166D01*
X020125Y009084D01*
X019945Y009166D02*
X019617Y009166D01*
X019437Y009337D02*
X019274Y009501D01*
X019356Y009501D01*
X019356Y009583D01*
X019274Y009583D01*
X019274Y009501D01*
X019099Y009166D02*
X019099Y008838D01*
X018941Y008339D02*
X018941Y008011D01*
X019104Y007847D01*
X019268Y008011D01*
X019268Y008339D01*
X019443Y007929D02*
X019525Y007929D01*
X019525Y007847D01*
X019443Y007847D01*
X019443Y007929D01*
X019443Y007847D02*
X019607Y007683D01*
X019607Y007512D02*
X019607Y007184D01*
X019443Y007020D01*
X019279Y007184D01*
X019279Y007512D01*
X019099Y007348D02*
X018771Y007020D01*
X019099Y007020D02*
X018771Y007348D01*
X018761Y007847D02*
X018433Y008175D01*
X018761Y008175D02*
X018433Y007847D01*
X019781Y007102D02*
X019863Y007102D01*
X019863Y007020D01*
X019781Y007020D01*
X019781Y007102D01*
X019781Y007020D02*
X019945Y006857D01*
X020125Y006603D02*
X020125Y006521D01*
X020207Y006439D01*
X020453Y006439D01*
X020453Y006194D02*
X020207Y006194D01*
X020125Y006276D01*
X020125Y006357D01*
X020207Y006439D01*
X020125Y006603D02*
X020207Y006685D01*
X020453Y006685D01*
X020453Y006194D01*
X019945Y006030D02*
X019781Y006194D01*
X019863Y006194D01*
X019863Y006276D01*
X019781Y006276D01*
X019781Y006194D01*
X019607Y006357D02*
X019443Y006194D01*
X019279Y006357D01*
X019279Y006685D01*
X019099Y006521D02*
X018771Y006194D01*
X018771Y006521D02*
X019099Y006194D01*
X019607Y006357D02*
X019607Y006685D01*
X019612Y005858D02*
X019776Y005858D01*
X019612Y005858D02*
X019612Y005367D01*
X019776Y005367D01*
X019950Y005367D02*
X020114Y005367D01*
X020032Y005367D02*
X020032Y005858D01*
X020114Y005858D02*
X019950Y005858D01*
X020289Y005858D02*
X020453Y005858D01*
X020453Y005367D01*
X020289Y005367D01*
X020294Y005032D02*
X020294Y004704D01*
X020458Y004540D01*
X020622Y004704D01*
X020622Y005032D01*
X021140Y005449D02*
X021222Y005367D01*
X021468Y005367D01*
X021468Y005858D01*
X021222Y005858D01*
X021140Y005777D01*
X021140Y005449D01*
X021391Y005032D02*
X021637Y005032D01*
X021637Y004540D01*
X021391Y004540D01*
X021309Y004622D01*
X021309Y004950D01*
X021391Y005032D01*
X021647Y005367D02*
X021975Y005367D01*
X021975Y005858D01*
X022155Y005613D02*
X022483Y005613D01*
X022662Y005613D02*
X022662Y005449D01*
X022744Y005367D01*
X022908Y005367D01*
X022990Y005449D01*
X022990Y005613D02*
X022826Y005695D01*
X022744Y005695D01*
X022662Y005613D01*
X022662Y005858D02*
X022990Y005858D01*
X022990Y005613D01*
X023170Y005613D02*
X023252Y005695D01*
X023334Y005695D01*
X023498Y005613D01*
X023498Y005858D01*
X023170Y005858D01*
X023170Y005613D02*
X023170Y005449D01*
X023252Y005367D01*
X023416Y005367D01*
X023498Y005449D01*
X023677Y005367D02*
X024005Y005695D01*
X024185Y005858D02*
X024513Y005858D01*
X024513Y005367D01*
X024513Y005613D02*
X024349Y005613D01*
X024005Y005367D02*
X023677Y005695D01*
X023677Y006194D02*
X024005Y006521D01*
X024185Y006685D02*
X024513Y006685D01*
X024513Y006194D01*
X024513Y006439D02*
X024349Y006439D01*
X024005Y006194D02*
X023677Y006521D01*
X023498Y006603D02*
X023416Y006685D01*
X023252Y006685D01*
X023170Y006603D01*
X023170Y006521D01*
X023252Y006439D01*
X023170Y006357D01*
X023170Y006276D01*
X023252Y006194D01*
X023416Y006194D01*
X023498Y006276D01*
X023334Y006439D02*
X023252Y006439D01*
X022990Y006276D02*
X022908Y006194D01*
X022744Y006194D01*
X022662Y006276D01*
X022662Y006357D01*
X022744Y006439D01*
X022826Y006439D01*
X022744Y006439D02*
X022662Y006521D01*
X022662Y006603D01*
X022744Y006685D01*
X022908Y006685D01*
X022990Y006603D01*
X022483Y006439D02*
X022155Y006439D01*
X021975Y006194D02*
X021647Y006194D01*
X021468Y006194D02*
X021222Y006194D01*
X021140Y006276D01*
X021140Y006603D01*
X021222Y006685D01*
X021468Y006685D01*
X021468Y006194D01*
X021975Y006194D02*
X021975Y006685D01*
X021975Y007020D02*
X021647Y007020D01*
X021975Y007020D02*
X021975Y007512D01*
X022155Y007266D02*
X022483Y007266D01*
X022662Y007266D02*
X022908Y007266D01*
X022990Y007348D01*
X022990Y007430D01*
X022908Y007512D01*
X022744Y007512D01*
X022662Y007430D01*
X022662Y007102D01*
X022744Y007020D01*
X022908Y007020D01*
X022990Y007102D01*
X023170Y007020D02*
X023498Y007020D01*
X023170Y007348D01*
X023170Y007430D01*
X023252Y007512D01*
X023416Y007512D01*
X023498Y007430D01*
X023677Y007348D02*
X024005Y007020D01*
X024005Y007348D02*
X023677Y007020D01*
X024185Y007512D02*
X024513Y007512D01*
X024513Y007020D01*
X024513Y007266D02*
X024349Y007266D01*
X024513Y007847D02*
X024513Y008339D01*
X024185Y008339D01*
X024005Y008175D02*
X023677Y007847D01*
X024005Y007847D02*
X023677Y008175D01*
X023498Y008175D02*
X023334Y008339D01*
X022990Y008339D02*
X022990Y007847D01*
X021975Y007847D02*
X021975Y008175D01*
X021811Y008339D01*
X021647Y008175D01*
X024349Y008093D02*
X024513Y008093D01*
X026723Y008175D02*
X026723Y007765D01*
X026804Y007683D01*
X026886Y007683D01*
X026968Y007847D02*
X026723Y007847D01*
X026968Y007847D02*
X027050Y007929D01*
X027050Y008175D01*
X027230Y007512D02*
X027230Y007184D01*
X027394Y007020D01*
X027558Y007184D01*
X027558Y007512D01*
X028076Y007348D02*
X028404Y007020D01*
X028583Y007184D02*
X028583Y007512D01*
X028404Y007348D02*
X028076Y007020D01*
X027896Y006857D02*
X027732Y007020D01*
X027814Y007020D01*
X027814Y007102D01*
X027732Y007102D01*
X027732Y007020D01*
X027558Y006685D02*
X027558Y006357D01*
X027394Y006194D01*
X027230Y006357D01*
X027230Y006685D01*
X027050Y006521D02*
X027050Y006276D01*
X026968Y006194D01*
X026723Y006194D01*
X026723Y006112D02*
X026804Y006030D01*
X026886Y006030D01*
X026723Y006112D02*
X026723Y006521D01*
X026804Y006857D02*
X026886Y006857D01*
X026804Y006857D02*
X026723Y006938D01*
X026723Y007348D01*
X027050Y007348D02*
X027050Y007102D01*
X026968Y007020D01*
X026723Y007020D01*
X028076Y006521D02*
X028404Y006194D01*
X028583Y006357D02*
X028583Y006685D01*
X028404Y006521D02*
X028076Y006194D01*
X027896Y006030D02*
X027732Y006194D01*
X027814Y006194D01*
X027814Y006276D01*
X027732Y006276D01*
X027732Y006194D01*
X027558Y005858D02*
X027558Y005531D01*
X027394Y005367D01*
X027230Y005531D01*
X027230Y005858D01*
X027050Y005695D02*
X027050Y005449D01*
X026968Y005367D01*
X026723Y005367D01*
X026723Y005285D02*
X026804Y005203D01*
X026886Y005203D01*
X026723Y005285D02*
X026723Y005695D01*
X027732Y005449D02*
X027732Y005367D01*
X027814Y005367D01*
X027814Y005449D01*
X027732Y005449D01*
X027732Y005367D02*
X027896Y005203D01*
X027732Y005032D02*
X027814Y004950D01*
X027814Y004868D01*
X027896Y004786D01*
X027814Y004704D01*
X027814Y004622D01*
X027732Y004540D01*
X027650Y004540D01*
X027473Y004376D02*
X027309Y004540D01*
X027391Y004540D01*
X027391Y004622D01*
X027309Y004622D01*
X027309Y004540D01*
X027135Y004704D02*
X026971Y004540D01*
X026807Y004704D01*
X026807Y005032D01*
X026627Y004868D02*
X026627Y004622D01*
X026545Y004540D01*
X026300Y004540D01*
X026300Y004458D02*
X026382Y004376D01*
X026463Y004376D01*
X026300Y004458D02*
X026300Y004868D01*
X026120Y005032D02*
X026038Y005032D01*
X025956Y004950D01*
X025956Y004868D01*
X025874Y004786D01*
X025956Y004704D01*
X025956Y004622D01*
X026038Y004540D01*
X026120Y004540D01*
X026723Y004205D02*
X026723Y003877D01*
X026886Y003713D01*
X027050Y003877D01*
X027050Y004205D01*
X026543Y004041D02*
X026543Y003795D01*
X026461Y003713D01*
X026215Y003713D01*
X026215Y003631D02*
X026297Y003549D01*
X026379Y003549D01*
X026215Y003631D02*
X026215Y004041D01*
X027225Y003795D02*
X027307Y003795D01*
X027307Y003713D01*
X027225Y003713D01*
X027225Y003795D01*
X027225Y003713D02*
X027389Y003549D01*
X027568Y003713D02*
X027896Y004041D01*
X028076Y003877D02*
X028076Y004205D01*
X028404Y004205D02*
X028404Y003877D01*
X028240Y003713D01*
X028076Y003877D01*
X027896Y003713D02*
X027568Y004041D01*
X028076Y004540D02*
X028404Y004868D01*
X028583Y004704D02*
X028583Y005032D01*
X028911Y005032D02*
X028911Y004704D01*
X028747Y004540D01*
X028583Y004704D01*
X028404Y004540D02*
X028076Y004868D01*
X027732Y005032D02*
X027650Y005032D01*
X027135Y005032D02*
X027135Y004704D01*
X028076Y005367D02*
X028404Y005695D01*
X028583Y005531D02*
X028583Y005858D01*
X028583Y005531D02*
X028747Y005367D01*
X028911Y005531D01*
X028911Y005858D01*
X028747Y006194D02*
X028583Y006357D01*
X028747Y006194D02*
X028911Y006357D01*
X028911Y006685D01*
X028747Y007020D02*
X028583Y007184D01*
X028747Y007020D02*
X028911Y007184D01*
X028911Y007512D01*
X028747Y007847D02*
X028583Y008011D01*
X028747Y007847D02*
X028911Y008011D01*
X028911Y008339D01*
X028404Y007847D02*
X028076Y008175D01*
X029598Y007430D02*
X029598Y007266D01*
X029680Y007184D01*
X029926Y007184D01*
X029926Y007020D02*
X029926Y007512D01*
X029680Y007512D01*
X029598Y007430D01*
X029762Y007184D02*
X029598Y007020D01*
X029680Y006685D02*
X029598Y006603D01*
X029598Y006276D01*
X029680Y006194D01*
X029926Y006194D01*
X029926Y006685D01*
X029680Y006685D01*
X028404Y005367D02*
X028076Y005695D01*
X029598Y004540D02*
X029762Y004704D01*
X029680Y004205D02*
X029598Y004123D01*
X029598Y004041D01*
X029680Y003959D01*
X029926Y003959D01*
X030106Y003795D02*
X030106Y004205D01*
X029926Y004205D02*
X029680Y004205D01*
X029680Y003959D02*
X029598Y003877D01*
X029598Y003795D01*
X029680Y003713D01*
X029926Y003713D01*
X029926Y004205D01*
X029419Y004205D02*
X029091Y003713D01*
X029091Y004205D01*
X029419Y004205D02*
X029419Y003713D01*
X030106Y003795D02*
X030188Y003713D01*
X030352Y003713D01*
X030434Y003795D01*
X030434Y004205D01*
X030614Y004123D02*
X030695Y004205D01*
X030859Y004205D01*
X030941Y004123D01*
X030941Y004041D01*
X030859Y003959D01*
X030695Y003959D01*
X030614Y003877D01*
X030614Y003795D01*
X030695Y003713D01*
X030859Y003713D01*
X030941Y003795D01*
X031121Y003959D02*
X031449Y003959D01*
X032136Y004540D02*
X032382Y004540D01*
X032464Y004622D01*
X032464Y004868D01*
X032644Y004868D02*
X032971Y004540D01*
X033151Y004622D02*
X033233Y004540D01*
X033397Y004540D01*
X033479Y004622D01*
X033479Y004704D01*
X033397Y004786D01*
X033233Y004786D01*
X033151Y004704D01*
X033151Y004622D01*
X033233Y004786D02*
X033151Y004868D01*
X033151Y004950D01*
X033233Y005032D01*
X033397Y005032D01*
X033479Y004950D01*
X033479Y004868D01*
X033397Y004786D01*
X032971Y004868D02*
X032644Y004540D01*
X024682Y004540D02*
X024682Y005032D01*
X024354Y005032D01*
X024174Y004868D02*
X023847Y004540D01*
X023667Y004622D02*
X023667Y004786D01*
X023421Y004786D01*
X023339Y004704D01*
X023339Y004622D01*
X023421Y004540D01*
X023585Y004540D01*
X023667Y004622D01*
X023667Y004786D02*
X023503Y004950D01*
X023339Y005032D01*
X023159Y005032D02*
X023159Y004786D01*
X022995Y004868D01*
X022914Y004868D01*
X022832Y004786D01*
X022832Y004622D01*
X022914Y004540D01*
X023077Y004540D01*
X023159Y004622D01*
X023159Y005032D02*
X022832Y005032D01*
X022652Y004786D02*
X022324Y004786D01*
X022144Y005032D02*
X022144Y004540D01*
X021817Y004540D01*
X020114Y004540D02*
X019786Y004868D01*
X020114Y004868D02*
X019786Y004540D01*
X019607Y004376D02*
X019443Y004540D01*
X019525Y004540D01*
X019525Y004622D01*
X019443Y004622D01*
X019443Y004540D01*
X019268Y004540D02*
X019268Y005032D01*
X019104Y005032D01*
X018930Y005032D02*
X018766Y005032D01*
X018848Y005032D02*
X018848Y004540D01*
X018930Y004540D02*
X018766Y004540D01*
X018592Y004540D02*
X018428Y004540D01*
X018428Y005032D01*
X018592Y005032D01*
X018592Y005367D02*
X018264Y005695D01*
X018592Y005695D02*
X018264Y005367D01*
X018771Y005531D02*
X018771Y005858D01*
X018771Y005531D02*
X018935Y005367D01*
X019099Y005531D01*
X019099Y005858D01*
X019274Y005449D02*
X019356Y005449D01*
X019356Y005367D01*
X019274Y005367D01*
X019274Y005449D01*
X019274Y005367D02*
X019437Y005203D01*
X019268Y004540D02*
X019104Y004540D01*
X016156Y004540D02*
X016156Y005032D01*
X015828Y005032D01*
X015649Y004868D02*
X015321Y004540D01*
X015141Y004622D02*
X015141Y004704D01*
X015059Y004786D01*
X014895Y004786D01*
X014813Y004704D01*
X014813Y004622D01*
X014895Y004540D01*
X015059Y004540D01*
X015141Y004622D01*
X015059Y004786D02*
X015141Y004868D01*
X015141Y004950D01*
X015059Y005032D01*
X014895Y005032D01*
X014813Y004950D01*
X014813Y004868D01*
X014895Y004786D01*
X014633Y004786D02*
X014633Y005032D01*
X014306Y005032D01*
X014388Y004868D02*
X014306Y004786D01*
X014306Y004622D01*
X014388Y004540D01*
X014552Y004540D01*
X014633Y004622D01*
X014633Y004786D02*
X014470Y004868D01*
X014388Y004868D01*
X014126Y004786D02*
X013798Y004786D01*
X013618Y005032D02*
X013618Y004540D01*
X013291Y004540D01*
X013111Y004540D02*
X012865Y004540D01*
X012783Y004622D01*
X012783Y004950D01*
X012865Y005032D01*
X013111Y005032D01*
X013111Y004540D01*
X012096Y004704D02*
X012096Y005032D01*
X011768Y005032D02*
X011768Y004704D01*
X011932Y004540D01*
X012096Y004704D01*
X011588Y004868D02*
X011261Y004540D01*
X011081Y004376D02*
X010917Y004540D01*
X010999Y004540D01*
X010999Y004622D01*
X010917Y004622D01*
X010917Y004540D01*
X010742Y004540D02*
X010742Y005032D01*
X010497Y005032D01*
X010415Y004950D01*
X010415Y004786D01*
X010497Y004704D01*
X010742Y004704D01*
X010579Y004704D02*
X010415Y004540D01*
X011261Y004868D02*
X011588Y004540D01*
X011588Y005203D02*
X011424Y005367D01*
X011506Y005367D01*
X011506Y005449D01*
X011424Y005449D01*
X011424Y005367D01*
X011250Y005531D02*
X011086Y005367D01*
X010922Y005531D01*
X010922Y005858D01*
X011081Y006030D02*
X010917Y006194D01*
X010999Y006194D01*
X010999Y006276D01*
X010917Y006276D01*
X010917Y006194D01*
X010742Y006357D02*
X010579Y006194D01*
X010415Y006357D01*
X010415Y006685D01*
X010573Y006857D02*
X010409Y007020D01*
X010491Y007020D01*
X010491Y007102D01*
X010409Y007102D01*
X010409Y007020D01*
X010235Y007184D02*
X010071Y007020D01*
X009907Y007184D01*
X009907Y007512D01*
X009727Y007348D02*
X009727Y007102D01*
X009646Y007020D01*
X009400Y007020D01*
X009400Y006938D02*
X009482Y006857D01*
X009564Y006857D01*
X009400Y006938D02*
X009400Y007348D01*
X009138Y007102D02*
X009138Y007020D01*
X009056Y007020D01*
X009056Y007102D01*
X009138Y007102D01*
X009056Y007020D02*
X009220Y006857D01*
X008882Y007102D02*
X008554Y007430D01*
X008554Y007102D01*
X008636Y007020D01*
X008800Y007020D01*
X008882Y007102D01*
X008882Y007430D01*
X008800Y007512D01*
X008636Y007512D01*
X008554Y007430D01*
X009907Y006521D02*
X010235Y006194D01*
X010235Y006521D02*
X009907Y006194D01*
X010415Y005695D02*
X010742Y005367D01*
X010415Y005367D02*
X010742Y005695D01*
X011250Y005858D02*
X011250Y005531D01*
X011768Y005613D02*
X011850Y005531D01*
X012096Y005531D01*
X011932Y005531D02*
X011768Y005367D01*
X011768Y005613D02*
X011768Y005777D01*
X011850Y005858D01*
X012096Y005858D01*
X012096Y005367D01*
X012783Y005449D02*
X012783Y005777D01*
X012865Y005858D01*
X013111Y005858D01*
X013111Y005367D01*
X012865Y005367D01*
X012783Y005449D01*
X013291Y005367D02*
X013618Y005367D01*
X013618Y005858D01*
X013798Y005613D02*
X014126Y005613D01*
X014306Y005613D02*
X014388Y005695D01*
X014470Y005695D01*
X014633Y005613D01*
X014633Y005858D01*
X014306Y005858D01*
X014306Y005613D02*
X014306Y005449D01*
X014388Y005367D01*
X014552Y005367D01*
X014633Y005449D01*
X014813Y005777D02*
X015141Y005449D01*
X015141Y005367D01*
X015321Y005367D02*
X015649Y005695D01*
X015828Y005858D02*
X016156Y005858D01*
X016156Y005367D01*
X016156Y005613D02*
X015992Y005613D01*
X015649Y005367D02*
X015321Y005695D01*
X015141Y005858D02*
X014813Y005858D01*
X014813Y005777D01*
X014895Y006194D02*
X015059Y006194D01*
X015141Y006276D01*
X015321Y006194D02*
X015649Y006521D01*
X015828Y006685D02*
X016156Y006685D01*
X016156Y006194D01*
X016156Y006439D02*
X015992Y006439D01*
X015649Y006194D02*
X015321Y006521D01*
X015141Y006603D02*
X015059Y006685D01*
X014895Y006685D01*
X014813Y006603D01*
X014813Y006521D01*
X014895Y006439D01*
X014813Y006357D01*
X014813Y006276D01*
X014895Y006194D01*
X014895Y006439D02*
X014977Y006439D01*
X014633Y006276D02*
X014306Y006603D01*
X014306Y006276D01*
X014388Y006194D01*
X014552Y006194D01*
X014633Y006276D01*
X014633Y006603D01*
X014552Y006685D01*
X014388Y006685D01*
X014306Y006603D01*
X014126Y006439D02*
X013798Y006439D01*
X013618Y006194D02*
X013291Y006194D01*
X013111Y006194D02*
X012865Y006194D01*
X012783Y006276D01*
X012783Y006603D01*
X012865Y006685D01*
X013111Y006685D01*
X013111Y006194D01*
X013618Y006194D02*
X013618Y006685D01*
X013618Y007020D02*
X013373Y007020D01*
X013291Y007102D01*
X013291Y007430D01*
X013373Y007512D01*
X013618Y007512D01*
X013618Y007020D01*
X013798Y007266D02*
X014126Y007266D01*
X014306Y007102D02*
X014388Y007020D01*
X014552Y007020D01*
X014633Y007102D01*
X014306Y007430D01*
X014306Y007102D01*
X014633Y007102D02*
X014633Y007430D01*
X014552Y007512D01*
X014388Y007512D01*
X014306Y007430D01*
X014813Y007348D02*
X014813Y006938D01*
X014895Y006857D01*
X014977Y006857D01*
X015059Y007020D02*
X014813Y007020D01*
X015059Y007020D02*
X015141Y007102D01*
X015141Y007348D01*
X015321Y007348D02*
X015649Y007020D01*
X015828Y007102D02*
X015828Y007430D01*
X015910Y007512D01*
X016156Y007512D01*
X016156Y007020D01*
X015910Y007020D01*
X015828Y007102D01*
X015649Y007348D02*
X015321Y007020D01*
X015403Y007847D02*
X015567Y007847D01*
X015649Y007929D01*
X015321Y008257D01*
X015321Y007929D01*
X015403Y007847D01*
X015649Y007929D02*
X015649Y008257D01*
X015567Y008339D01*
X015403Y008339D01*
X015321Y008257D01*
X015141Y008339D02*
X014813Y008339D01*
X014633Y008339D02*
X014633Y007847D01*
X014306Y007847D01*
X014470Y008093D02*
X014633Y008093D01*
X014633Y008339D02*
X014306Y008339D01*
X014126Y008093D02*
X013798Y008093D01*
X013618Y008339D02*
X013618Y007847D01*
X013291Y007847D01*
X013111Y007929D02*
X013029Y007847D01*
X012865Y007847D01*
X012783Y007929D01*
X012783Y008257D01*
X012865Y008339D01*
X013029Y008339D01*
X013111Y008257D01*
X013111Y007929D01*
X012603Y007847D02*
X012440Y008011D01*
X012276Y007847D01*
X012276Y008339D01*
X012603Y008339D02*
X012603Y007847D01*
X012603Y007512D02*
X012603Y007020D01*
X012440Y007184D01*
X012276Y007020D01*
X012276Y007512D01*
X012783Y007430D02*
X012783Y007266D01*
X012865Y007184D01*
X013111Y007184D01*
X013111Y007020D02*
X013111Y007512D01*
X012865Y007512D01*
X012783Y007430D01*
X012947Y007184D02*
X012783Y007020D01*
X012096Y006685D02*
X012096Y006194D01*
X012096Y006439D02*
X011768Y006439D01*
X011588Y006439D02*
X011424Y006439D01*
X011588Y006194D02*
X011588Y006685D01*
X011261Y006685D01*
X010742Y006685D02*
X010742Y006357D01*
X010753Y007020D02*
X011081Y007348D01*
X011261Y007184D02*
X011261Y007512D01*
X011588Y007512D02*
X011588Y007184D01*
X011424Y007020D01*
X011261Y007184D01*
X011081Y007020D02*
X010753Y007348D01*
X010235Y007512D02*
X010235Y007184D01*
X011768Y006685D02*
X011768Y006194D01*
X014977Y008093D02*
X015141Y008093D01*
X015141Y007847D02*
X015141Y008339D01*
X015141Y008674D02*
X015141Y009166D01*
X014813Y009166D01*
X014633Y009166D02*
X014388Y009166D01*
X014306Y009084D01*
X014306Y008756D01*
X014388Y008674D01*
X014633Y008674D01*
X014633Y009166D01*
X014552Y009501D02*
X014388Y009501D01*
X014306Y009583D01*
X014126Y009747D02*
X013798Y009747D01*
X013618Y009828D02*
X013537Y009747D01*
X013373Y009747D01*
X013291Y009665D01*
X013291Y009583D01*
X013373Y009501D01*
X013537Y009501D01*
X013618Y009583D01*
X013618Y009828D02*
X013618Y009910D01*
X013537Y009992D01*
X013373Y009992D01*
X013291Y009910D01*
X013111Y009910D02*
X013111Y009583D01*
X013029Y009501D01*
X012865Y009501D01*
X012783Y009583D01*
X012603Y009501D02*
X012276Y009501D01*
X012603Y009501D02*
X012603Y009992D01*
X012783Y009910D02*
X012865Y009992D01*
X013029Y009992D01*
X013111Y009910D01*
X013029Y010327D02*
X012865Y010327D01*
X012783Y010409D01*
X012603Y010327D02*
X012603Y010819D01*
X012358Y010819D01*
X012276Y010737D01*
X012276Y010573D01*
X012358Y010491D01*
X012603Y010491D01*
X012440Y010491D02*
X012276Y010327D01*
X012783Y010737D02*
X012865Y010819D01*
X013029Y010819D01*
X013111Y010737D01*
X013111Y010409D01*
X013029Y010327D01*
X013291Y010409D02*
X013373Y010327D01*
X013537Y010327D01*
X013618Y010409D01*
X013537Y010573D02*
X013618Y010655D01*
X013618Y010737D01*
X013537Y010819D01*
X013373Y010819D01*
X013291Y010737D01*
X013373Y010573D02*
X013291Y010491D01*
X013291Y010409D01*
X013373Y010573D02*
X013537Y010573D01*
X013798Y010573D02*
X014126Y010573D01*
X014306Y010491D02*
X014306Y010409D01*
X014388Y010327D01*
X014633Y010327D01*
X014633Y010819D01*
X014388Y010819D01*
X014306Y010737D01*
X014306Y010655D01*
X014388Y010573D01*
X014633Y010573D01*
X014388Y010573D02*
X014306Y010491D01*
X014813Y010819D02*
X015141Y010819D01*
X015141Y010327D01*
X015321Y010409D02*
X015403Y010327D01*
X015567Y010327D01*
X015649Y010409D01*
X015321Y010737D01*
X015321Y010409D01*
X015141Y010573D02*
X014977Y010573D01*
X015321Y010737D02*
X015403Y010819D01*
X015567Y010819D01*
X015649Y010737D01*
X015649Y010409D01*
X015828Y010409D02*
X015910Y010327D01*
X016074Y010327D01*
X016156Y010409D01*
X015828Y010737D01*
X015828Y010409D01*
X016156Y010409D02*
X016156Y010737D01*
X016074Y010819D01*
X015910Y010819D01*
X015828Y010737D01*
X015910Y011154D02*
X016074Y011154D01*
X016156Y011236D01*
X015828Y011564D01*
X015828Y011236D01*
X015910Y011154D01*
X016156Y011236D02*
X016156Y011564D01*
X016074Y011646D01*
X015910Y011646D01*
X015828Y011564D01*
X015649Y011564D02*
X015567Y011646D01*
X015403Y011646D01*
X015321Y011564D01*
X015649Y011236D01*
X015567Y011154D01*
X015403Y011154D01*
X015321Y011236D01*
X015321Y011564D01*
X015141Y011564D02*
X015141Y011236D01*
X015059Y011154D01*
X014895Y011154D01*
X014813Y011236D01*
X014633Y011154D02*
X014633Y011482D01*
X014388Y011482D01*
X014306Y011400D01*
X014306Y011154D01*
X014126Y011400D02*
X013798Y011400D01*
X013618Y011482D02*
X013537Y011400D01*
X013373Y011400D01*
X013291Y011318D01*
X013291Y011236D01*
X013373Y011154D01*
X013537Y011154D01*
X013618Y011236D01*
X013618Y011482D02*
X013618Y011564D01*
X013537Y011646D01*
X013373Y011646D01*
X013291Y011564D01*
X013111Y011564D02*
X013111Y011236D01*
X013029Y011154D01*
X012865Y011154D01*
X012783Y011236D01*
X012603Y011154D02*
X012358Y011154D01*
X012276Y011236D01*
X012276Y011564D01*
X012358Y011646D01*
X012603Y011646D01*
X012603Y011154D01*
X012783Y011564D02*
X012865Y011646D01*
X013029Y011646D01*
X013111Y011564D01*
X011588Y011482D02*
X011588Y011154D01*
X011261Y011154D02*
X011261Y011400D01*
X011343Y011482D01*
X011588Y011482D01*
X011081Y011482D02*
X010999Y011482D01*
X010999Y011154D01*
X011081Y011154D02*
X010917Y011154D01*
X010742Y011154D02*
X010497Y011154D01*
X010415Y011236D01*
X010415Y011400D01*
X010497Y011482D01*
X010742Y011482D01*
X010742Y011646D02*
X010742Y011154D01*
X010999Y011646D02*
X010999Y011728D01*
X014306Y009910D02*
X014388Y009992D01*
X014552Y009992D01*
X014633Y009910D01*
X014633Y009583D01*
X014552Y009501D01*
X014977Y009747D02*
X015141Y009747D01*
X015321Y009910D02*
X015649Y009583D01*
X015567Y009501D01*
X015403Y009501D01*
X015321Y009583D01*
X015321Y009910D01*
X015403Y009992D01*
X015567Y009992D01*
X015649Y009910D01*
X015649Y009583D01*
X015828Y009583D02*
X015910Y009501D01*
X016074Y009501D01*
X016156Y009583D01*
X015828Y009910D01*
X015828Y009583D01*
X015828Y009910D02*
X015910Y009992D01*
X016074Y009992D01*
X016156Y009910D01*
X016156Y009583D01*
X016074Y009166D02*
X015910Y009166D01*
X015828Y009084D01*
X016156Y008756D01*
X016074Y008674D01*
X015910Y008674D01*
X015828Y008756D01*
X015828Y009084D01*
X015649Y009084D02*
X015567Y009166D01*
X015403Y009166D01*
X015321Y009084D01*
X015649Y008756D01*
X015567Y008674D01*
X015403Y008674D01*
X015321Y008756D01*
X015321Y009084D01*
X015141Y008920D02*
X014977Y008920D01*
X015141Y009501D02*
X015141Y009992D01*
X014813Y009992D01*
X015649Y009084D02*
X015649Y008756D01*
X015910Y008339D02*
X015828Y008257D01*
X016156Y007929D01*
X016074Y007847D01*
X015910Y007847D01*
X015828Y007929D01*
X015828Y008257D01*
X015910Y008339D02*
X016074Y008339D01*
X016156Y008257D01*
X016156Y007929D01*
X016156Y008756D02*
X016156Y009084D01*
X016074Y009166D01*
X014126Y008920D02*
X013798Y008920D01*
X013618Y008920D02*
X013455Y008920D01*
X013291Y009166D02*
X013618Y009166D01*
X013618Y008674D01*
X013291Y008674D01*
X013111Y008674D02*
X012783Y009166D01*
X012603Y009166D02*
X012440Y009166D01*
X012521Y009166D02*
X012521Y008674D01*
X012440Y008674D02*
X012603Y008674D01*
X012783Y008674D02*
X013111Y009166D01*
X012265Y009166D02*
X011937Y009166D01*
X012101Y009166D02*
X012101Y008674D01*
X015649Y011236D02*
X015649Y011564D01*
X015141Y011564D02*
X015059Y011646D01*
X014895Y011646D01*
X014813Y011564D01*
X018095Y011646D02*
X018422Y011646D01*
X018259Y011646D02*
X018259Y011154D01*
X016156Y004786D02*
X015992Y004786D01*
X015649Y004540D02*
X015321Y004868D01*
X009137Y002018D02*
X009137Y001018D01*
X004337Y001018D01*
X004337Y002018D01*
X009137Y002018D01*
X023847Y004868D02*
X024174Y004540D01*
X024518Y004786D02*
X024682Y004786D01*
D12*
X013058Y018425D02*
X013058Y020439D01*
X012387Y019768D01*
X011716Y020439D01*
X011716Y018425D01*
X010883Y018761D02*
X010548Y018425D01*
X009876Y018425D01*
X009541Y018761D01*
X008708Y018761D02*
X008372Y018425D01*
X007701Y018425D01*
X007365Y018761D01*
X006533Y018761D02*
X006533Y019097D01*
X006197Y019432D01*
X005526Y019432D01*
X005190Y019097D01*
X005190Y018761D01*
X005526Y018425D01*
X006197Y018425D01*
X006533Y018761D01*
X006197Y019432D02*
X006533Y019768D01*
X006533Y020104D01*
X006197Y020439D01*
X005526Y020439D01*
X005190Y020104D01*
X005190Y019768D01*
X005526Y019432D01*
X007365Y020104D02*
X007701Y020439D01*
X008372Y020439D01*
X008708Y020104D01*
X008708Y018761D01*
X009541Y020104D02*
X009876Y020439D01*
X010548Y020439D01*
X010883Y020104D01*
X010883Y018761D01*
D13*
X002348Y013667D02*
X001497Y013667D01*
X001497Y014092D01*
X001639Y014234D01*
X001923Y014234D01*
X002064Y014092D01*
X002064Y013667D01*
X001923Y013313D02*
X001497Y013313D01*
X001497Y012888D01*
X001639Y012746D01*
X001781Y012888D01*
X001781Y013313D01*
X001923Y013313D02*
X002064Y013171D01*
X002064Y012888D01*
X001497Y012392D02*
X001497Y011825D01*
X002348Y011825D01*
X001923Y011472D02*
X001497Y011472D01*
X001497Y011188D02*
X001923Y011188D01*
X002064Y011330D01*
X001923Y011472D01*
X001923Y011188D02*
X002064Y011046D01*
X002064Y010904D01*
X001497Y010904D01*
X001639Y010551D02*
X001923Y010551D01*
X002064Y010409D01*
X002064Y010125D01*
X001923Y009984D01*
X001639Y009984D01*
X001497Y010125D01*
X001497Y010409D01*
X001639Y010551D01*
X001639Y009630D02*
X001923Y009630D01*
X002064Y009488D01*
X002064Y009205D01*
X001923Y009063D01*
X001639Y009063D01*
X001497Y009205D01*
X001497Y009488D01*
X001639Y009630D01*
X001497Y008709D02*
X001781Y008426D01*
X001781Y008567D02*
X001781Y008142D01*
X001497Y008142D02*
X002348Y008142D01*
X002348Y008567D01*
X002206Y008709D01*
X001923Y008709D01*
X001781Y008567D01*
X001497Y007812D02*
X001497Y007528D01*
X001497Y007670D02*
X002348Y007670D01*
X002348Y007528D01*
X002348Y007056D02*
X001497Y007056D01*
X001497Y006914D02*
X001497Y007198D01*
X002348Y007056D02*
X002348Y006914D01*
X001923Y006561D02*
X001497Y006561D01*
X001497Y006135D01*
X001639Y005994D01*
X001781Y006135D01*
X001781Y006561D01*
X001923Y006561D02*
X002064Y006419D01*
X002064Y006135D01*
X001923Y005640D02*
X001497Y005640D01*
X001497Y005356D02*
X001923Y005356D01*
X002064Y005498D01*
X001923Y005640D01*
X001923Y005356D02*
X002064Y005215D01*
X002064Y005073D01*
X001497Y005073D01*
X001639Y004719D02*
X001497Y004577D01*
X001497Y004294D01*
X001639Y004152D01*
X001923Y004294D02*
X001923Y004577D01*
X001781Y004719D01*
X001639Y004719D01*
X001923Y004294D02*
X002064Y004152D01*
X002206Y004152D01*
X002348Y004294D01*
X002348Y004577D01*
X002206Y004719D01*
X001923Y014588D02*
X002064Y014729D01*
X002064Y015155D01*
X001781Y015013D02*
X001781Y014729D01*
X001923Y014588D01*
X001497Y014588D02*
X001497Y015013D01*
X001639Y015155D01*
X001781Y015013D01*
X001639Y015508D02*
X001639Y015650D01*
X001497Y015650D01*
X001497Y015508D01*
X001639Y015508D01*
X001639Y015969D02*
X001497Y016111D01*
X001497Y016536D01*
X001639Y016890D02*
X001497Y017031D01*
X001497Y017315D01*
X001639Y017457D01*
X001923Y017457D01*
X002064Y017315D01*
X002064Y017031D01*
X001923Y016890D01*
X001639Y016890D01*
X002064Y016536D02*
X002064Y016111D01*
X001923Y015969D01*
X001639Y015969D01*
X001497Y017810D02*
X002064Y017810D01*
X002064Y017952D01*
X001923Y018094D01*
X002064Y018236D01*
X001923Y018377D01*
X001497Y018377D01*
X001497Y018094D02*
X001923Y018094D01*
D14*
X004375Y002446D02*
X005084Y002446D01*
X004729Y002131D01*
X004375Y002446D01*
X004454Y002406D02*
X005005Y002406D01*
X004966Y002367D02*
X004493Y002367D01*
X004532Y002327D02*
X004926Y002327D01*
X004887Y002288D02*
X004572Y002288D01*
X004611Y002249D02*
X004847Y002249D01*
X004808Y002209D02*
X004729Y002209D01*
X004729Y002170D01*
X004729Y002209D02*
X004651Y002209D01*
D15*
X005517Y002315D02*
X005760Y002315D01*
X005880Y002376D02*
X006001Y002133D01*
X006122Y002376D01*
X005638Y002436D02*
X005638Y002194D01*
X006680Y002194D02*
X006740Y002133D01*
X006862Y002133D01*
X006922Y002194D01*
X006680Y002436D01*
X006680Y002194D01*
X006922Y002194D02*
X006922Y002436D01*
X006862Y002497D01*
X006740Y002497D01*
X006680Y002436D01*
X007680Y002376D02*
X007862Y002376D01*
X007922Y002315D01*
X007922Y002194D01*
X007862Y002133D01*
X007680Y002133D01*
X007680Y002497D01*
X008680Y002376D02*
X008862Y002376D01*
X008922Y002315D01*
X008922Y002194D01*
X008862Y002133D01*
X008680Y002133D01*
M02*
