%
M48
M72
T01C0.0120
T02C0.0236
T03C0.0354
T04C0.0400
T05C0.0472
T06C0.0512
T07C0.0866
T08C0.1260
%
T01
X9049Y2897
X11214Y2700
X13145Y3021
X13225Y2221
X13355Y1716
X14924Y732
X17625Y2301
X17907Y3291
X17514Y4669
X15151Y3488
X14431Y4472
X14431Y4866
X12789Y4275
X11214Y5653
X14665Y5981
X14659Y6440
X15151Y7425
X19465Y1981
X32081Y5456
X35033Y7031
X9945Y18141
X8745Y17821
X8505Y18061
X8105Y17741
X7785Y17901
X3714Y17750
X3407Y17750
X2239Y19002
X8882Y21007
X9148Y21007
X2159Y13724
X2159Y12740
X3144Y7818
X3537Y7228
X3144Y6834
X4325Y7425
T02
X2002Y8015
X2002Y6440
X10821Y7425
T03
X11305Y701
X12105Y701
X12905Y701
X35230Y8999
X35230Y10180
T04
X32770Y10865
X32770Y9299
X30210Y9299
X28833Y9299
X28833Y10865
X30210Y10865
X30210Y12645
X28833Y12645
X26273Y12645
X24896Y12645
X22336Y12645
X20959Y12645
X18399Y12645
X18399Y10865
X18399Y9299
X20959Y9299
X22336Y9299
X22336Y10865
X20959Y10865
X24896Y10865
X26273Y10865
X26273Y9299
X24896Y9299
X24896Y7519
X26273Y7519
X26273Y5952
X24896Y5952
X22336Y5952
X20959Y5952
X20959Y7519
X22336Y7519
X18399Y7519
X18399Y5952
X18399Y4172
X18399Y2606
X20959Y2606
X22336Y2606
X22336Y4172
X20959Y4172
X24896Y4172
X26273Y4172
X26273Y2606
X24896Y2606
X24896Y826
X26273Y826
X28833Y826
X30210Y826
X32770Y826
X32770Y2606
X32770Y4172
X30210Y4172
X28833Y4172
X28833Y2606
X30210Y2606
X30210Y5952
X28833Y5952
X28833Y7519
X30210Y7519
X32770Y7519
X32770Y5952
X22336Y826
X20959Y826
X18399Y826
X10329Y826
X7769Y826
X6392Y826
X3832Y826
X3832Y2606
X3832Y4172
X6392Y4172
X7769Y4172
X7769Y2606
X6392Y2606
X10329Y2606
X10329Y4172
X10329Y5952
X7769Y5952
X6392Y5952
X3832Y5952
X32770Y12645
T05
X34443Y17858
X19482Y17858
T06
X1545Y18495
X1545Y16015
T07
X19482Y21058
T08
X2159Y1716
X2159Y20614
X34443Y12740
X34443Y1716
M30
