G75*
G70*
%OFA0B0*%
%FSLAX24Y24*%
%IPPOS*%
%LPD*%
%AMOC8*
5,1,8,0,0,1.08239X$1,22.5*
%
%ADD10C,0.0000*%
%ADD11C,0.0740*%
%ADD12R,0.0098X0.2165*%
%ADD13R,0.0098X0.1890*%
%ADD14OC8,0.0709*%
%ADD15OC8,0.0768*%
%ADD16C,0.0080*%
%ADD17OC8,0.0240*%
%ADD18R,0.0531X0.0531*%
%ADD19R,0.0356X0.0356*%
D10*
X002159Y000141D02*
X034443Y000141D01*
X034520Y000143D01*
X034597Y000149D01*
X034674Y000158D01*
X034750Y000171D01*
X034826Y000188D01*
X034900Y000209D01*
X034974Y000233D01*
X035046Y000261D01*
X035116Y000292D01*
X035185Y000327D01*
X035253Y000365D01*
X035318Y000406D01*
X035381Y000451D01*
X035442Y000499D01*
X035501Y000549D01*
X035557Y000602D01*
X035610Y000658D01*
X035660Y000717D01*
X035708Y000778D01*
X035753Y000841D01*
X035794Y000906D01*
X035832Y000974D01*
X035867Y001043D01*
X035898Y001113D01*
X035926Y001185D01*
X035950Y001259D01*
X035971Y001333D01*
X035988Y001409D01*
X036001Y001485D01*
X036010Y001562D01*
X036016Y001639D01*
X036018Y001716D01*
X036018Y020614D01*
X036016Y020691D01*
X036010Y020768D01*
X036001Y020845D01*
X035988Y020921D01*
X035971Y020997D01*
X035950Y021071D01*
X035926Y021145D01*
X035898Y021217D01*
X035867Y021287D01*
X035832Y021356D01*
X035794Y021424D01*
X035753Y021489D01*
X035708Y021552D01*
X035660Y021613D01*
X035610Y021672D01*
X035557Y021728D01*
X035501Y021781D01*
X035442Y021831D01*
X035381Y021879D01*
X035318Y021924D01*
X035253Y021965D01*
X035185Y022003D01*
X035116Y022038D01*
X035046Y022069D01*
X034974Y022097D01*
X034900Y022121D01*
X034826Y022142D01*
X034750Y022159D01*
X034674Y022172D01*
X034597Y022181D01*
X034520Y022187D01*
X034443Y022189D01*
X034443Y022188D02*
X010821Y022188D01*
X010821Y021401D01*
X006884Y021401D01*
X006884Y022188D01*
X002159Y022188D01*
X000585Y021007D02*
X000585Y002110D01*
X001529Y001716D02*
X001531Y001766D01*
X001537Y001816D01*
X001547Y001865D01*
X001561Y001913D01*
X001578Y001960D01*
X001599Y002005D01*
X001624Y002049D01*
X001652Y002090D01*
X001684Y002129D01*
X001718Y002166D01*
X001755Y002200D01*
X001795Y002230D01*
X001837Y002257D01*
X001881Y002281D01*
X001927Y002302D01*
X001974Y002318D01*
X002022Y002331D01*
X002072Y002340D01*
X002121Y002345D01*
X002172Y002346D01*
X002222Y002343D01*
X002271Y002336D01*
X002320Y002325D01*
X002368Y002310D01*
X002414Y002292D01*
X002459Y002270D01*
X002502Y002244D01*
X002543Y002215D01*
X002582Y002183D01*
X002618Y002148D01*
X002650Y002110D01*
X002680Y002070D01*
X002707Y002027D01*
X002730Y001983D01*
X002749Y001937D01*
X002765Y001889D01*
X002777Y001840D01*
X002785Y001791D01*
X002789Y001741D01*
X002789Y001691D01*
X002785Y001641D01*
X002777Y001592D01*
X002765Y001543D01*
X002749Y001495D01*
X002730Y001449D01*
X002707Y001405D01*
X002680Y001362D01*
X002650Y001322D01*
X002618Y001284D01*
X002582Y001249D01*
X002543Y001217D01*
X002502Y001188D01*
X002459Y001162D01*
X002414Y001140D01*
X002368Y001122D01*
X002320Y001107D01*
X002271Y001096D01*
X002222Y001089D01*
X002172Y001086D01*
X002121Y001087D01*
X002072Y001092D01*
X002022Y001101D01*
X001974Y001114D01*
X001927Y001130D01*
X001881Y001151D01*
X001837Y001175D01*
X001795Y001202D01*
X001755Y001232D01*
X001718Y001266D01*
X001684Y001303D01*
X001652Y001342D01*
X001624Y001383D01*
X001599Y001427D01*
X001578Y001472D01*
X001561Y001519D01*
X001547Y001567D01*
X001537Y001616D01*
X001531Y001666D01*
X001529Y001716D01*
X000584Y002110D02*
X000576Y002023D01*
X000573Y001935D01*
X000574Y001848D01*
X000580Y001760D01*
X000589Y001673D01*
X000603Y001587D01*
X000621Y001501D01*
X000643Y001417D01*
X000670Y001333D01*
X000700Y001251D01*
X000735Y001171D01*
X000773Y001092D01*
X000815Y001016D01*
X000861Y000941D01*
X000911Y000869D01*
X000964Y000799D01*
X001020Y000732D01*
X001080Y000668D01*
X001142Y000607D01*
X001208Y000549D01*
X001276Y000494D01*
X001347Y000443D01*
X001420Y000395D01*
X001496Y000351D01*
X001574Y000311D01*
X001653Y000274D01*
X001734Y000242D01*
X001817Y000213D01*
X001901Y000189D01*
X001986Y000169D01*
X002072Y000153D01*
X002159Y000141D01*
X001884Y006440D02*
X001886Y006461D01*
X001892Y006481D01*
X001901Y006501D01*
X001913Y006518D01*
X001928Y006532D01*
X001946Y006544D01*
X001966Y006552D01*
X001986Y006557D01*
X002007Y006558D01*
X002028Y006555D01*
X002048Y006549D01*
X002067Y006538D01*
X002084Y006525D01*
X002097Y006509D01*
X002108Y006491D01*
X002116Y006471D01*
X002120Y006451D01*
X002120Y006429D01*
X002116Y006409D01*
X002108Y006389D01*
X002097Y006371D01*
X002084Y006355D01*
X002067Y006342D01*
X002048Y006331D01*
X002028Y006325D01*
X002007Y006322D01*
X001986Y006323D01*
X001966Y006328D01*
X001946Y006336D01*
X001928Y006348D01*
X001913Y006362D01*
X001901Y006379D01*
X001892Y006399D01*
X001886Y006419D01*
X001884Y006440D01*
X001884Y008015D02*
X001886Y008036D01*
X001892Y008056D01*
X001901Y008076D01*
X001913Y008093D01*
X001928Y008107D01*
X001946Y008119D01*
X001966Y008127D01*
X001986Y008132D01*
X002007Y008133D01*
X002028Y008130D01*
X002048Y008124D01*
X002067Y008113D01*
X002084Y008100D01*
X002097Y008084D01*
X002108Y008066D01*
X002116Y008046D01*
X002120Y008026D01*
X002120Y008004D01*
X002116Y007984D01*
X002108Y007964D01*
X002097Y007946D01*
X002084Y007930D01*
X002067Y007917D01*
X002048Y007906D01*
X002028Y007900D01*
X002007Y007897D01*
X001986Y007898D01*
X001966Y007903D01*
X001946Y007911D01*
X001928Y007923D01*
X001913Y007937D01*
X001901Y007954D01*
X001892Y007974D01*
X001886Y007994D01*
X001884Y008015D01*
X001529Y020614D02*
X001531Y020664D01*
X001537Y020714D01*
X001547Y020763D01*
X001561Y020811D01*
X001578Y020858D01*
X001599Y020903D01*
X001624Y020947D01*
X001652Y020988D01*
X001684Y021027D01*
X001718Y021064D01*
X001755Y021098D01*
X001795Y021128D01*
X001837Y021155D01*
X001881Y021179D01*
X001927Y021200D01*
X001974Y021216D01*
X002022Y021229D01*
X002072Y021238D01*
X002121Y021243D01*
X002172Y021244D01*
X002222Y021241D01*
X002271Y021234D01*
X002320Y021223D01*
X002368Y021208D01*
X002414Y021190D01*
X002459Y021168D01*
X002502Y021142D01*
X002543Y021113D01*
X002582Y021081D01*
X002618Y021046D01*
X002650Y021008D01*
X002680Y020968D01*
X002707Y020925D01*
X002730Y020881D01*
X002749Y020835D01*
X002765Y020787D01*
X002777Y020738D01*
X002785Y020689D01*
X002789Y020639D01*
X002789Y020589D01*
X002785Y020539D01*
X002777Y020490D01*
X002765Y020441D01*
X002749Y020393D01*
X002730Y020347D01*
X002707Y020303D01*
X002680Y020260D01*
X002650Y020220D01*
X002618Y020182D01*
X002582Y020147D01*
X002543Y020115D01*
X002502Y020086D01*
X002459Y020060D01*
X002414Y020038D01*
X002368Y020020D01*
X002320Y020005D01*
X002271Y019994D01*
X002222Y019987D01*
X002172Y019984D01*
X002121Y019985D01*
X002072Y019990D01*
X002022Y019999D01*
X001974Y020012D01*
X001927Y020028D01*
X001881Y020049D01*
X001837Y020073D01*
X001795Y020100D01*
X001755Y020130D01*
X001718Y020164D01*
X001684Y020201D01*
X001652Y020240D01*
X001624Y020281D01*
X001599Y020325D01*
X001578Y020370D01*
X001561Y020417D01*
X001547Y020465D01*
X001537Y020514D01*
X001531Y020564D01*
X001529Y020614D01*
X000585Y021007D02*
X000597Y021079D01*
X000613Y021150D01*
X000633Y021220D01*
X000656Y021289D01*
X000683Y021357D01*
X000713Y021423D01*
X000747Y021488D01*
X000784Y021550D01*
X000825Y021611D01*
X000868Y021669D01*
X000915Y021726D01*
X000964Y021779D01*
X001016Y021830D01*
X001071Y021878D01*
X001128Y021924D01*
X001187Y021966D01*
X001249Y022005D01*
X001312Y022041D01*
X001378Y022073D01*
X001444Y022102D01*
X001513Y022127D01*
X001582Y022149D01*
X001653Y022167D01*
X001724Y022181D01*
X001796Y022192D01*
X001869Y022199D01*
X001942Y022202D01*
X002015Y022201D01*
X002087Y022196D01*
X002160Y022188D01*
X019049Y021058D02*
X019051Y021099D01*
X019057Y021140D01*
X019067Y021180D01*
X019080Y021219D01*
X019097Y021256D01*
X019118Y021292D01*
X019142Y021326D01*
X019169Y021357D01*
X019198Y021385D01*
X019231Y021411D01*
X019265Y021433D01*
X019302Y021452D01*
X019340Y021467D01*
X019380Y021479D01*
X019420Y021487D01*
X019461Y021491D01*
X019503Y021491D01*
X019544Y021487D01*
X019584Y021479D01*
X019624Y021467D01*
X019662Y021452D01*
X019698Y021433D01*
X019733Y021411D01*
X019766Y021385D01*
X019795Y021357D01*
X019822Y021326D01*
X019846Y021292D01*
X019867Y021256D01*
X019884Y021219D01*
X019897Y021180D01*
X019907Y021140D01*
X019913Y021099D01*
X019915Y021058D01*
X019913Y021017D01*
X019907Y020976D01*
X019897Y020936D01*
X019884Y020897D01*
X019867Y020860D01*
X019846Y020824D01*
X019822Y020790D01*
X019795Y020759D01*
X019766Y020731D01*
X019733Y020705D01*
X019699Y020683D01*
X019662Y020664D01*
X019624Y020649D01*
X019584Y020637D01*
X019544Y020629D01*
X019503Y020625D01*
X019461Y020625D01*
X019420Y020629D01*
X019380Y020637D01*
X019340Y020649D01*
X019302Y020664D01*
X019266Y020683D01*
X019231Y020705D01*
X019198Y020731D01*
X019169Y020759D01*
X019142Y020790D01*
X019118Y020824D01*
X019097Y020860D01*
X019080Y020897D01*
X019067Y020936D01*
X019057Y020976D01*
X019051Y021017D01*
X019049Y021058D01*
X033813Y012740D02*
X033815Y012790D01*
X033821Y012840D01*
X033831Y012889D01*
X033845Y012937D01*
X033862Y012984D01*
X033883Y013029D01*
X033908Y013073D01*
X033936Y013114D01*
X033968Y013153D01*
X034002Y013190D01*
X034039Y013224D01*
X034079Y013254D01*
X034121Y013281D01*
X034165Y013305D01*
X034211Y013326D01*
X034258Y013342D01*
X034306Y013355D01*
X034356Y013364D01*
X034405Y013369D01*
X034456Y013370D01*
X034506Y013367D01*
X034555Y013360D01*
X034604Y013349D01*
X034652Y013334D01*
X034698Y013316D01*
X034743Y013294D01*
X034786Y013268D01*
X034827Y013239D01*
X034866Y013207D01*
X034902Y013172D01*
X034934Y013134D01*
X034964Y013094D01*
X034991Y013051D01*
X035014Y013007D01*
X035033Y012961D01*
X035049Y012913D01*
X035061Y012864D01*
X035069Y012815D01*
X035073Y012765D01*
X035073Y012715D01*
X035069Y012665D01*
X035061Y012616D01*
X035049Y012567D01*
X035033Y012519D01*
X035014Y012473D01*
X034991Y012429D01*
X034964Y012386D01*
X034934Y012346D01*
X034902Y012308D01*
X034866Y012273D01*
X034827Y012241D01*
X034786Y012212D01*
X034743Y012186D01*
X034698Y012164D01*
X034652Y012146D01*
X034604Y012131D01*
X034555Y012120D01*
X034506Y012113D01*
X034456Y012110D01*
X034405Y012111D01*
X034356Y012116D01*
X034306Y012125D01*
X034258Y012138D01*
X034211Y012154D01*
X034165Y012175D01*
X034121Y012199D01*
X034079Y012226D01*
X034039Y012256D01*
X034002Y012290D01*
X033968Y012327D01*
X033936Y012366D01*
X033908Y012407D01*
X033883Y012451D01*
X033862Y012496D01*
X033845Y012543D01*
X033831Y012591D01*
X033821Y012640D01*
X033815Y012690D01*
X033813Y012740D01*
X035053Y010180D02*
X035055Y010206D01*
X035061Y010232D01*
X035071Y010257D01*
X035084Y010280D01*
X035100Y010300D01*
X035120Y010318D01*
X035142Y010333D01*
X035165Y010345D01*
X035191Y010353D01*
X035217Y010357D01*
X035243Y010357D01*
X035269Y010353D01*
X035295Y010345D01*
X035319Y010333D01*
X035340Y010318D01*
X035360Y010300D01*
X035376Y010280D01*
X035389Y010257D01*
X035399Y010232D01*
X035405Y010206D01*
X035407Y010180D01*
X035405Y010154D01*
X035399Y010128D01*
X035389Y010103D01*
X035376Y010080D01*
X035360Y010060D01*
X035340Y010042D01*
X035318Y010027D01*
X035295Y010015D01*
X035269Y010007D01*
X035243Y010003D01*
X035217Y010003D01*
X035191Y010007D01*
X035165Y010015D01*
X035141Y010027D01*
X035120Y010042D01*
X035100Y010060D01*
X035084Y010080D01*
X035071Y010103D01*
X035061Y010128D01*
X035055Y010154D01*
X035053Y010180D01*
X035053Y008999D02*
X035055Y009025D01*
X035061Y009051D01*
X035071Y009076D01*
X035084Y009099D01*
X035100Y009119D01*
X035120Y009137D01*
X035142Y009152D01*
X035165Y009164D01*
X035191Y009172D01*
X035217Y009176D01*
X035243Y009176D01*
X035269Y009172D01*
X035295Y009164D01*
X035319Y009152D01*
X035340Y009137D01*
X035360Y009119D01*
X035376Y009099D01*
X035389Y009076D01*
X035399Y009051D01*
X035405Y009025D01*
X035407Y008999D01*
X035405Y008973D01*
X035399Y008947D01*
X035389Y008922D01*
X035376Y008899D01*
X035360Y008879D01*
X035340Y008861D01*
X035318Y008846D01*
X035295Y008834D01*
X035269Y008826D01*
X035243Y008822D01*
X035217Y008822D01*
X035191Y008826D01*
X035165Y008834D01*
X035141Y008846D01*
X035120Y008861D01*
X035100Y008879D01*
X035084Y008899D01*
X035071Y008922D01*
X035061Y008947D01*
X035055Y008973D01*
X035053Y008999D01*
X033813Y001716D02*
X033815Y001766D01*
X033821Y001816D01*
X033831Y001865D01*
X033845Y001913D01*
X033862Y001960D01*
X033883Y002005D01*
X033908Y002049D01*
X033936Y002090D01*
X033968Y002129D01*
X034002Y002166D01*
X034039Y002200D01*
X034079Y002230D01*
X034121Y002257D01*
X034165Y002281D01*
X034211Y002302D01*
X034258Y002318D01*
X034306Y002331D01*
X034356Y002340D01*
X034405Y002345D01*
X034456Y002346D01*
X034506Y002343D01*
X034555Y002336D01*
X034604Y002325D01*
X034652Y002310D01*
X034698Y002292D01*
X034743Y002270D01*
X034786Y002244D01*
X034827Y002215D01*
X034866Y002183D01*
X034902Y002148D01*
X034934Y002110D01*
X034964Y002070D01*
X034991Y002027D01*
X035014Y001983D01*
X035033Y001937D01*
X035049Y001889D01*
X035061Y001840D01*
X035069Y001791D01*
X035073Y001741D01*
X035073Y001691D01*
X035069Y001641D01*
X035061Y001592D01*
X035049Y001543D01*
X035033Y001495D01*
X035014Y001449D01*
X034991Y001405D01*
X034964Y001362D01*
X034934Y001322D01*
X034902Y001284D01*
X034866Y001249D01*
X034827Y001217D01*
X034786Y001188D01*
X034743Y001162D01*
X034698Y001140D01*
X034652Y001122D01*
X034604Y001107D01*
X034555Y001096D01*
X034506Y001089D01*
X034456Y001086D01*
X034405Y001087D01*
X034356Y001092D01*
X034306Y001101D01*
X034258Y001114D01*
X034211Y001130D01*
X034165Y001151D01*
X034121Y001175D01*
X034079Y001202D01*
X034039Y001232D01*
X034002Y001266D01*
X033968Y001303D01*
X033936Y001342D01*
X033908Y001383D01*
X033883Y001427D01*
X033862Y001472D01*
X033845Y001519D01*
X033831Y001567D01*
X033821Y001616D01*
X033815Y001666D01*
X033813Y001716D01*
D11*
X032770Y002606D03*
X032770Y004172D03*
X030210Y004172D03*
X028833Y004172D03*
X028833Y002606D03*
X030210Y002606D03*
X030210Y000826D03*
X028833Y000826D03*
X026273Y000826D03*
X024896Y000826D03*
X022336Y000826D03*
X020959Y000826D03*
X018399Y000826D03*
X018399Y002606D03*
X018399Y004172D03*
X020959Y004172D03*
X022336Y004172D03*
X022336Y002606D03*
X020959Y002606D03*
X024896Y002606D03*
X026273Y002606D03*
X026273Y004172D03*
X024896Y004172D03*
X024896Y005952D03*
X026273Y005952D03*
X026273Y007519D03*
X024896Y007519D03*
X022336Y007519D03*
X020959Y007519D03*
X020959Y005952D03*
X022336Y005952D03*
X018399Y005952D03*
X018399Y007519D03*
X018399Y009299D03*
X018399Y010865D03*
X020959Y010865D03*
X022336Y010865D03*
X022336Y009299D03*
X020959Y009299D03*
X024896Y009299D03*
X026273Y009299D03*
X026273Y010865D03*
X024896Y010865D03*
X024896Y012645D03*
X026273Y012645D03*
X028833Y012645D03*
X030210Y012645D03*
X032770Y012645D03*
X032770Y010865D03*
X032770Y009299D03*
X030210Y009299D03*
X028833Y009299D03*
X028833Y010865D03*
X030210Y010865D03*
X030210Y007519D03*
X028833Y007519D03*
X028833Y005952D03*
X030210Y005952D03*
X032770Y005952D03*
X032770Y007519D03*
X022336Y012645D03*
X020959Y012645D03*
X018399Y012645D03*
X010329Y005952D03*
X007769Y005952D03*
X006392Y005952D03*
X003832Y005952D03*
X003832Y004172D03*
X003832Y002606D03*
X006392Y002606D03*
X007769Y002606D03*
X007769Y004172D03*
X006392Y004172D03*
X010329Y004172D03*
X010329Y002606D03*
X010329Y000826D03*
X007769Y000826D03*
X006392Y000826D03*
X003832Y000826D03*
X032770Y000826D03*
D12*
X010195Y019306D03*
X007596Y019306D03*
D13*
X007833Y019306D03*
X008069Y019306D03*
X008305Y019306D03*
X008541Y019306D03*
X008777Y019306D03*
X009014Y019306D03*
X009250Y019306D03*
X009486Y019306D03*
X009722Y019306D03*
X009959Y019306D03*
D14*
X019482Y017858D03*
X034443Y017858D03*
D15*
X001545Y018495D03*
X001545Y016015D03*
D16*
X001249Y000848D02*
X001981Y000848D01*
X001986Y000846D02*
X002332Y000846D01*
X002652Y000978D01*
X002897Y001223D01*
X003029Y001543D01*
X003029Y001889D01*
X002897Y002209D01*
X002652Y002453D01*
X002332Y002586D01*
X001986Y002586D01*
X001667Y002453D01*
X001422Y002209D01*
X001289Y001889D01*
X001289Y001543D01*
X001422Y001223D01*
X001667Y000978D01*
X001986Y000846D01*
X001792Y000927D02*
X001187Y000927D01*
X001124Y001005D02*
X001640Y001005D01*
X001561Y001084D02*
X001061Y001084D01*
X001036Y001115D02*
X000875Y001483D01*
X000814Y001881D01*
X000822Y002055D01*
X000825Y002062D01*
X000825Y002096D01*
X000828Y002131D01*
X000825Y002144D01*
X000825Y020985D01*
X000853Y021121D01*
X000971Y021397D01*
X001157Y021634D01*
X001398Y021814D01*
X001677Y021926D01*
X001975Y021962D01*
X002101Y021953D01*
X002112Y021948D01*
X002142Y021948D01*
X002173Y021944D01*
X002190Y021948D01*
X006644Y021948D01*
X006644Y021449D01*
X006644Y021353D01*
X006680Y021265D01*
X006748Y021197D01*
X006836Y021161D01*
X008710Y021161D01*
X008652Y021102D01*
X008652Y020912D01*
X008787Y020777D01*
X008902Y020777D01*
X008864Y020739D01*
X008864Y020614D01*
X008864Y020361D01*
X008683Y020361D01*
X008659Y020337D01*
X008636Y020361D01*
X008446Y020361D01*
X008444Y020358D01*
X008440Y020363D01*
X008408Y020381D01*
X008373Y020391D01*
X008305Y020391D01*
X008237Y020391D01*
X008202Y020381D01*
X008170Y020363D01*
X008166Y020358D01*
X008164Y020361D01*
X007974Y020361D01*
X007951Y020337D01*
X007927Y020361D01*
X007756Y020361D01*
X007756Y020434D01*
X007691Y020498D01*
X007502Y020498D01*
X007437Y020434D01*
X007437Y018177D01*
X007502Y018113D01*
X007671Y018113D01*
X007555Y017996D01*
X007555Y017806D01*
X007689Y017671D01*
X007875Y017671D01*
X007875Y017646D01*
X008009Y017511D01*
X008200Y017511D01*
X008335Y017646D01*
X008335Y017836D01*
X008219Y017952D01*
X008219Y018226D01*
X008237Y018221D01*
X008305Y018221D01*
X008339Y018221D01*
X008275Y018156D01*
X008275Y017966D01*
X008409Y017831D01*
X008515Y017831D01*
X008515Y017726D01*
X008649Y017591D01*
X008840Y017591D01*
X008975Y017726D01*
X008975Y017916D01*
X008927Y017963D01*
X008927Y018251D01*
X009108Y018251D01*
X009132Y018274D01*
X009155Y018251D01*
X009345Y018251D01*
X009347Y018253D01*
X009351Y018249D01*
X009383Y018230D01*
X009418Y018221D01*
X009486Y018221D01*
X009486Y019305D01*
X009486Y019305D01*
X009486Y018221D01*
X009554Y018221D01*
X009589Y018230D01*
X009604Y018239D01*
X009619Y018230D01*
X009655Y018221D01*
X009715Y018221D01*
X009715Y018046D01*
X009849Y017911D01*
X010040Y017911D01*
X010175Y018046D01*
X010175Y018113D01*
X010290Y018113D01*
X010354Y018177D01*
X010354Y020434D01*
X010290Y020498D01*
X010100Y020498D01*
X010036Y020434D01*
X010036Y020361D01*
X009864Y020361D01*
X009862Y020358D01*
X009858Y020363D01*
X009826Y020381D01*
X009790Y020391D01*
X009723Y020391D01*
X009723Y019306D01*
X009722Y019306D01*
X009722Y020391D01*
X009655Y020391D01*
X009619Y020381D01*
X009604Y020372D01*
X009589Y020381D01*
X009554Y020391D01*
X009486Y020391D01*
X009418Y020391D01*
X009400Y020386D01*
X009400Y020646D01*
X009400Y020770D01*
X009318Y020852D01*
X009378Y020912D01*
X009378Y021102D01*
X009319Y021161D01*
X010773Y021161D01*
X010869Y021161D01*
X010957Y021197D01*
X011024Y021265D01*
X011061Y021353D01*
X011061Y021948D01*
X034395Y021948D01*
X034443Y021948D01*
X034617Y021937D01*
X034954Y021847D01*
X035255Y021673D01*
X035502Y021426D01*
X035676Y021124D01*
X035766Y020788D01*
X035778Y020614D01*
X035778Y001764D01*
X035778Y001716D01*
X035766Y001542D01*
X035676Y001205D01*
X035502Y000903D01*
X035255Y000657D01*
X034954Y000483D01*
X034617Y000392D01*
X034443Y000381D01*
X032950Y000381D01*
X033042Y000419D01*
X033177Y000554D01*
X033250Y000730D01*
X033250Y000921D01*
X033177Y001098D01*
X033042Y001233D01*
X032866Y001306D01*
X032675Y001306D01*
X032498Y001233D01*
X032363Y001098D01*
X032313Y000976D01*
X032231Y000976D01*
X032231Y004022D01*
X032313Y004022D01*
X032363Y003900D01*
X032498Y003765D01*
X032675Y003692D01*
X032866Y003692D01*
X033042Y003765D01*
X033177Y003900D01*
X033250Y004077D01*
X033250Y004268D01*
X033177Y004444D01*
X033042Y004579D01*
X032866Y004652D01*
X032675Y004652D01*
X032498Y004579D01*
X032363Y004444D01*
X032313Y004322D01*
X032231Y004322D01*
X032231Y004534D01*
X032143Y004622D01*
X031837Y004928D01*
X031837Y006772D01*
X032231Y007166D01*
X032231Y007290D01*
X032231Y007369D01*
X032313Y007369D01*
X032363Y007247D01*
X032498Y007112D01*
X032675Y007039D01*
X032866Y007039D01*
X033042Y007112D01*
X033177Y007247D01*
X033250Y007423D01*
X033250Y007614D01*
X033177Y007791D01*
X033042Y007926D01*
X032866Y007999D01*
X032675Y007999D01*
X032498Y007926D01*
X032363Y007791D01*
X032313Y007669D01*
X032231Y007669D01*
X032231Y010715D01*
X032313Y010715D01*
X032363Y010593D01*
X032498Y010458D01*
X032675Y010385D01*
X032866Y010385D01*
X033042Y010458D01*
X033177Y010593D01*
X033250Y010770D01*
X033250Y010961D01*
X033177Y011137D01*
X035778Y011137D01*
X035778Y011059D02*
X033210Y011059D01*
X033177Y011137D02*
X033042Y011272D01*
X032866Y011345D01*
X032675Y011345D01*
X032498Y011272D01*
X032363Y011137D01*
X030617Y011137D01*
X030482Y011272D01*
X030306Y011345D01*
X030115Y011345D01*
X029938Y011272D01*
X029803Y011137D01*
X029240Y011137D01*
X029105Y011272D01*
X028929Y011345D01*
X028738Y011345D01*
X028561Y011272D01*
X028426Y011137D01*
X026680Y011137D01*
X026545Y011272D01*
X026369Y011345D01*
X026178Y011345D01*
X026001Y011272D01*
X025866Y011137D01*
X025303Y011137D01*
X025168Y011272D01*
X024992Y011345D01*
X024801Y011345D01*
X024624Y011272D01*
X024489Y011137D01*
X022743Y011137D01*
X022608Y011272D01*
X022432Y011345D01*
X022241Y011345D01*
X022064Y011272D01*
X021929Y011137D01*
X021366Y011137D01*
X021231Y011272D01*
X021055Y011345D01*
X020864Y011345D01*
X020687Y011272D01*
X020552Y011137D01*
X018806Y011137D01*
X018671Y011272D01*
X018495Y011345D01*
X018304Y011345D01*
X018127Y011272D01*
X017992Y011137D01*
X000825Y011137D01*
X000825Y011059D02*
X017960Y011059D01*
X017992Y011137D02*
X017919Y010961D01*
X017919Y010770D01*
X017992Y010593D01*
X018127Y010458D01*
X018304Y010385D01*
X018495Y010385D01*
X018671Y010458D01*
X018806Y010593D01*
X018879Y010770D01*
X018879Y010961D01*
X018806Y011137D01*
X018839Y011059D02*
X020520Y011059D01*
X020552Y011137D02*
X020479Y010961D01*
X020479Y010770D01*
X020552Y010593D01*
X020687Y010458D01*
X020864Y010385D01*
X021055Y010385D01*
X021229Y010457D01*
X021301Y010400D01*
X021301Y009636D01*
X021231Y009706D01*
X021055Y009779D01*
X020864Y009779D01*
X020687Y009706D01*
X020552Y009571D01*
X020479Y009394D01*
X020479Y009203D01*
X020552Y009027D01*
X020687Y008892D01*
X020864Y008819D01*
X021055Y008819D01*
X021231Y008892D01*
X021301Y008962D01*
X021301Y007856D01*
X021231Y007926D01*
X021055Y007999D01*
X020864Y007999D01*
X020687Y007926D01*
X020552Y007791D01*
X020479Y007614D01*
X020479Y007423D01*
X020552Y007247D01*
X020687Y007112D01*
X020864Y007039D01*
X021055Y007039D01*
X021231Y007112D01*
X021301Y007182D01*
X021301Y006289D01*
X021231Y006359D01*
X021055Y006432D01*
X020864Y006432D01*
X020687Y006359D01*
X020552Y006224D01*
X020479Y006048D01*
X020479Y005857D01*
X020552Y005680D01*
X020687Y005545D01*
X020864Y005472D01*
X021055Y005472D01*
X021231Y005545D01*
X021301Y005615D01*
X021301Y004509D01*
X021231Y004579D01*
X021055Y004652D01*
X020864Y004652D01*
X020687Y004579D01*
X020552Y004444D01*
X020479Y004268D01*
X020479Y004077D01*
X020552Y003900D01*
X020687Y003765D01*
X020864Y003692D01*
X021055Y003692D01*
X021231Y003765D01*
X021301Y003835D01*
X021301Y002943D01*
X021231Y003013D01*
X021055Y003086D01*
X020864Y003086D01*
X020687Y003013D01*
X020552Y002878D01*
X020479Y002701D01*
X020479Y002510D01*
X020552Y002334D01*
X020687Y002199D01*
X020864Y002126D01*
X021055Y002126D01*
X021231Y002199D01*
X021301Y002269D01*
X021301Y001292D01*
X021229Y001234D01*
X021055Y001306D01*
X020864Y001306D01*
X020687Y001233D01*
X020552Y001098D01*
X020479Y000921D01*
X020479Y000730D01*
X020552Y000554D01*
X020687Y000419D01*
X020779Y000381D01*
X018579Y000381D01*
X018671Y000419D01*
X018806Y000554D01*
X018879Y000730D01*
X018879Y000921D01*
X018806Y001098D01*
X018671Y001233D01*
X018495Y001306D01*
X018304Y001306D01*
X018127Y001233D01*
X017992Y001098D01*
X017919Y000921D01*
X017919Y000730D01*
X017992Y000554D01*
X018127Y000419D01*
X018219Y000381D01*
X012472Y000381D01*
X012480Y000390D01*
X012480Y001012D01*
X012416Y001077D01*
X011793Y001077D01*
X011729Y001012D01*
X011729Y000390D01*
X011738Y000381D01*
X011672Y000381D01*
X011680Y000390D01*
X011680Y001012D01*
X011616Y001077D01*
X010993Y001077D01*
X010929Y001012D01*
X010929Y000390D01*
X010938Y000381D01*
X010509Y000381D01*
X010601Y000419D01*
X010736Y000554D01*
X010809Y000730D01*
X010809Y000921D01*
X010736Y001098D01*
X010601Y001233D01*
X010425Y001306D01*
X010234Y001306D01*
X010057Y001233D01*
X009922Y001098D01*
X009849Y000921D01*
X009849Y000730D01*
X009922Y000554D01*
X010057Y000419D01*
X010149Y000381D01*
X007949Y000381D01*
X008041Y000419D01*
X008176Y000554D01*
X008249Y000730D01*
X008249Y000921D01*
X008176Y001098D01*
X008041Y001233D01*
X007865Y001306D01*
X007674Y001306D01*
X007497Y001233D01*
X007362Y001098D01*
X007289Y000921D01*
X007289Y000730D01*
X007362Y000554D01*
X007497Y000419D01*
X007589Y000381D01*
X006572Y000381D01*
X006664Y000419D01*
X006799Y000554D01*
X006872Y000730D01*
X006872Y000921D01*
X006799Y001098D01*
X006664Y001233D01*
X006488Y001306D01*
X006297Y001306D01*
X006120Y001233D01*
X005985Y001098D01*
X005912Y000921D01*
X005912Y000730D01*
X005985Y000554D01*
X006120Y000419D01*
X006212Y000381D01*
X004012Y000381D01*
X004104Y000419D01*
X004239Y000554D01*
X004312Y000730D01*
X004312Y000921D01*
X004239Y001098D01*
X004104Y001233D01*
X003928Y001306D01*
X003737Y001306D01*
X003560Y001233D01*
X003425Y001098D01*
X003352Y000921D01*
X003352Y000730D01*
X003425Y000554D01*
X003560Y000419D01*
X003652Y000381D01*
X002178Y000381D01*
X001987Y000415D01*
X001612Y000561D01*
X001288Y000800D01*
X001036Y001115D01*
X001015Y001162D02*
X001483Y001162D01*
X001415Y001241D02*
X000981Y001241D01*
X000947Y001319D02*
X001382Y001319D01*
X001350Y001398D02*
X000912Y001398D01*
X000878Y001476D02*
X001317Y001476D01*
X001289Y001555D02*
X000864Y001555D01*
X000852Y001633D02*
X001289Y001633D01*
X001289Y001712D02*
X000840Y001712D01*
X000828Y001791D02*
X001289Y001791D01*
X001289Y001869D02*
X000816Y001869D01*
X000817Y001948D02*
X001314Y001948D01*
X001346Y002026D02*
X000820Y002026D01*
X000825Y002105D02*
X001379Y002105D01*
X001411Y002183D02*
X000825Y002183D01*
X000825Y002262D02*
X001475Y002262D01*
X001554Y002340D02*
X000825Y002340D01*
X000825Y002419D02*
X001632Y002419D01*
X001773Y002497D02*
X000825Y002497D01*
X000825Y002576D02*
X001963Y002576D01*
X002356Y002576D02*
X002662Y002576D01*
X002688Y002550D02*
X002688Y002550D01*
X003672Y001566D01*
X003796Y001566D01*
X013179Y001566D01*
X013259Y001486D01*
X013450Y001486D01*
X013585Y001621D01*
X013585Y001811D01*
X013450Y001946D01*
X013259Y001946D01*
X013179Y001866D01*
X003796Y001866D01*
X002900Y002762D01*
X002900Y007362D01*
X003126Y007588D01*
X003239Y007588D01*
X003374Y007723D01*
X003374Y007914D01*
X003239Y008048D01*
X003048Y008048D01*
X002914Y007914D01*
X002914Y007800D01*
X002600Y007487D01*
X002600Y007362D01*
X002600Y002638D01*
X002688Y002550D01*
X002741Y002497D02*
X002546Y002497D01*
X002687Y002419D02*
X002819Y002419D01*
X002765Y002340D02*
X002898Y002340D01*
X002844Y002262D02*
X002976Y002262D01*
X002907Y002183D02*
X003055Y002183D01*
X003133Y002105D02*
X002940Y002105D01*
X002972Y002026D02*
X003212Y002026D01*
X003290Y001948D02*
X003005Y001948D01*
X003029Y001869D02*
X003369Y001869D01*
X003447Y001791D02*
X003029Y001791D01*
X003029Y001712D02*
X003526Y001712D01*
X003604Y001633D02*
X003029Y001633D01*
X003029Y001555D02*
X013190Y001555D01*
X013355Y001716D02*
X003734Y001716D01*
X002750Y002700D01*
X002750Y007425D01*
X003144Y007818D01*
X003374Y007838D02*
X018040Y007838D01*
X017992Y007791D02*
X017919Y007614D01*
X017919Y007423D01*
X017992Y007247D01*
X018127Y007112D01*
X018304Y007039D01*
X018495Y007039D01*
X018671Y007112D01*
X018806Y007247D01*
X018879Y007423D01*
X018879Y007614D01*
X018806Y007791D01*
X018671Y007926D01*
X018495Y007999D01*
X018304Y007999D01*
X018127Y007926D01*
X017992Y007791D01*
X017979Y007760D02*
X003374Y007760D01*
X003332Y007681D02*
X010566Y007681D01*
X010597Y007713D02*
X010533Y007648D01*
X010533Y007201D01*
X010597Y007136D01*
X010897Y007136D01*
X011743Y006290D01*
X011867Y006290D01*
X014484Y006290D01*
X014564Y006210D01*
X014569Y006210D01*
X014489Y006131D01*
X011605Y006131D01*
X011481Y006131D01*
X011232Y005883D01*
X011119Y005883D01*
X010984Y005748D01*
X010984Y005558D01*
X011119Y005423D01*
X011310Y005423D01*
X011444Y005558D01*
X011444Y005671D01*
X011605Y005831D01*
X014489Y005831D01*
X014569Y005751D01*
X014760Y005751D01*
X014895Y005886D01*
X014895Y006076D01*
X014760Y006211D01*
X014755Y006211D01*
X014889Y006345D01*
X014889Y006536D01*
X014755Y006670D01*
X014564Y006670D01*
X014484Y006590D01*
X011867Y006590D01*
X011109Y007349D01*
X011109Y007648D01*
X011044Y007713D01*
X010597Y007713D01*
X010533Y007603D02*
X004472Y007603D01*
X004420Y007655D02*
X004555Y007520D01*
X004555Y007329D01*
X004475Y007249D01*
X004475Y007093D01*
X006159Y005409D01*
X011080Y005409D01*
X011168Y005321D01*
X011473Y005015D01*
X014256Y005015D01*
X014336Y005095D01*
X014527Y005095D01*
X014661Y004961D01*
X014661Y004770D01*
X014560Y004669D01*
X014661Y004567D01*
X014661Y004377D01*
X014527Y004242D01*
X014336Y004242D01*
X014201Y004377D01*
X014201Y004490D01*
X014172Y004519D01*
X011152Y004519D01*
X011064Y004606D01*
X010759Y004912D01*
X005837Y004912D01*
X005750Y005000D01*
X003692Y007057D01*
X003633Y006998D01*
X003442Y006998D01*
X003307Y007132D01*
X003307Y007323D01*
X003442Y007458D01*
X003633Y007458D01*
X003713Y007378D01*
X003796Y007378D01*
X004175Y006999D01*
X004175Y007249D01*
X004095Y007329D01*
X004095Y007520D01*
X004229Y007655D01*
X004420Y007655D01*
X004550Y007524D02*
X010533Y007524D01*
X010533Y007446D02*
X004555Y007446D01*
X004555Y007367D02*
X010533Y007367D01*
X010533Y007289D02*
X004514Y007289D01*
X004475Y007210D02*
X010533Y007210D01*
X010821Y007425D02*
X011805Y006440D01*
X014659Y006440D01*
X014507Y006267D02*
X010693Y006267D01*
X010736Y006224D02*
X010601Y006359D01*
X010425Y006432D01*
X010234Y006432D01*
X010057Y006359D01*
X009922Y006224D01*
X009849Y006048D01*
X009849Y005857D01*
X009922Y005680D01*
X010057Y005545D01*
X010234Y005472D01*
X010425Y005472D01*
X010601Y005545D01*
X010736Y005680D01*
X010809Y005857D01*
X010809Y006048D01*
X010736Y006224D01*
X010751Y006189D02*
X014547Y006189D01*
X014782Y006189D02*
X017978Y006189D01*
X017992Y006224D02*
X017919Y006048D01*
X017919Y005857D01*
X017992Y005680D01*
X018127Y005545D01*
X018304Y005472D01*
X018495Y005472D01*
X018671Y005545D01*
X018806Y005680D01*
X018879Y005857D01*
X018879Y006048D01*
X018806Y006224D01*
X018671Y006359D01*
X018495Y006432D01*
X018304Y006432D01*
X018127Y006359D01*
X017992Y006224D01*
X018035Y006267D02*
X014812Y006267D01*
X014889Y006346D02*
X018114Y006346D01*
X018285Y006425D02*
X014889Y006425D01*
X014889Y006503D02*
X021301Y006503D01*
X021301Y006425D02*
X021073Y006425D01*
X021244Y006346D02*
X021301Y006346D01*
X021301Y006582D02*
X014843Y006582D01*
X014765Y006660D02*
X021301Y006660D01*
X021301Y006739D02*
X011719Y006739D01*
X011797Y006660D02*
X014554Y006660D01*
X014860Y006110D02*
X017945Y006110D01*
X017919Y006032D02*
X014895Y006032D01*
X014895Y005953D02*
X017919Y005953D01*
X017919Y005875D02*
X014883Y005875D01*
X014805Y005796D02*
X017944Y005796D01*
X017977Y005718D02*
X011491Y005718D01*
X011444Y005639D02*
X018033Y005639D01*
X018112Y005561D02*
X011444Y005561D01*
X011369Y005482D02*
X018280Y005482D01*
X018518Y005482D02*
X020840Y005482D01*
X020672Y005561D02*
X018686Y005561D01*
X018765Y005639D02*
X020593Y005639D01*
X020537Y005718D02*
X018821Y005718D01*
X018854Y005796D02*
X020504Y005796D01*
X020479Y005875D02*
X018879Y005875D01*
X018879Y005953D02*
X020479Y005953D01*
X020479Y006032D02*
X018879Y006032D01*
X018853Y006110D02*
X020505Y006110D01*
X020538Y006189D02*
X018821Y006189D01*
X018763Y006267D02*
X020595Y006267D01*
X020674Y006346D02*
X018684Y006346D01*
X018513Y006425D02*
X020845Y006425D01*
X021301Y006817D02*
X011640Y006817D01*
X011562Y006896D02*
X021301Y006896D01*
X021301Y006974D02*
X011483Y006974D01*
X011405Y007053D02*
X018269Y007053D01*
X018108Y007131D02*
X011326Y007131D01*
X011247Y007210D02*
X018029Y007210D01*
X017975Y007289D02*
X011169Y007289D01*
X011109Y007367D02*
X017942Y007367D01*
X017919Y007446D02*
X011109Y007446D01*
X011109Y007524D02*
X017919Y007524D01*
X017919Y007603D02*
X011109Y007603D01*
X011076Y007681D02*
X017947Y007681D01*
X018118Y007917D02*
X003370Y007917D01*
X003292Y007995D02*
X018295Y007995D01*
X018503Y007995D02*
X020855Y007995D01*
X020678Y007917D02*
X018680Y007917D01*
X018758Y007838D02*
X020600Y007838D01*
X020539Y007760D02*
X018819Y007760D01*
X018851Y007681D02*
X020507Y007681D01*
X020479Y007603D02*
X018879Y007603D01*
X018879Y007524D02*
X020479Y007524D01*
X020479Y007446D02*
X018879Y007446D01*
X018856Y007367D02*
X020502Y007367D01*
X020535Y007289D02*
X018823Y007289D01*
X018769Y007210D02*
X020589Y007210D01*
X020668Y007131D02*
X018691Y007131D01*
X018529Y007053D02*
X020829Y007053D01*
X021089Y007053D02*
X021301Y007053D01*
X021301Y007131D02*
X021250Y007131D01*
X021601Y007131D02*
X022045Y007131D01*
X022064Y007112D02*
X022241Y007039D01*
X022432Y007039D01*
X022608Y007112D01*
X022743Y007247D01*
X022816Y007423D01*
X022816Y007614D01*
X022743Y007791D01*
X022608Y007926D01*
X022432Y007999D01*
X022241Y007999D01*
X022064Y007926D01*
X021929Y007791D01*
X021856Y007614D01*
X021856Y007423D01*
X021929Y007247D01*
X022064Y007112D01*
X021966Y007210D02*
X021601Y007210D01*
X021601Y007289D02*
X021912Y007289D01*
X021879Y007367D02*
X021601Y007367D01*
X021601Y007446D02*
X021856Y007446D01*
X021856Y007524D02*
X021601Y007524D01*
X021601Y007457D02*
X021601Y010419D01*
X021607Y010426D01*
X021601Y010480D01*
X021601Y010534D01*
X021594Y010540D01*
X021593Y010550D01*
X021551Y010583D01*
X021513Y010622D01*
X021503Y010622D01*
X021409Y010697D01*
X021439Y010770D01*
X021439Y010961D01*
X021366Y011137D01*
X021399Y011059D02*
X021897Y011059D01*
X021929Y011137D02*
X021856Y010961D01*
X021856Y010770D01*
X021929Y010593D01*
X022064Y010458D01*
X022241Y010385D01*
X022432Y010385D01*
X022608Y010458D01*
X022743Y010593D01*
X022816Y010770D01*
X022816Y010961D01*
X022743Y011137D01*
X022776Y011059D02*
X024457Y011059D01*
X024489Y011137D02*
X024416Y010961D01*
X024416Y010770D01*
X024489Y010593D01*
X024624Y010458D01*
X024801Y010385D01*
X024992Y010385D01*
X025166Y010457D01*
X025238Y010400D01*
X025238Y009636D01*
X025168Y009706D01*
X024992Y009779D01*
X024801Y009779D01*
X024624Y009706D01*
X024489Y009571D01*
X024416Y009394D01*
X024416Y009203D01*
X024489Y009027D01*
X024624Y008892D01*
X024801Y008819D01*
X024992Y008819D01*
X025168Y008892D01*
X025238Y008962D01*
X025238Y007856D01*
X025168Y007926D01*
X024992Y007999D01*
X024801Y007999D01*
X024624Y007926D01*
X024489Y007791D01*
X024416Y007614D01*
X024416Y007423D01*
X024489Y007247D01*
X024624Y007112D01*
X024801Y007039D01*
X024992Y007039D01*
X025168Y007112D01*
X025238Y007182D01*
X025238Y006289D01*
X025168Y006359D01*
X024992Y006432D01*
X024801Y006432D01*
X024624Y006359D01*
X024489Y006224D01*
X024416Y006048D01*
X024416Y005857D01*
X024489Y005680D01*
X024624Y005545D01*
X024801Y005472D01*
X024992Y005472D01*
X025168Y005545D01*
X025238Y005615D01*
X025238Y004509D01*
X025168Y004579D01*
X024992Y004652D01*
X024801Y004652D01*
X024624Y004579D01*
X024489Y004444D01*
X024416Y004268D01*
X024416Y004077D01*
X024489Y003900D01*
X024624Y003765D01*
X024801Y003692D01*
X024992Y003692D01*
X025168Y003765D01*
X025238Y003835D01*
X025238Y002943D01*
X025168Y003013D01*
X024992Y003086D01*
X024801Y003086D01*
X024624Y003013D01*
X024489Y002878D01*
X024416Y002701D01*
X024416Y002510D01*
X024489Y002334D01*
X024624Y002199D01*
X024801Y002126D01*
X024992Y002126D01*
X025168Y002199D01*
X025238Y002269D01*
X025238Y001292D01*
X025166Y001234D01*
X024992Y001306D01*
X024801Y001306D01*
X024624Y001233D01*
X024489Y001098D01*
X024416Y000921D01*
X024416Y000730D01*
X024489Y000554D01*
X024624Y000419D01*
X024716Y000381D01*
X022516Y000381D01*
X022608Y000419D01*
X022743Y000554D01*
X022816Y000730D01*
X022816Y000921D01*
X022743Y001098D01*
X022608Y001233D01*
X022432Y001306D01*
X022241Y001306D01*
X022064Y001233D01*
X021929Y001098D01*
X021856Y000921D01*
X021856Y000730D01*
X021929Y000554D01*
X022064Y000419D01*
X022156Y000381D01*
X021139Y000381D01*
X021231Y000419D01*
X021366Y000554D01*
X021439Y000730D01*
X021439Y000921D01*
X021409Y000994D01*
X021503Y001070D01*
X021513Y001070D01*
X021551Y001108D01*
X021593Y001141D01*
X021594Y001151D01*
X021601Y001157D01*
X021601Y001211D01*
X021607Y001265D01*
X021601Y001272D01*
X021601Y004234D01*
X021601Y007457D01*
X021601Y007603D02*
X021856Y007603D01*
X021884Y007681D02*
X021601Y007681D01*
X021601Y007760D02*
X021916Y007760D01*
X021977Y007838D02*
X021601Y007838D01*
X021601Y007917D02*
X022055Y007917D01*
X022232Y007995D02*
X021601Y007995D01*
X021601Y008074D02*
X025238Y008074D01*
X025238Y008153D02*
X021601Y008153D01*
X021601Y008231D02*
X025238Y008231D01*
X025238Y008310D02*
X021601Y008310D01*
X021601Y008388D02*
X025238Y008388D01*
X025238Y008467D02*
X021601Y008467D01*
X021601Y008545D02*
X025238Y008545D01*
X025238Y008624D02*
X021601Y008624D01*
X021601Y008702D02*
X025238Y008702D01*
X025238Y008781D02*
X021601Y008781D01*
X021601Y008859D02*
X022143Y008859D01*
X022064Y008892D02*
X022241Y008819D01*
X022432Y008819D01*
X022608Y008892D01*
X022743Y009027D01*
X022816Y009203D01*
X022816Y009394D01*
X022743Y009571D01*
X022608Y009706D01*
X022432Y009779D01*
X022241Y009779D01*
X022064Y009706D01*
X021929Y009571D01*
X021856Y009394D01*
X021856Y009203D01*
X021929Y009027D01*
X022064Y008892D01*
X022018Y008938D02*
X021601Y008938D01*
X021601Y009016D02*
X021940Y009016D01*
X021901Y009095D02*
X021601Y009095D01*
X021601Y009174D02*
X021868Y009174D01*
X021856Y009252D02*
X021601Y009252D01*
X021601Y009331D02*
X021856Y009331D01*
X021862Y009409D02*
X021601Y009409D01*
X021601Y009488D02*
X021895Y009488D01*
X021927Y009566D02*
X021601Y009566D01*
X021601Y009645D02*
X022003Y009645D01*
X022107Y009723D02*
X021601Y009723D01*
X021601Y009802D02*
X025238Y009802D01*
X025238Y009880D02*
X021601Y009880D01*
X021601Y009959D02*
X025238Y009959D01*
X025238Y010038D02*
X021601Y010038D01*
X021601Y010116D02*
X025238Y010116D01*
X025238Y010195D02*
X021601Y010195D01*
X021601Y010273D02*
X025238Y010273D01*
X025238Y010352D02*
X021601Y010352D01*
X021606Y010430D02*
X022132Y010430D01*
X022014Y010509D02*
X021601Y010509D01*
X021547Y010587D02*
X021935Y010587D01*
X021899Y010666D02*
X021448Y010666D01*
X021429Y010744D02*
X021867Y010744D01*
X021856Y010823D02*
X021439Y010823D01*
X021439Y010902D02*
X021856Y010902D01*
X021864Y010980D02*
X021431Y010980D01*
X021287Y011216D02*
X022008Y011216D01*
X022117Y011294D02*
X021178Y011294D01*
X020740Y011294D02*
X018618Y011294D01*
X018727Y011216D02*
X020631Y011216D01*
X020487Y010980D02*
X018871Y010980D01*
X018879Y010902D02*
X020479Y010902D01*
X020479Y010823D02*
X018879Y010823D01*
X018869Y010744D02*
X020490Y010744D01*
X020522Y010666D02*
X018836Y010666D01*
X018800Y010587D02*
X020558Y010587D01*
X020637Y010509D02*
X018721Y010509D01*
X018603Y010430D02*
X020755Y010430D01*
X021163Y010430D02*
X021262Y010430D01*
X021301Y010352D02*
X000825Y010352D01*
X000825Y010430D02*
X018195Y010430D01*
X018077Y010509D02*
X000825Y010509D01*
X000825Y010587D02*
X017998Y010587D01*
X017962Y010666D02*
X000825Y010666D01*
X000825Y010744D02*
X017930Y010744D01*
X017919Y010823D02*
X000825Y010823D01*
X000825Y010902D02*
X017919Y010902D01*
X017927Y010980D02*
X000825Y010980D01*
X000825Y011216D02*
X018071Y011216D01*
X018180Y011294D02*
X000825Y011294D01*
X000825Y011373D02*
X035778Y011373D01*
X035778Y011451D02*
X000825Y011451D01*
X000825Y011530D02*
X035778Y011530D01*
X035778Y011608D02*
X000825Y011608D01*
X000825Y011687D02*
X035778Y011687D01*
X035778Y011766D02*
X000825Y011766D01*
X000825Y011844D02*
X035778Y011844D01*
X035778Y011923D02*
X034744Y011923D01*
X034616Y011870D02*
X034936Y012002D01*
X035180Y012247D01*
X035313Y012566D01*
X035313Y012913D01*
X035180Y013232D01*
X034936Y013477D01*
X034616Y013609D01*
X034270Y013609D01*
X033950Y013477D01*
X033705Y013232D01*
X033573Y012913D01*
X033573Y012566D01*
X033705Y012247D01*
X033950Y012002D01*
X034270Y011870D01*
X034616Y011870D01*
X034933Y012001D02*
X035778Y012001D01*
X035778Y012080D02*
X035013Y012080D01*
X035092Y012158D02*
X035778Y012158D01*
X035778Y012237D02*
X035170Y012237D01*
X035209Y012315D02*
X035778Y012315D01*
X035778Y012394D02*
X035241Y012394D01*
X035274Y012472D02*
X035778Y012472D01*
X035778Y012551D02*
X035306Y012551D01*
X035313Y012629D02*
X035778Y012629D01*
X035778Y012708D02*
X035313Y012708D01*
X035313Y012787D02*
X035778Y012787D01*
X035778Y012865D02*
X035313Y012865D01*
X035300Y012944D02*
X035778Y012944D01*
X035778Y013022D02*
X035267Y013022D01*
X035235Y013101D02*
X035778Y013101D01*
X035778Y013179D02*
X035202Y013179D01*
X035155Y013258D02*
X035778Y013258D01*
X035778Y013336D02*
X035076Y013336D01*
X034998Y013415D02*
X035778Y013415D01*
X035778Y013493D02*
X034896Y013493D01*
X034706Y013572D02*
X035778Y013572D01*
X035778Y013651D02*
X002389Y013651D01*
X002389Y013629D02*
X002389Y013742D01*
X002389Y018827D01*
X002469Y018907D01*
X002469Y019097D01*
X002335Y019232D01*
X002144Y019232D01*
X002009Y019097D01*
X002009Y018907D01*
X002089Y018827D01*
X002089Y013954D01*
X002064Y013954D01*
X001929Y013819D01*
X001929Y013629D01*
X002064Y013494D01*
X002255Y013494D01*
X002389Y013629D01*
X002333Y013572D02*
X034179Y013572D01*
X033990Y013493D02*
X000825Y013493D01*
X000825Y013415D02*
X033888Y013415D01*
X033809Y013336D02*
X000825Y013336D01*
X000825Y013258D02*
X033731Y013258D01*
X033683Y013179D02*
X000825Y013179D01*
X000825Y013101D02*
X018244Y013101D01*
X018304Y013125D02*
X018127Y013052D01*
X017992Y012917D01*
X017919Y012741D01*
X017919Y012550D01*
X017992Y012373D01*
X018127Y012238D01*
X018304Y012165D01*
X018495Y012165D01*
X018671Y012238D01*
X018806Y012373D01*
X018879Y012550D01*
X018879Y012741D01*
X018806Y012917D01*
X018671Y013052D01*
X018495Y013125D01*
X018304Y013125D01*
X018097Y013022D02*
X000825Y013022D01*
X000825Y012944D02*
X018019Y012944D01*
X017971Y012865D02*
X000825Y012865D01*
X000825Y012787D02*
X017938Y012787D01*
X017919Y012708D02*
X000825Y012708D01*
X000825Y012629D02*
X017919Y012629D01*
X017919Y012551D02*
X000825Y012551D01*
X000825Y012472D02*
X017951Y012472D01*
X017984Y012394D02*
X000825Y012394D01*
X000825Y012315D02*
X018050Y012315D01*
X018131Y012237D02*
X000825Y012237D01*
X000825Y012158D02*
X033794Y012158D01*
X033872Y012080D02*
X000825Y012080D01*
X000825Y012001D02*
X033952Y012001D01*
X034142Y011923D02*
X000825Y011923D01*
X000825Y013572D02*
X001986Y013572D01*
X001929Y013651D02*
X000825Y013651D01*
X000825Y013729D02*
X001929Y013729D01*
X001929Y013808D02*
X000825Y013808D01*
X000825Y013886D02*
X001997Y013886D01*
X002089Y013965D02*
X000825Y013965D01*
X000825Y014043D02*
X002089Y014043D01*
X002089Y014122D02*
X000825Y014122D01*
X000825Y014200D02*
X002089Y014200D01*
X002089Y014279D02*
X000825Y014279D01*
X000825Y014357D02*
X002089Y014357D01*
X002089Y014436D02*
X000825Y014436D01*
X000825Y014515D02*
X002089Y014515D01*
X002089Y014593D02*
X000825Y014593D01*
X000825Y014672D02*
X002089Y014672D01*
X002089Y014750D02*
X000825Y014750D01*
X000825Y014829D02*
X002089Y014829D01*
X002089Y014907D02*
X000825Y014907D01*
X000825Y014986D02*
X002089Y014986D01*
X002089Y015064D02*
X000825Y015064D01*
X000825Y015143D02*
X002089Y015143D01*
X002089Y015221D02*
X000825Y015221D01*
X000825Y015300D02*
X002089Y015300D01*
X002089Y015379D02*
X000825Y015379D01*
X000825Y015457D02*
X002089Y015457D01*
X002089Y015536D02*
X001764Y015536D01*
X001749Y015521D02*
X002038Y015810D01*
X002038Y016219D01*
X001749Y016508D01*
X001340Y016508D01*
X001051Y016219D01*
X001051Y015810D01*
X001340Y015521D01*
X001749Y015521D01*
X001842Y015614D02*
X002089Y015614D01*
X002089Y015693D02*
X001921Y015693D01*
X002000Y015771D02*
X002089Y015771D01*
X002089Y015850D02*
X002038Y015850D01*
X002038Y015928D02*
X002089Y015928D01*
X002089Y016007D02*
X002038Y016007D01*
X002038Y016085D02*
X002089Y016085D01*
X002089Y016164D02*
X002038Y016164D01*
X002015Y016242D02*
X002089Y016242D01*
X002089Y016321D02*
X001937Y016321D01*
X001858Y016400D02*
X002089Y016400D01*
X002089Y016478D02*
X001779Y016478D01*
X002089Y016557D02*
X000825Y016557D01*
X000825Y016635D02*
X002089Y016635D01*
X002089Y016714D02*
X000825Y016714D01*
X000825Y016792D02*
X002089Y016792D01*
X002089Y016871D02*
X000825Y016871D01*
X000825Y016949D02*
X002089Y016949D01*
X002089Y017028D02*
X000825Y017028D01*
X000825Y017106D02*
X002089Y017106D01*
X002089Y017185D02*
X000825Y017185D01*
X000825Y017264D02*
X002089Y017264D01*
X002089Y017342D02*
X000825Y017342D01*
X000825Y017421D02*
X002089Y017421D01*
X002089Y017499D02*
X000825Y017499D01*
X000825Y017578D02*
X002089Y017578D01*
X002089Y017656D02*
X000825Y017656D01*
X000825Y017735D02*
X002089Y017735D01*
X002089Y017813D02*
X000825Y017813D01*
X000825Y017892D02*
X002089Y017892D01*
X002089Y017970D02*
X000825Y017970D01*
X000825Y018049D02*
X001250Y018049D01*
X001328Y017971D02*
X001021Y018278D01*
X001021Y018455D01*
X001504Y018455D01*
X001504Y018535D01*
X001021Y018535D01*
X001021Y018712D01*
X001328Y019019D01*
X001505Y019019D01*
X001505Y018535D01*
X001584Y018535D01*
X001584Y019019D01*
X001762Y019019D01*
X002068Y018712D01*
X002068Y018535D01*
X001585Y018535D01*
X001585Y018455D01*
X002068Y018455D01*
X002068Y018278D01*
X001762Y017971D01*
X001584Y017971D01*
X001584Y018455D01*
X001505Y018455D01*
X001505Y017971D01*
X001328Y017971D01*
X001505Y018049D02*
X001584Y018049D01*
X001584Y018128D02*
X001505Y018128D01*
X001505Y018206D02*
X001584Y018206D01*
X001584Y018285D02*
X001505Y018285D01*
X001505Y018363D02*
X001584Y018363D01*
X001584Y018442D02*
X001505Y018442D01*
X001504Y018520D02*
X000825Y018520D01*
X000825Y018442D02*
X001021Y018442D01*
X001021Y018363D02*
X000825Y018363D01*
X000825Y018285D02*
X001021Y018285D01*
X001093Y018206D02*
X000825Y018206D01*
X000825Y018128D02*
X001171Y018128D01*
X001021Y018599D02*
X000825Y018599D01*
X000825Y018677D02*
X001021Y018677D01*
X001065Y018756D02*
X000825Y018756D01*
X000825Y018834D02*
X001143Y018834D01*
X001222Y018913D02*
X000825Y018913D01*
X000825Y018991D02*
X001300Y018991D01*
X001505Y018991D02*
X001584Y018991D01*
X001584Y018913D02*
X001505Y018913D01*
X001505Y018834D02*
X001584Y018834D01*
X001584Y018756D02*
X001505Y018756D01*
X001505Y018677D02*
X001584Y018677D01*
X001584Y018599D02*
X001505Y018599D01*
X001585Y018520D02*
X002089Y018520D01*
X002089Y018442D02*
X002068Y018442D01*
X002068Y018363D02*
X002089Y018363D01*
X002089Y018285D02*
X002068Y018285D01*
X002089Y018206D02*
X001996Y018206D01*
X001918Y018128D02*
X002089Y018128D01*
X002089Y018049D02*
X001839Y018049D01*
X002389Y018049D02*
X007607Y018049D01*
X007555Y017970D02*
X002389Y017970D01*
X002389Y017892D02*
X007555Y017892D01*
X007555Y017813D02*
X002389Y017813D01*
X002389Y017735D02*
X007626Y017735D01*
X007785Y017901D02*
X007833Y017949D01*
X007833Y019306D01*
X008069Y019306D02*
X008069Y017777D01*
X008105Y017741D01*
X008266Y017578D02*
X019105Y017578D01*
X019027Y017656D02*
X008905Y017656D01*
X008975Y017735D02*
X019018Y017735D01*
X019018Y017665D02*
X019290Y017393D01*
X019674Y017393D01*
X019946Y017665D01*
X019946Y018050D01*
X019674Y018322D01*
X019290Y018322D01*
X019018Y018050D01*
X019018Y017665D01*
X019018Y017813D02*
X008975Y017813D01*
X008975Y017892D02*
X019018Y017892D01*
X019018Y017970D02*
X010099Y017970D01*
X010175Y018049D02*
X019018Y018049D01*
X019095Y018128D02*
X010304Y018128D01*
X010354Y018206D02*
X019174Y018206D01*
X019253Y018285D02*
X010354Y018285D01*
X010354Y018363D02*
X035778Y018363D01*
X035778Y018285D02*
X034715Y018285D01*
X034648Y018352D02*
X034483Y018352D01*
X034483Y017898D01*
X034403Y017898D01*
X034403Y018352D01*
X034238Y018352D01*
X033949Y018062D01*
X033949Y017898D01*
X034403Y017898D01*
X034403Y017818D01*
X033949Y017818D01*
X033949Y017653D01*
X034238Y017363D01*
X034403Y017363D01*
X034403Y017817D01*
X034483Y017817D01*
X034483Y017363D01*
X034648Y017363D01*
X034937Y017653D01*
X034937Y017818D01*
X034483Y017818D01*
X034483Y017898D01*
X034937Y017898D01*
X034937Y018062D01*
X034648Y018352D01*
X034483Y018285D02*
X034403Y018285D01*
X034403Y018206D02*
X034483Y018206D01*
X034483Y018128D02*
X034403Y018128D01*
X034403Y018049D02*
X034483Y018049D01*
X034483Y017970D02*
X034403Y017970D01*
X034403Y017892D02*
X019946Y017892D01*
X019946Y017970D02*
X033949Y017970D01*
X033949Y018049D02*
X019946Y018049D01*
X019869Y018128D02*
X034014Y018128D01*
X034092Y018206D02*
X019790Y018206D01*
X019712Y018285D02*
X034171Y018285D01*
X034483Y017892D02*
X035778Y017892D01*
X035778Y017970D02*
X034937Y017970D01*
X034937Y018049D02*
X035778Y018049D01*
X035778Y018128D02*
X034872Y018128D01*
X034793Y018206D02*
X035778Y018206D01*
X035778Y017813D02*
X034937Y017813D01*
X034937Y017735D02*
X035778Y017735D01*
X035778Y017656D02*
X034937Y017656D01*
X034862Y017578D02*
X035778Y017578D01*
X035778Y017499D02*
X034783Y017499D01*
X034705Y017421D02*
X035778Y017421D01*
X035778Y017342D02*
X002389Y017342D01*
X002389Y017264D02*
X035778Y017264D01*
X035778Y017185D02*
X002389Y017185D01*
X002389Y017106D02*
X035778Y017106D01*
X035778Y017028D02*
X002389Y017028D01*
X002389Y016949D02*
X035778Y016949D01*
X035778Y016871D02*
X002389Y016871D01*
X002389Y016792D02*
X035778Y016792D01*
X035778Y016714D02*
X002389Y016714D01*
X002389Y016635D02*
X035778Y016635D01*
X035778Y016557D02*
X002389Y016557D01*
X002389Y016478D02*
X035778Y016478D01*
X035778Y016400D02*
X002389Y016400D01*
X002389Y016321D02*
X035778Y016321D01*
X035778Y016242D02*
X002389Y016242D01*
X002389Y016164D02*
X035778Y016164D01*
X035778Y016085D02*
X002389Y016085D01*
X002389Y016007D02*
X035778Y016007D01*
X035778Y015928D02*
X002389Y015928D01*
X002389Y015850D02*
X035778Y015850D01*
X035778Y015771D02*
X002389Y015771D01*
X002389Y015693D02*
X035778Y015693D01*
X035778Y015614D02*
X002389Y015614D01*
X002389Y015536D02*
X035778Y015536D01*
X035778Y015457D02*
X002389Y015457D01*
X002389Y015379D02*
X035778Y015379D01*
X035778Y015300D02*
X002389Y015300D01*
X002389Y015221D02*
X035778Y015221D01*
X035778Y015143D02*
X002389Y015143D01*
X002389Y015064D02*
X035778Y015064D01*
X035778Y014986D02*
X002389Y014986D01*
X002389Y014907D02*
X035778Y014907D01*
X035778Y014829D02*
X002389Y014829D01*
X002389Y014750D02*
X035778Y014750D01*
X035778Y014672D02*
X002389Y014672D01*
X002389Y014593D02*
X035778Y014593D01*
X035778Y014515D02*
X002389Y014515D01*
X002389Y014436D02*
X035778Y014436D01*
X035778Y014357D02*
X002389Y014357D01*
X002389Y014279D02*
X035778Y014279D01*
X035778Y014200D02*
X002389Y014200D01*
X002389Y014122D02*
X035778Y014122D01*
X035778Y014043D02*
X002389Y014043D01*
X002389Y013965D02*
X035778Y013965D01*
X035778Y013886D02*
X002389Y013886D01*
X002389Y013808D02*
X035778Y013808D01*
X035778Y013729D02*
X002389Y013729D01*
X002239Y013804D02*
X002239Y019002D01*
X002009Y018991D02*
X001789Y018991D01*
X001867Y018913D02*
X002009Y018913D01*
X001946Y018834D02*
X002082Y018834D01*
X002089Y018756D02*
X002024Y018756D01*
X002068Y018677D02*
X002089Y018677D01*
X002089Y018599D02*
X002068Y018599D01*
X002389Y018599D02*
X007437Y018599D01*
X007437Y018677D02*
X002389Y018677D01*
X002389Y018756D02*
X007437Y018756D01*
X007437Y018834D02*
X002397Y018834D01*
X002469Y018913D02*
X007437Y018913D01*
X007437Y018991D02*
X002469Y018991D01*
X002469Y019070D02*
X007437Y019070D01*
X007437Y019149D02*
X002418Y019149D01*
X002339Y019227D02*
X007437Y019227D01*
X007437Y019306D02*
X000825Y019306D01*
X000825Y019384D02*
X007437Y019384D01*
X007437Y019463D02*
X000825Y019463D01*
X000825Y019541D02*
X007437Y019541D01*
X007437Y019620D02*
X000825Y019620D01*
X000825Y019698D02*
X007437Y019698D01*
X007437Y019777D02*
X002413Y019777D01*
X002332Y019744D02*
X002652Y019876D01*
X002897Y020121D01*
X003029Y020440D01*
X003029Y020787D01*
X002897Y021106D01*
X002652Y021351D01*
X002332Y021483D01*
X001986Y021483D01*
X001667Y021351D01*
X001422Y021106D01*
X001289Y020787D01*
X001289Y020440D01*
X001422Y020121D01*
X001667Y019876D01*
X001986Y019744D01*
X002332Y019744D01*
X002602Y019855D02*
X007437Y019855D01*
X007437Y019934D02*
X002710Y019934D01*
X002789Y020013D02*
X007437Y020013D01*
X007437Y020091D02*
X002867Y020091D01*
X002917Y020170D02*
X007437Y020170D01*
X007437Y020248D02*
X002950Y020248D01*
X002982Y020327D02*
X007437Y020327D01*
X007437Y020405D02*
X003015Y020405D01*
X003029Y020484D02*
X007487Y020484D01*
X007706Y020484D02*
X008864Y020484D01*
X008864Y020562D02*
X003029Y020562D01*
X003029Y020641D02*
X008864Y020641D01*
X008864Y020719D02*
X003029Y020719D01*
X003025Y020798D02*
X008766Y020798D01*
X008687Y020877D02*
X002992Y020877D01*
X002959Y020955D02*
X008652Y020955D01*
X008652Y021034D02*
X002927Y021034D01*
X002891Y021112D02*
X008662Y021112D01*
X009148Y021007D02*
X009148Y020810D01*
X009250Y020708D01*
X009250Y019306D01*
X009486Y019306D02*
X009486Y020391D01*
X009486Y019306D01*
X009486Y019306D01*
X009487Y019306D02*
X009533Y019306D01*
X009722Y019306D01*
X009722Y019305D01*
X009533Y019305D01*
X009487Y019305D01*
X009487Y019306D01*
X009722Y019306D01*
X009722Y019384D02*
X009723Y019384D01*
X009722Y019463D02*
X009723Y019463D01*
X009722Y019541D02*
X009723Y019541D01*
X009722Y019620D02*
X009723Y019620D01*
X009722Y019698D02*
X009723Y019698D01*
X009722Y019777D02*
X009723Y019777D01*
X009722Y019855D02*
X009723Y019855D01*
X009722Y019934D02*
X009723Y019934D01*
X009722Y020013D02*
X009723Y020013D01*
X009722Y020091D02*
X009723Y020091D01*
X009722Y020170D02*
X009723Y020170D01*
X009722Y020248D02*
X009723Y020248D01*
X009722Y020327D02*
X009723Y020327D01*
X009486Y020327D02*
X009486Y020327D01*
X009486Y020248D02*
X009486Y020248D01*
X009486Y020170D02*
X009486Y020170D01*
X009486Y020091D02*
X009486Y020091D01*
X009486Y020013D02*
X009486Y020013D01*
X009486Y019934D02*
X009486Y019934D01*
X009486Y019855D02*
X009486Y019855D01*
X009486Y019777D02*
X009486Y019777D01*
X009486Y019698D02*
X009486Y019698D01*
X009486Y019620D02*
X009486Y019620D01*
X009486Y019541D02*
X009486Y019541D01*
X009486Y019463D02*
X009486Y019463D01*
X009486Y019384D02*
X009486Y019384D01*
X009486Y019227D02*
X009486Y019227D01*
X009486Y019149D02*
X009486Y019149D01*
X009486Y019070D02*
X009486Y019070D01*
X009486Y018991D02*
X009486Y018991D01*
X009486Y018913D02*
X009486Y018913D01*
X009486Y018834D02*
X009486Y018834D01*
X009486Y018756D02*
X009486Y018756D01*
X009486Y018677D02*
X009486Y018677D01*
X009486Y018599D02*
X009486Y018599D01*
X009486Y018520D02*
X009486Y018520D01*
X009486Y018442D02*
X009486Y018442D01*
X009486Y018363D02*
X009486Y018363D01*
X009486Y018285D02*
X009486Y018285D01*
X009715Y018206D02*
X008927Y018206D01*
X008927Y018128D02*
X009715Y018128D01*
X009715Y018049D02*
X008927Y018049D01*
X008927Y017970D02*
X009790Y017970D01*
X009945Y018141D02*
X009945Y019292D01*
X009959Y019306D01*
X010354Y019306D02*
X035778Y019306D01*
X035778Y019384D02*
X010354Y019384D01*
X010354Y019463D02*
X035778Y019463D01*
X035778Y019541D02*
X010354Y019541D01*
X010354Y019620D02*
X035778Y019620D01*
X035778Y019698D02*
X010354Y019698D01*
X010354Y019777D02*
X035778Y019777D01*
X035778Y019855D02*
X010354Y019855D01*
X010354Y019934D02*
X035778Y019934D01*
X035778Y020013D02*
X010354Y020013D01*
X010354Y020091D02*
X035778Y020091D01*
X035778Y020170D02*
X010354Y020170D01*
X010354Y020248D02*
X035778Y020248D01*
X035778Y020327D02*
X010354Y020327D01*
X010354Y020405D02*
X019298Y020405D01*
X019348Y020385D02*
X019101Y020487D01*
X018912Y020676D01*
X018809Y020924D01*
X018809Y021191D01*
X010940Y021191D01*
X011026Y021269D02*
X018841Y021269D01*
X018809Y021191D02*
X018912Y021439D01*
X019101Y021628D01*
X019348Y021731D01*
X019616Y021731D01*
X019863Y021628D01*
X020053Y021439D01*
X020155Y021191D01*
X035638Y021191D01*
X035679Y021112D02*
X020155Y021112D01*
X020155Y021034D02*
X035700Y021034D01*
X035721Y020955D02*
X020155Y020955D01*
X020155Y020924D02*
X020053Y020676D01*
X019863Y020487D01*
X019616Y020385D01*
X019348Y020385D01*
X019109Y020484D02*
X010304Y020484D01*
X010086Y020484D02*
X009400Y020484D01*
X009400Y020562D02*
X019026Y020562D01*
X018947Y020641D02*
X009400Y020641D01*
X009400Y020719D02*
X018894Y020719D01*
X018861Y020798D02*
X009372Y020798D01*
X009342Y020877D02*
X018829Y020877D01*
X018809Y020955D02*
X009378Y020955D01*
X009378Y021034D02*
X018809Y021034D01*
X018809Y021112D02*
X009368Y021112D01*
X009148Y020810D02*
X009014Y020677D01*
X009014Y019306D01*
X008777Y019306D02*
X008777Y017854D01*
X008745Y017821D01*
X008584Y017656D02*
X008335Y017656D01*
X008335Y017735D02*
X008515Y017735D01*
X008515Y017813D02*
X008335Y017813D01*
X008349Y017892D02*
X008279Y017892D01*
X008275Y017970D02*
X008219Y017970D01*
X008219Y018049D02*
X008275Y018049D01*
X008275Y018128D02*
X008219Y018128D01*
X008219Y018206D02*
X008324Y018206D01*
X008305Y018221D02*
X008305Y019305D01*
X008305Y019305D01*
X008305Y018221D01*
X008305Y018285D02*
X008305Y018285D01*
X008305Y018363D02*
X008305Y018363D01*
X008305Y018442D02*
X008305Y018442D01*
X008305Y018520D02*
X008305Y018520D01*
X008305Y018599D02*
X008305Y018599D01*
X008305Y018677D02*
X008305Y018677D01*
X008305Y018756D02*
X008305Y018756D01*
X008305Y018834D02*
X008305Y018834D01*
X008305Y018913D02*
X008305Y018913D01*
X008305Y018991D02*
X008305Y018991D01*
X008305Y019070D02*
X008305Y019070D01*
X008305Y019149D02*
X008305Y019149D01*
X008305Y019227D02*
X008305Y019227D01*
X008305Y019306D02*
X008305Y020391D01*
X008305Y019306D01*
X008305Y019306D01*
X008305Y019384D02*
X008305Y019384D01*
X008305Y019463D02*
X008305Y019463D01*
X008305Y019541D02*
X008305Y019541D01*
X008305Y019620D02*
X008305Y019620D01*
X008305Y019698D02*
X008305Y019698D01*
X008305Y019777D02*
X008305Y019777D01*
X008305Y019855D02*
X008305Y019855D01*
X008305Y019934D02*
X008305Y019934D01*
X008305Y020013D02*
X008305Y020013D01*
X008305Y020091D02*
X008305Y020091D01*
X008305Y020170D02*
X008305Y020170D01*
X008305Y020248D02*
X008305Y020248D01*
X008305Y020327D02*
X008305Y020327D01*
X007756Y020405D02*
X008864Y020405D01*
X009400Y020405D02*
X010036Y020405D01*
X011059Y021348D02*
X018874Y021348D01*
X018906Y021426D02*
X011061Y021426D01*
X011061Y021505D02*
X018978Y021505D01*
X019056Y021583D02*
X011061Y021583D01*
X011061Y021662D02*
X019182Y021662D01*
X019782Y021662D02*
X035266Y021662D01*
X035344Y021583D02*
X019908Y021583D01*
X019987Y021505D02*
X035423Y021505D01*
X035502Y021426D02*
X020058Y021426D01*
X020091Y021348D02*
X035547Y021348D01*
X035592Y021269D02*
X020123Y021269D01*
X020155Y021191D02*
X020155Y020924D01*
X020136Y020877D02*
X035742Y020877D01*
X035763Y020798D02*
X020103Y020798D01*
X020071Y020719D02*
X035771Y020719D01*
X035776Y020641D02*
X020017Y020641D01*
X019939Y020562D02*
X035778Y020562D01*
X035778Y020484D02*
X019856Y020484D01*
X019666Y020405D02*
X035778Y020405D01*
X035778Y019227D02*
X010354Y019227D01*
X010354Y019149D02*
X035778Y019149D01*
X035778Y019070D02*
X010354Y019070D01*
X010354Y018991D02*
X035778Y018991D01*
X035778Y018913D02*
X010354Y018913D01*
X010354Y018834D02*
X035778Y018834D01*
X035778Y018756D02*
X010354Y018756D01*
X010354Y018677D02*
X035778Y018677D01*
X035778Y018599D02*
X010354Y018599D01*
X010354Y018520D02*
X035778Y018520D01*
X035778Y018442D02*
X010354Y018442D01*
X008541Y018098D02*
X008505Y018061D01*
X008541Y018098D02*
X008541Y019306D01*
X007437Y018520D02*
X002389Y018520D01*
X002389Y018442D02*
X007437Y018442D01*
X007437Y018363D02*
X002389Y018363D01*
X002389Y018285D02*
X007437Y018285D01*
X007437Y018206D02*
X002389Y018206D01*
X002389Y018128D02*
X007487Y018128D01*
X007875Y017656D02*
X002389Y017656D01*
X002389Y017578D02*
X007943Y017578D01*
X002389Y017499D02*
X019184Y017499D01*
X019263Y017421D02*
X002389Y017421D01*
X001310Y016478D02*
X000825Y016478D01*
X000825Y016400D02*
X001231Y016400D01*
X001153Y016321D02*
X000825Y016321D01*
X000825Y016242D02*
X001074Y016242D01*
X001051Y016164D02*
X000825Y016164D01*
X000825Y016085D02*
X001051Y016085D01*
X001051Y016007D02*
X000825Y016007D01*
X000825Y015928D02*
X001051Y015928D01*
X001051Y015850D02*
X000825Y015850D01*
X000825Y015771D02*
X001090Y015771D01*
X001168Y015693D02*
X000825Y015693D01*
X000825Y015614D02*
X001247Y015614D01*
X001325Y015536D02*
X000825Y015536D01*
X002239Y013804D02*
X002159Y013724D01*
X000825Y010273D02*
X021301Y010273D01*
X021301Y010195D02*
X000825Y010195D01*
X000825Y010116D02*
X021301Y010116D01*
X021301Y010038D02*
X000825Y010038D01*
X000825Y009959D02*
X021301Y009959D01*
X021301Y009880D02*
X000825Y009880D01*
X000825Y009802D02*
X021301Y009802D01*
X021301Y009723D02*
X021188Y009723D01*
X021292Y009645D02*
X021301Y009645D01*
X020730Y009723D02*
X018628Y009723D01*
X018671Y009706D02*
X018495Y009779D01*
X018304Y009779D01*
X018127Y009706D01*
X017992Y009571D01*
X017919Y009394D01*
X017919Y009203D01*
X017992Y009027D01*
X018127Y008892D01*
X018304Y008819D01*
X018495Y008819D01*
X018671Y008892D01*
X018806Y009027D01*
X018879Y009203D01*
X018879Y009394D01*
X018806Y009571D01*
X018671Y009706D01*
X018732Y009645D02*
X020626Y009645D01*
X020550Y009566D02*
X018808Y009566D01*
X018840Y009488D02*
X020518Y009488D01*
X020485Y009409D02*
X018873Y009409D01*
X018879Y009331D02*
X020479Y009331D01*
X020479Y009252D02*
X018879Y009252D01*
X018867Y009174D02*
X020491Y009174D01*
X020524Y009095D02*
X018834Y009095D01*
X018796Y009016D02*
X020563Y009016D01*
X020641Y008938D02*
X018717Y008938D01*
X018593Y008859D02*
X020766Y008859D01*
X021153Y008859D02*
X021301Y008859D01*
X021301Y008781D02*
X000825Y008781D01*
X000825Y008859D02*
X018206Y008859D01*
X018081Y008938D02*
X000825Y008938D01*
X000825Y009016D02*
X018003Y009016D01*
X017964Y009095D02*
X000825Y009095D01*
X000825Y009174D02*
X017931Y009174D01*
X017919Y009252D02*
X000825Y009252D01*
X000825Y009331D02*
X017919Y009331D01*
X017925Y009409D02*
X000825Y009409D01*
X000825Y009488D02*
X017958Y009488D01*
X017990Y009566D02*
X000825Y009566D01*
X000825Y009645D02*
X018066Y009645D01*
X018170Y009723D02*
X000825Y009723D01*
X000825Y008702D02*
X021301Y008702D01*
X021301Y008624D02*
X000825Y008624D01*
X000825Y008545D02*
X021301Y008545D01*
X021301Y008467D02*
X000825Y008467D01*
X000825Y008388D02*
X021301Y008388D01*
X021301Y008310D02*
X002214Y008310D01*
X002205Y008319D02*
X002073Y008373D01*
X001931Y008373D01*
X001799Y008319D01*
X001698Y008218D01*
X001644Y008086D01*
X001644Y007944D01*
X001698Y007812D01*
X001799Y007712D01*
X001931Y007657D01*
X002073Y007657D01*
X002205Y007712D01*
X002305Y007812D01*
X002360Y007944D01*
X002360Y008086D01*
X002305Y008218D01*
X002205Y008319D01*
X002292Y008231D02*
X021301Y008231D01*
X021301Y008153D02*
X002333Y008153D01*
X002360Y008074D02*
X021301Y008074D01*
X021301Y007995D02*
X021063Y007995D01*
X021240Y007917D02*
X021301Y007917D01*
X021451Y007519D02*
X020959Y007519D01*
X021451Y007519D02*
X021451Y010472D01*
X020959Y010865D01*
X022540Y010430D02*
X024692Y010430D01*
X024574Y010509D02*
X022658Y010509D01*
X022737Y010587D02*
X024495Y010587D01*
X024459Y010666D02*
X022773Y010666D01*
X022806Y010744D02*
X024427Y010744D01*
X024416Y010823D02*
X022816Y010823D01*
X022816Y010902D02*
X024416Y010902D01*
X024424Y010980D02*
X022808Y010980D01*
X022664Y011216D02*
X024568Y011216D01*
X024677Y011294D02*
X022555Y011294D01*
X022432Y012165D02*
X022241Y012165D01*
X022064Y012238D01*
X021929Y012373D01*
X021856Y012550D01*
X021856Y012741D01*
X021929Y012917D01*
X022064Y013052D01*
X022241Y013125D01*
X022432Y013125D01*
X022608Y013052D01*
X022743Y012917D01*
X022816Y012741D01*
X022816Y012550D01*
X022743Y012373D01*
X022608Y012238D01*
X022432Y012165D01*
X022604Y012237D02*
X024628Y012237D01*
X024624Y012238D02*
X024801Y012165D01*
X024992Y012165D01*
X025168Y012238D01*
X025303Y012373D01*
X025376Y012550D01*
X025376Y012741D01*
X025303Y012917D01*
X025168Y013052D01*
X024992Y013125D01*
X024801Y013125D01*
X024624Y013052D01*
X024489Y012917D01*
X024416Y012741D01*
X024416Y012550D01*
X024489Y012373D01*
X024624Y012238D01*
X024547Y012315D02*
X022685Y012315D01*
X022751Y012394D02*
X024481Y012394D01*
X024448Y012472D02*
X022784Y012472D01*
X022816Y012551D02*
X024416Y012551D01*
X024416Y012629D02*
X022816Y012629D01*
X022816Y012708D02*
X024416Y012708D01*
X024435Y012787D02*
X022797Y012787D01*
X022765Y012865D02*
X024468Y012865D01*
X024516Y012944D02*
X022716Y012944D01*
X022638Y013022D02*
X024594Y013022D01*
X024741Y013101D02*
X022491Y013101D01*
X022181Y013101D02*
X021114Y013101D01*
X021055Y013125D02*
X020864Y013125D01*
X020687Y013052D01*
X020552Y012917D01*
X020479Y012741D01*
X020479Y012550D01*
X020552Y012373D01*
X020687Y012238D01*
X020864Y012165D01*
X021055Y012165D01*
X021231Y012238D01*
X021366Y012373D01*
X021439Y012550D01*
X021439Y012741D01*
X021366Y012917D01*
X021231Y013052D01*
X021055Y013125D01*
X021261Y013022D02*
X022034Y013022D01*
X021956Y012944D02*
X021339Y012944D01*
X021388Y012865D02*
X021908Y012865D01*
X021875Y012787D02*
X021420Y012787D01*
X021439Y012708D02*
X021856Y012708D01*
X021856Y012629D02*
X021439Y012629D01*
X021439Y012551D02*
X021856Y012551D01*
X021888Y012472D02*
X021407Y012472D01*
X021374Y012394D02*
X021921Y012394D01*
X021987Y012315D02*
X021308Y012315D01*
X021227Y012237D02*
X022068Y012237D01*
X020691Y012237D02*
X018667Y012237D01*
X018748Y012315D02*
X020610Y012315D01*
X020544Y012394D02*
X018814Y012394D01*
X018847Y012472D02*
X020511Y012472D01*
X020479Y012551D02*
X018879Y012551D01*
X018879Y012629D02*
X020479Y012629D01*
X020479Y012708D02*
X018879Y012708D01*
X018860Y012787D02*
X020498Y012787D01*
X020531Y012865D02*
X018828Y012865D01*
X018779Y012944D02*
X020579Y012944D01*
X020657Y013022D02*
X018701Y013022D01*
X018554Y013101D02*
X020804Y013101D01*
X025051Y013101D02*
X026118Y013101D01*
X026178Y013125D02*
X026001Y013052D01*
X025866Y012917D01*
X025793Y012741D01*
X025793Y012550D01*
X025866Y012373D01*
X026001Y012238D01*
X026178Y012165D01*
X026369Y012165D01*
X026545Y012238D01*
X026680Y012373D01*
X026753Y012550D01*
X026753Y012741D01*
X026680Y012917D01*
X026545Y013052D01*
X026369Y013125D01*
X026178Y013125D01*
X025971Y013022D02*
X025198Y013022D01*
X025276Y012944D02*
X025893Y012944D01*
X025845Y012865D02*
X025325Y012865D01*
X025357Y012787D02*
X025812Y012787D01*
X025793Y012708D02*
X025376Y012708D01*
X025376Y012629D02*
X025793Y012629D01*
X025793Y012551D02*
X025376Y012551D01*
X025344Y012472D02*
X025825Y012472D01*
X025858Y012394D02*
X025311Y012394D01*
X025245Y012315D02*
X025924Y012315D01*
X026005Y012237D02*
X025164Y012237D01*
X026541Y012237D02*
X028565Y012237D01*
X028561Y012238D02*
X028738Y012165D01*
X028929Y012165D01*
X029105Y012238D01*
X029240Y012373D01*
X029313Y012550D01*
X029313Y012741D01*
X029240Y012917D01*
X029105Y013052D01*
X028929Y013125D01*
X028738Y013125D01*
X028561Y013052D01*
X028426Y012917D01*
X028353Y012741D01*
X028353Y012550D01*
X028426Y012373D01*
X028561Y012238D01*
X028484Y012315D02*
X026622Y012315D01*
X026688Y012394D02*
X028418Y012394D01*
X028385Y012472D02*
X026721Y012472D01*
X026753Y012551D02*
X028353Y012551D01*
X028353Y012629D02*
X026753Y012629D01*
X026753Y012708D02*
X028353Y012708D01*
X028372Y012787D02*
X026734Y012787D01*
X026702Y012865D02*
X028405Y012865D01*
X028453Y012944D02*
X026653Y012944D01*
X026575Y013022D02*
X028531Y013022D01*
X028678Y013101D02*
X026428Y013101D01*
X028988Y013101D02*
X030055Y013101D01*
X030115Y013125D02*
X029938Y013052D01*
X029803Y012917D01*
X029730Y012741D01*
X029730Y012550D01*
X029803Y012373D01*
X029938Y012238D01*
X030115Y012165D01*
X030306Y012165D01*
X030482Y012238D01*
X030617Y012373D01*
X030690Y012550D01*
X030690Y012741D01*
X030617Y012917D01*
X030482Y013052D01*
X030306Y013125D01*
X030115Y013125D01*
X029908Y013022D02*
X029135Y013022D01*
X029213Y012944D02*
X029830Y012944D01*
X029782Y012865D02*
X029262Y012865D01*
X029294Y012787D02*
X029749Y012787D01*
X029730Y012708D02*
X029313Y012708D01*
X029313Y012629D02*
X029730Y012629D01*
X029730Y012551D02*
X029313Y012551D01*
X029281Y012472D02*
X029762Y012472D01*
X029795Y012394D02*
X029248Y012394D01*
X029182Y012315D02*
X029861Y012315D01*
X029942Y012237D02*
X029101Y012237D01*
X029052Y011294D02*
X029991Y011294D01*
X029882Y011216D02*
X029161Y011216D01*
X029240Y011137D02*
X029313Y010961D01*
X029313Y010770D01*
X029283Y010697D01*
X029377Y010622D01*
X029387Y010622D01*
X029425Y010583D01*
X029467Y010550D01*
X029468Y010540D01*
X029475Y010534D01*
X029475Y010480D01*
X029481Y010426D01*
X029475Y010419D01*
X029475Y007457D01*
X029475Y004234D01*
X029475Y001272D01*
X029481Y001265D01*
X029475Y001211D01*
X029475Y001157D01*
X029468Y001151D01*
X029467Y001141D01*
X029425Y001108D01*
X029387Y001070D01*
X029377Y001070D01*
X029283Y000994D01*
X029313Y000921D01*
X029313Y000730D01*
X029240Y000554D01*
X029105Y000419D01*
X029013Y000381D01*
X030030Y000381D01*
X029938Y000419D01*
X029803Y000554D01*
X029730Y000730D01*
X029730Y000921D01*
X029803Y001098D01*
X029938Y001233D01*
X030115Y001306D01*
X030306Y001306D01*
X030482Y001233D01*
X030617Y001098D01*
X030690Y000921D01*
X030690Y000730D01*
X030617Y000554D01*
X030482Y000419D01*
X030390Y000381D01*
X032590Y000381D01*
X032498Y000419D01*
X032363Y000554D01*
X032313Y000676D01*
X032143Y000676D01*
X032018Y000676D01*
X031931Y000764D01*
X031931Y004110D01*
X031931Y004410D01*
X031537Y004803D01*
X031537Y004928D01*
X031537Y006896D01*
X029475Y006896D01*
X029475Y006974D02*
X031615Y006974D01*
X031625Y006984D02*
X031537Y006896D01*
X031537Y006817D02*
X029475Y006817D01*
X029475Y006739D02*
X031537Y006739D01*
X031537Y006660D02*
X029475Y006660D01*
X029475Y006582D02*
X031537Y006582D01*
X031537Y006503D02*
X029475Y006503D01*
X029475Y006425D02*
X030096Y006425D01*
X030115Y006432D02*
X029938Y006359D01*
X029803Y006224D01*
X029730Y006048D01*
X029730Y005857D01*
X029803Y005680D01*
X029938Y005545D01*
X030115Y005472D01*
X030306Y005472D01*
X030482Y005545D01*
X030617Y005680D01*
X030690Y005857D01*
X030690Y006048D01*
X030617Y006224D01*
X030482Y006359D01*
X030306Y006432D01*
X030115Y006432D01*
X029925Y006346D02*
X029475Y006346D01*
X029475Y006267D02*
X029846Y006267D01*
X029789Y006189D02*
X029475Y006189D01*
X029475Y006110D02*
X029756Y006110D01*
X029730Y006032D02*
X029475Y006032D01*
X029475Y005953D02*
X029730Y005953D01*
X029730Y005875D02*
X029475Y005875D01*
X029475Y005796D02*
X029755Y005796D01*
X029788Y005718D02*
X029475Y005718D01*
X029475Y005639D02*
X029844Y005639D01*
X029923Y005561D02*
X029475Y005561D01*
X029475Y005482D02*
X030091Y005482D01*
X030329Y005482D02*
X031537Y005482D01*
X031537Y005404D02*
X029475Y005404D01*
X029475Y005325D02*
X031537Y005325D01*
X031537Y005246D02*
X029475Y005246D01*
X029475Y005168D02*
X031537Y005168D01*
X031537Y005089D02*
X029475Y005089D01*
X029475Y005011D02*
X031537Y005011D01*
X031537Y004932D02*
X029475Y004932D01*
X029475Y004854D02*
X031537Y004854D01*
X031565Y004775D02*
X029475Y004775D01*
X029475Y004697D02*
X031644Y004697D01*
X031722Y004618D02*
X030388Y004618D01*
X030306Y004652D02*
X030115Y004652D01*
X029938Y004579D01*
X029803Y004444D01*
X029730Y004268D01*
X029730Y004077D01*
X029803Y003900D01*
X029938Y003765D01*
X030115Y003692D01*
X030306Y003692D01*
X030482Y003765D01*
X030617Y003900D01*
X030690Y004077D01*
X030690Y004268D01*
X030617Y004444D01*
X030482Y004579D01*
X030306Y004652D01*
X030522Y004540D02*
X031801Y004540D01*
X031879Y004461D02*
X030600Y004461D01*
X030643Y004382D02*
X031931Y004382D01*
X031931Y004304D02*
X030675Y004304D01*
X030690Y004225D02*
X031931Y004225D01*
X031931Y004147D02*
X030690Y004147D01*
X030686Y004068D02*
X031931Y004068D01*
X031931Y003990D02*
X030654Y003990D01*
X030621Y003911D02*
X031931Y003911D01*
X031931Y003833D02*
X030549Y003833D01*
X030455Y003754D02*
X031931Y003754D01*
X031931Y003676D02*
X029475Y003676D01*
X029475Y003754D02*
X029966Y003754D01*
X029871Y003833D02*
X029475Y003833D01*
X029475Y003911D02*
X029799Y003911D01*
X029766Y003990D02*
X029475Y003990D01*
X029475Y004068D02*
X029734Y004068D01*
X029730Y004147D02*
X029475Y004147D01*
X029475Y004225D02*
X029730Y004225D01*
X029745Y004304D02*
X029475Y004304D01*
X029475Y004382D02*
X029778Y004382D01*
X029820Y004461D02*
X029475Y004461D01*
X029475Y004540D02*
X029898Y004540D01*
X030032Y004618D02*
X029475Y004618D01*
X029175Y004618D02*
X029011Y004618D01*
X028929Y004652D02*
X028738Y004652D01*
X028561Y004579D01*
X028426Y004444D01*
X028353Y004268D01*
X028353Y004077D01*
X028426Y003900D01*
X028561Y003765D01*
X028738Y003692D01*
X028929Y003692D01*
X029105Y003765D01*
X029175Y003835D01*
X029175Y002943D01*
X029105Y003013D01*
X028929Y003086D01*
X028738Y003086D01*
X028561Y003013D01*
X028426Y002878D01*
X028353Y002701D01*
X028353Y002510D01*
X028426Y002334D01*
X028561Y002199D01*
X028738Y002126D01*
X028929Y002126D01*
X029105Y002199D01*
X029175Y002269D01*
X029175Y001292D01*
X029103Y001234D01*
X028929Y001306D01*
X028738Y001306D01*
X028561Y001233D01*
X028426Y001098D01*
X028353Y000921D01*
X028353Y000730D01*
X028426Y000554D01*
X028561Y000419D01*
X028653Y000381D01*
X026453Y000381D01*
X026545Y000419D01*
X026680Y000554D01*
X026753Y000730D01*
X026753Y000921D01*
X026680Y001098D01*
X026545Y001233D01*
X026369Y001306D01*
X026178Y001306D01*
X026001Y001233D01*
X025866Y001098D01*
X025793Y000921D01*
X025793Y000730D01*
X025866Y000554D01*
X026001Y000419D01*
X026093Y000381D01*
X025076Y000381D01*
X025168Y000419D01*
X025303Y000554D01*
X025376Y000730D01*
X025376Y000921D01*
X025346Y000994D01*
X025440Y001070D01*
X025450Y001070D01*
X025488Y001108D01*
X025530Y001141D01*
X025531Y001151D01*
X025538Y001157D01*
X025538Y001211D01*
X025544Y001265D01*
X025538Y001272D01*
X025538Y004234D01*
X025538Y007457D01*
X025538Y010419D01*
X025544Y010426D01*
X025538Y010480D01*
X025538Y010534D01*
X025531Y010540D01*
X025530Y010550D01*
X025488Y010583D01*
X025450Y010622D01*
X025440Y010622D01*
X025346Y010697D01*
X025376Y010770D01*
X025376Y010961D01*
X025303Y011137D01*
X025336Y011059D02*
X025834Y011059D01*
X025866Y011137D02*
X025793Y010961D01*
X025793Y010770D01*
X025866Y010593D01*
X026001Y010458D01*
X026178Y010385D01*
X026369Y010385D01*
X026545Y010458D01*
X026680Y010593D01*
X026753Y010770D01*
X026753Y010961D01*
X026680Y011137D01*
X026713Y011059D02*
X028394Y011059D01*
X028426Y011137D02*
X028353Y010961D01*
X028353Y010770D01*
X028426Y010593D01*
X028561Y010458D01*
X028738Y010385D01*
X028929Y010385D01*
X029103Y010457D01*
X029175Y010400D01*
X029175Y009636D01*
X029105Y009706D01*
X028929Y009779D01*
X028738Y009779D01*
X028561Y009706D01*
X028426Y009571D01*
X028353Y009394D01*
X028353Y009203D01*
X028426Y009027D01*
X028561Y008892D01*
X028738Y008819D01*
X028929Y008819D01*
X029105Y008892D01*
X029175Y008962D01*
X029175Y007856D01*
X029105Y007926D01*
X028929Y007999D01*
X028738Y007999D01*
X028561Y007926D01*
X028426Y007791D01*
X028353Y007614D01*
X028353Y007423D01*
X028426Y007247D01*
X028561Y007112D01*
X028738Y007039D01*
X028929Y007039D01*
X029105Y007112D01*
X029175Y007182D01*
X029175Y006289D01*
X029105Y006359D01*
X028929Y006432D01*
X028738Y006432D01*
X028561Y006359D01*
X028426Y006224D01*
X028353Y006048D01*
X028353Y005857D01*
X028426Y005680D01*
X028561Y005545D01*
X028738Y005472D01*
X028929Y005472D01*
X029105Y005545D01*
X029175Y005615D01*
X029175Y004509D01*
X029105Y004579D01*
X028929Y004652D01*
X029145Y004540D02*
X029175Y004540D01*
X029175Y004697D02*
X025538Y004697D01*
X025538Y004775D02*
X029175Y004775D01*
X029175Y004854D02*
X025538Y004854D01*
X025538Y004932D02*
X029175Y004932D01*
X029175Y005011D02*
X025538Y005011D01*
X025538Y005089D02*
X029175Y005089D01*
X029175Y005168D02*
X025538Y005168D01*
X025538Y005246D02*
X029175Y005246D01*
X029175Y005325D02*
X025538Y005325D01*
X025538Y005404D02*
X029175Y005404D01*
X029175Y005482D02*
X028952Y005482D01*
X029120Y005561D02*
X029175Y005561D01*
X028714Y005482D02*
X026392Y005482D01*
X026369Y005472D02*
X026545Y005545D01*
X026680Y005680D01*
X026753Y005857D01*
X026753Y006048D01*
X026680Y006224D01*
X026545Y006359D01*
X026369Y006432D01*
X026178Y006432D01*
X026001Y006359D01*
X025866Y006224D01*
X025793Y006048D01*
X025793Y005857D01*
X025866Y005680D01*
X026001Y005545D01*
X026178Y005472D01*
X026369Y005472D01*
X026560Y005561D02*
X028546Y005561D01*
X028467Y005639D02*
X026639Y005639D01*
X026695Y005718D02*
X028411Y005718D01*
X028378Y005796D02*
X026728Y005796D01*
X026753Y005875D02*
X028353Y005875D01*
X028353Y005953D02*
X026753Y005953D01*
X026753Y006032D02*
X028353Y006032D01*
X028379Y006110D02*
X026727Y006110D01*
X026695Y006189D02*
X028412Y006189D01*
X028469Y006267D02*
X026637Y006267D01*
X026558Y006346D02*
X028548Y006346D01*
X028719Y006425D02*
X026387Y006425D01*
X026159Y006425D02*
X025538Y006425D01*
X025538Y006503D02*
X029175Y006503D01*
X029175Y006425D02*
X028947Y006425D01*
X029118Y006346D02*
X029175Y006346D01*
X029175Y006582D02*
X025538Y006582D01*
X025538Y006660D02*
X029175Y006660D01*
X029175Y006739D02*
X025538Y006739D01*
X025538Y006817D02*
X029175Y006817D01*
X029175Y006896D02*
X025538Y006896D01*
X025538Y006974D02*
X029175Y006974D01*
X029175Y007053D02*
X028963Y007053D01*
X029124Y007131D02*
X029175Y007131D01*
X029475Y007131D02*
X029919Y007131D01*
X029938Y007112D02*
X030115Y007039D01*
X030306Y007039D01*
X030482Y007112D01*
X030617Y007247D01*
X030690Y007423D01*
X030690Y007614D01*
X030617Y007791D01*
X030482Y007926D01*
X030306Y007999D01*
X030115Y007999D01*
X029938Y007926D01*
X029803Y007791D01*
X029730Y007614D01*
X029730Y007423D01*
X029803Y007247D01*
X029938Y007112D01*
X029840Y007210D02*
X029475Y007210D01*
X029475Y007289D02*
X029786Y007289D01*
X029753Y007367D02*
X029475Y007367D01*
X029475Y007446D02*
X029730Y007446D01*
X029730Y007524D02*
X029475Y007524D01*
X029475Y007603D02*
X029730Y007603D01*
X029758Y007681D02*
X029475Y007681D01*
X029475Y007760D02*
X029790Y007760D01*
X029851Y007838D02*
X029475Y007838D01*
X029475Y007917D02*
X029929Y007917D01*
X030106Y007995D02*
X029475Y007995D01*
X029475Y008074D02*
X031931Y008074D01*
X031931Y008153D02*
X029475Y008153D01*
X029475Y008231D02*
X031931Y008231D01*
X031931Y008310D02*
X029475Y008310D01*
X029475Y008388D02*
X031931Y008388D01*
X031931Y008467D02*
X029475Y008467D01*
X029475Y008545D02*
X031931Y008545D01*
X031931Y008624D02*
X029475Y008624D01*
X029475Y008702D02*
X031931Y008702D01*
X031931Y008781D02*
X029475Y008781D01*
X029475Y008859D02*
X030017Y008859D01*
X029938Y008892D02*
X030115Y008819D01*
X030306Y008819D01*
X030482Y008892D01*
X030617Y009027D01*
X030690Y009203D01*
X030690Y009394D01*
X030617Y009571D01*
X030482Y009706D01*
X030306Y009779D01*
X030115Y009779D01*
X029938Y009706D01*
X029803Y009571D01*
X029730Y009394D01*
X029730Y009203D01*
X029803Y009027D01*
X029938Y008892D01*
X029892Y008938D02*
X029475Y008938D01*
X029475Y009016D02*
X029814Y009016D01*
X029775Y009095D02*
X029475Y009095D01*
X029475Y009174D02*
X029742Y009174D01*
X029730Y009252D02*
X029475Y009252D01*
X029475Y009331D02*
X029730Y009331D01*
X029736Y009409D02*
X029475Y009409D01*
X029475Y009488D02*
X029769Y009488D01*
X029801Y009566D02*
X029475Y009566D01*
X029475Y009645D02*
X029877Y009645D01*
X029981Y009723D02*
X029475Y009723D01*
X029475Y009802D02*
X031931Y009802D01*
X031931Y009880D02*
X029475Y009880D01*
X029475Y009959D02*
X031931Y009959D01*
X031931Y010038D02*
X029475Y010038D01*
X029475Y010116D02*
X031931Y010116D01*
X031931Y010195D02*
X029475Y010195D01*
X029475Y010273D02*
X031931Y010273D01*
X031931Y010352D02*
X029475Y010352D01*
X029480Y010430D02*
X030006Y010430D01*
X029938Y010458D02*
X030115Y010385D01*
X030306Y010385D01*
X030482Y010458D01*
X030617Y010593D01*
X030690Y010770D01*
X030690Y010961D01*
X030617Y011137D01*
X030650Y011059D02*
X032331Y011059D01*
X032313Y011015D02*
X032363Y011137D01*
X032442Y011216D02*
X030538Y011216D01*
X030429Y011294D02*
X032551Y011294D01*
X032989Y011294D02*
X035778Y011294D01*
X035778Y011216D02*
X033098Y011216D01*
X033242Y010980D02*
X035778Y010980D01*
X035778Y010902D02*
X033250Y010902D01*
X033250Y010823D02*
X035778Y010823D01*
X035778Y010744D02*
X033240Y010744D01*
X033207Y010666D02*
X035778Y010666D01*
X035778Y010587D02*
X035338Y010587D01*
X035313Y010598D02*
X035147Y010598D01*
X034994Y010534D01*
X034877Y010417D01*
X034813Y010263D01*
X034813Y010097D01*
X034877Y009944D01*
X034994Y009827D01*
X035147Y009763D01*
X035313Y009763D01*
X035467Y009827D01*
X035584Y009944D01*
X035647Y010097D01*
X035647Y010263D01*
X035584Y010417D01*
X035467Y010534D01*
X035313Y010598D01*
X035123Y010587D02*
X033171Y010587D01*
X033092Y010509D02*
X034969Y010509D01*
X034890Y010430D02*
X032974Y010430D01*
X032566Y010430D02*
X032231Y010430D01*
X032231Y010352D02*
X034850Y010352D01*
X034817Y010273D02*
X032231Y010273D01*
X032231Y010195D02*
X034813Y010195D01*
X034813Y010116D02*
X032231Y010116D01*
X032231Y010038D02*
X034838Y010038D01*
X034870Y009959D02*
X032231Y009959D01*
X032231Y009880D02*
X034940Y009880D01*
X035054Y009802D02*
X032231Y009802D01*
X032231Y009723D02*
X032541Y009723D01*
X032498Y009706D02*
X032363Y009571D01*
X032290Y009394D01*
X032290Y009203D01*
X032363Y009027D01*
X032498Y008892D01*
X032675Y008819D01*
X032866Y008819D01*
X033042Y008892D01*
X033177Y009027D01*
X033250Y009203D01*
X033250Y009394D01*
X033177Y009571D01*
X033042Y009706D01*
X032866Y009779D01*
X032675Y009779D01*
X032498Y009706D01*
X032437Y009645D02*
X032231Y009645D01*
X032231Y009566D02*
X032361Y009566D01*
X032329Y009488D02*
X032231Y009488D01*
X032231Y009409D02*
X032296Y009409D01*
X032290Y009331D02*
X032231Y009331D01*
X032231Y009252D02*
X032290Y009252D01*
X032302Y009174D02*
X032231Y009174D01*
X032231Y009095D02*
X032335Y009095D01*
X032374Y009016D02*
X032231Y009016D01*
X032231Y008938D02*
X032452Y008938D01*
X032577Y008859D02*
X032231Y008859D01*
X032231Y008781D02*
X034869Y008781D01*
X034877Y008763D02*
X034813Y008916D01*
X034813Y009082D01*
X034877Y009236D01*
X034994Y009353D01*
X035147Y009416D01*
X035313Y009416D01*
X035467Y009353D01*
X035584Y009236D01*
X035647Y009082D01*
X035647Y008916D01*
X035584Y008763D01*
X035467Y008646D01*
X035313Y008582D01*
X035147Y008582D01*
X034994Y008646D01*
X034877Y008763D01*
X034937Y008702D02*
X032231Y008702D01*
X032231Y008624D02*
X035047Y008624D01*
X034837Y008859D02*
X032964Y008859D01*
X033088Y008938D02*
X034813Y008938D01*
X034813Y009016D02*
X033167Y009016D01*
X033205Y009095D02*
X034818Y009095D01*
X034851Y009174D02*
X033238Y009174D01*
X033250Y009252D02*
X034893Y009252D01*
X034972Y009331D02*
X033250Y009331D01*
X033244Y009409D02*
X035130Y009409D01*
X035331Y009409D02*
X035778Y009409D01*
X035778Y009331D02*
X035489Y009331D01*
X035567Y009252D02*
X035778Y009252D01*
X035778Y009174D02*
X035610Y009174D01*
X035642Y009095D02*
X035778Y009095D01*
X035778Y009016D02*
X035647Y009016D01*
X035647Y008938D02*
X035778Y008938D01*
X035778Y008859D02*
X035624Y008859D01*
X035591Y008781D02*
X035778Y008781D01*
X035778Y008702D02*
X035523Y008702D01*
X035414Y008624D02*
X035778Y008624D01*
X035778Y008545D02*
X032231Y008545D01*
X032231Y008467D02*
X035778Y008467D01*
X035778Y008388D02*
X032231Y008388D01*
X032231Y008310D02*
X035778Y008310D01*
X035778Y008231D02*
X032231Y008231D01*
X032231Y008153D02*
X035778Y008153D01*
X035778Y008074D02*
X032231Y008074D01*
X032231Y007995D02*
X032666Y007995D01*
X032489Y007917D02*
X032231Y007917D01*
X032231Y007838D02*
X032411Y007838D01*
X032350Y007760D02*
X032231Y007760D01*
X032231Y007681D02*
X032318Y007681D01*
X032081Y007519D02*
X032081Y007228D01*
X031687Y006834D01*
X031687Y004866D01*
X032081Y004472D01*
X032081Y004172D01*
X032081Y000826D01*
X032770Y000826D01*
X032325Y001005D02*
X032231Y001005D01*
X032231Y001084D02*
X032357Y001084D01*
X032428Y001162D02*
X032231Y001162D01*
X032231Y001241D02*
X032517Y001241D01*
X032231Y001319D02*
X033666Y001319D01*
X033698Y001241D02*
X033023Y001241D01*
X033113Y001162D02*
X033766Y001162D01*
X033705Y001223D02*
X033950Y000978D01*
X034270Y000846D01*
X034616Y000846D01*
X034936Y000978D01*
X035180Y001223D01*
X035313Y001543D01*
X035313Y001889D01*
X035180Y002209D01*
X034936Y002453D01*
X034616Y002586D01*
X034270Y002586D01*
X033950Y002453D01*
X033705Y002209D01*
X033573Y001889D01*
X033573Y001543D01*
X033705Y001223D01*
X033633Y001398D02*
X032231Y001398D01*
X032231Y001476D02*
X033600Y001476D01*
X033573Y001555D02*
X032231Y001555D01*
X032231Y001633D02*
X033573Y001633D01*
X033573Y001712D02*
X032231Y001712D01*
X032231Y001791D02*
X033573Y001791D01*
X033573Y001869D02*
X032231Y001869D01*
X032231Y001948D02*
X033597Y001948D01*
X033630Y002026D02*
X032231Y002026D01*
X032231Y002105D02*
X033662Y002105D01*
X033695Y002183D02*
X033004Y002183D01*
X033042Y002199D02*
X033177Y002334D01*
X033250Y002510D01*
X033250Y002701D01*
X033177Y002878D01*
X033042Y003013D01*
X032866Y003086D01*
X032675Y003086D01*
X032498Y003013D01*
X032363Y002878D01*
X032290Y002701D01*
X032290Y002510D01*
X032363Y002334D01*
X032498Y002199D01*
X032675Y002126D01*
X032866Y002126D01*
X033042Y002199D01*
X033105Y002262D02*
X033758Y002262D01*
X033837Y002340D02*
X033180Y002340D01*
X033212Y002419D02*
X033916Y002419D01*
X034056Y002497D02*
X033245Y002497D01*
X033250Y002576D02*
X034246Y002576D01*
X034640Y002576D02*
X035778Y002576D01*
X035778Y002654D02*
X033250Y002654D01*
X033237Y002733D02*
X035778Y002733D01*
X035778Y002812D02*
X033204Y002812D01*
X033165Y002890D02*
X035778Y002890D01*
X035778Y002969D02*
X033086Y002969D01*
X032959Y003047D02*
X035778Y003047D01*
X035778Y003126D02*
X032231Y003126D01*
X032231Y003204D02*
X035778Y003204D01*
X035778Y003283D02*
X032231Y003283D01*
X032231Y003361D02*
X035778Y003361D01*
X035778Y003440D02*
X032231Y003440D01*
X032231Y003518D02*
X035778Y003518D01*
X035778Y003597D02*
X032231Y003597D01*
X032231Y003676D02*
X035778Y003676D01*
X035778Y003754D02*
X033015Y003754D01*
X033109Y003833D02*
X035778Y003833D01*
X035778Y003911D02*
X033181Y003911D01*
X033214Y003990D02*
X035778Y003990D01*
X035778Y004068D02*
X033246Y004068D01*
X033250Y004147D02*
X035778Y004147D01*
X035778Y004225D02*
X033250Y004225D01*
X033235Y004304D02*
X035778Y004304D01*
X035778Y004382D02*
X033203Y004382D01*
X033160Y004461D02*
X035778Y004461D01*
X035778Y004540D02*
X033082Y004540D01*
X032948Y004618D02*
X035778Y004618D01*
X035778Y004697D02*
X032068Y004697D01*
X031989Y004775D02*
X035778Y004775D01*
X035778Y004854D02*
X031911Y004854D01*
X031837Y004932D02*
X035778Y004932D01*
X035778Y005011D02*
X031837Y005011D01*
X031837Y005089D02*
X035778Y005089D01*
X035778Y005168D02*
X031837Y005168D01*
X031837Y005246D02*
X031965Y005246D01*
X031985Y005226D02*
X032176Y005226D01*
X032311Y005361D01*
X032311Y005551D01*
X032231Y005631D01*
X032231Y006378D01*
X032536Y006684D01*
X034774Y006684D01*
X034899Y006684D01*
X035016Y006801D01*
X035129Y006801D01*
X035263Y006936D01*
X035263Y007126D01*
X035129Y007261D01*
X034938Y007261D01*
X034803Y007126D01*
X034803Y007013D01*
X034774Y006984D01*
X032412Y006984D01*
X032324Y006896D01*
X031961Y006896D01*
X032039Y006974D02*
X032403Y006974D01*
X032324Y006896D02*
X031931Y006502D01*
X031931Y006378D01*
X031931Y005631D01*
X031851Y005551D01*
X031851Y005361D01*
X031985Y005226D01*
X031886Y005325D02*
X031837Y005325D01*
X031837Y005404D02*
X031851Y005404D01*
X031851Y005482D02*
X031837Y005482D01*
X031837Y005561D02*
X031860Y005561D01*
X031837Y005639D02*
X031931Y005639D01*
X031931Y005718D02*
X031837Y005718D01*
X031837Y005796D02*
X031931Y005796D01*
X031931Y005875D02*
X031837Y005875D01*
X031837Y005953D02*
X031931Y005953D01*
X031931Y006032D02*
X031837Y006032D01*
X031837Y006110D02*
X031931Y006110D01*
X031931Y006189D02*
X031837Y006189D01*
X031837Y006267D02*
X031931Y006267D01*
X031931Y006346D02*
X031837Y006346D01*
X031837Y006425D02*
X031931Y006425D01*
X031931Y006503D02*
X031837Y006503D01*
X031837Y006582D02*
X032010Y006582D01*
X032088Y006660D02*
X031837Y006660D01*
X031837Y006739D02*
X032167Y006739D01*
X032245Y006817D02*
X031882Y006817D01*
X031694Y007053D02*
X030340Y007053D01*
X030502Y007131D02*
X031772Y007131D01*
X031851Y007210D02*
X030580Y007210D01*
X030634Y007289D02*
X031929Y007289D01*
X031931Y007290D02*
X031625Y006984D01*
X031931Y007290D02*
X031931Y007581D01*
X031931Y010927D01*
X032018Y011015D01*
X032143Y011015D01*
X032313Y011015D01*
X032081Y010865D02*
X032081Y007519D01*
X032770Y007519D01*
X033129Y007838D02*
X035778Y007838D01*
X035778Y007760D02*
X033190Y007760D01*
X033222Y007681D02*
X035778Y007681D01*
X035778Y007603D02*
X033250Y007603D01*
X033250Y007524D02*
X035778Y007524D01*
X035778Y007446D02*
X033250Y007446D01*
X033227Y007367D02*
X035778Y007367D01*
X035778Y007289D02*
X033194Y007289D01*
X033140Y007210D02*
X034887Y007210D01*
X034809Y007131D02*
X033062Y007131D01*
X032900Y007053D02*
X034803Y007053D01*
X034837Y006834D02*
X035033Y007031D01*
X035179Y007210D02*
X035778Y007210D01*
X035778Y007131D02*
X035258Y007131D01*
X035263Y007053D02*
X035778Y007053D01*
X035778Y006974D02*
X035263Y006974D01*
X035224Y006896D02*
X035778Y006896D01*
X035778Y006817D02*
X035145Y006817D01*
X034953Y006739D02*
X035778Y006739D01*
X035778Y006660D02*
X032513Y006660D01*
X032434Y006582D02*
X035778Y006582D01*
X035778Y006503D02*
X032356Y006503D01*
X032277Y006425D02*
X032656Y006425D01*
X032675Y006432D02*
X032498Y006359D01*
X032363Y006224D01*
X032290Y006048D01*
X032290Y005857D01*
X032363Y005680D01*
X032498Y005545D01*
X032675Y005472D01*
X032866Y005472D01*
X033042Y005545D01*
X033177Y005680D01*
X033250Y005857D01*
X033250Y006048D01*
X033177Y006224D01*
X033042Y006359D01*
X032866Y006432D01*
X032675Y006432D01*
X032485Y006346D02*
X032231Y006346D01*
X032231Y006267D02*
X032406Y006267D01*
X032349Y006189D02*
X032231Y006189D01*
X032231Y006110D02*
X032316Y006110D01*
X032290Y006032D02*
X032231Y006032D01*
X032231Y005953D02*
X032290Y005953D01*
X032290Y005875D02*
X032231Y005875D01*
X032231Y005796D02*
X032315Y005796D01*
X032348Y005718D02*
X032231Y005718D01*
X032231Y005639D02*
X032404Y005639D01*
X032483Y005561D02*
X032301Y005561D01*
X032311Y005482D02*
X032651Y005482D01*
X032889Y005482D02*
X035778Y005482D01*
X035778Y005404D02*
X032311Y005404D01*
X032275Y005325D02*
X035778Y005325D01*
X035778Y005246D02*
X032196Y005246D01*
X032081Y005456D02*
X032081Y006440D01*
X032474Y006834D01*
X034837Y006834D01*
X035778Y006425D02*
X032884Y006425D01*
X033055Y006346D02*
X035778Y006346D01*
X035778Y006267D02*
X033134Y006267D01*
X033192Y006189D02*
X035778Y006189D01*
X035778Y006110D02*
X033224Y006110D01*
X033250Y006032D02*
X035778Y006032D01*
X035778Y005953D02*
X033250Y005953D01*
X033250Y005875D02*
X035778Y005875D01*
X035778Y005796D02*
X033225Y005796D01*
X033192Y005718D02*
X035778Y005718D01*
X035778Y005639D02*
X033136Y005639D01*
X033057Y005561D02*
X035778Y005561D01*
X032770Y004172D02*
X032081Y004172D01*
X032231Y003990D02*
X032326Y003990D01*
X032359Y003911D02*
X032231Y003911D01*
X032231Y003833D02*
X032431Y003833D01*
X032526Y003754D02*
X032231Y003754D01*
X031931Y003597D02*
X029475Y003597D01*
X029475Y003518D02*
X031931Y003518D01*
X031931Y003440D02*
X029475Y003440D01*
X029475Y003361D02*
X031931Y003361D01*
X031931Y003283D02*
X029475Y003283D01*
X029475Y003204D02*
X031931Y003204D01*
X031931Y003126D02*
X029475Y003126D01*
X029475Y003047D02*
X030021Y003047D01*
X029938Y003013D02*
X029803Y002878D01*
X029730Y002701D01*
X029730Y002510D01*
X029803Y002334D01*
X029938Y002199D01*
X030115Y002126D01*
X030306Y002126D01*
X030482Y002199D01*
X030617Y002334D01*
X030690Y002510D01*
X030690Y002701D01*
X030617Y002878D01*
X030482Y003013D01*
X030306Y003086D01*
X030115Y003086D01*
X029938Y003013D01*
X029894Y002969D02*
X029475Y002969D01*
X029475Y002890D02*
X029815Y002890D01*
X029776Y002812D02*
X029475Y002812D01*
X029475Y002733D02*
X029743Y002733D01*
X029730Y002654D02*
X029475Y002654D01*
X029475Y002576D02*
X029730Y002576D01*
X029735Y002497D02*
X029475Y002497D01*
X029475Y002419D02*
X029768Y002419D01*
X029801Y002340D02*
X029475Y002340D01*
X029475Y002262D02*
X029875Y002262D01*
X029976Y002183D02*
X029475Y002183D01*
X029475Y002105D02*
X031931Y002105D01*
X031931Y002183D02*
X030444Y002183D01*
X030545Y002262D02*
X031931Y002262D01*
X031931Y002340D02*
X030620Y002340D01*
X030652Y002419D02*
X031931Y002419D01*
X031931Y002497D02*
X030685Y002497D01*
X030690Y002576D02*
X031931Y002576D01*
X031931Y002654D02*
X030690Y002654D01*
X030677Y002733D02*
X031931Y002733D01*
X031931Y002812D02*
X030644Y002812D01*
X030605Y002890D02*
X031931Y002890D01*
X031931Y002969D02*
X030526Y002969D01*
X030399Y003047D02*
X031931Y003047D01*
X032231Y003047D02*
X032581Y003047D01*
X032454Y002969D02*
X032231Y002969D01*
X032231Y002890D02*
X032375Y002890D01*
X032336Y002812D02*
X032231Y002812D01*
X032231Y002733D02*
X032303Y002733D01*
X032290Y002654D02*
X032231Y002654D01*
X032231Y002576D02*
X032290Y002576D01*
X032295Y002497D02*
X032231Y002497D01*
X032231Y002419D02*
X032328Y002419D01*
X032361Y002340D02*
X032231Y002340D01*
X032231Y002262D02*
X032435Y002262D01*
X032536Y002183D02*
X032231Y002183D01*
X031931Y002026D02*
X029475Y002026D01*
X029475Y001948D02*
X031931Y001948D01*
X031931Y001869D02*
X029475Y001869D01*
X029475Y001791D02*
X031931Y001791D01*
X031931Y001712D02*
X029475Y001712D01*
X029475Y001633D02*
X031931Y001633D01*
X031931Y001555D02*
X029475Y001555D01*
X029475Y001476D02*
X031931Y001476D01*
X031931Y001398D02*
X029475Y001398D01*
X029475Y001319D02*
X031931Y001319D01*
X031931Y001241D02*
X030463Y001241D01*
X030553Y001162D02*
X031931Y001162D01*
X031931Y001084D02*
X030623Y001084D01*
X030655Y001005D02*
X031931Y001005D01*
X031931Y000927D02*
X030688Y000927D01*
X030690Y000848D02*
X031931Y000848D01*
X031931Y000769D02*
X030690Y000769D01*
X030674Y000691D02*
X032003Y000691D01*
X032339Y000612D02*
X030641Y000612D01*
X030597Y000534D02*
X032383Y000534D01*
X032462Y000455D02*
X030518Y000455D01*
X029902Y000455D02*
X029141Y000455D01*
X029220Y000534D02*
X029823Y000534D01*
X029779Y000612D02*
X029264Y000612D01*
X029297Y000691D02*
X029746Y000691D01*
X029730Y000769D02*
X029313Y000769D01*
X029313Y000848D02*
X029730Y000848D01*
X029732Y000927D02*
X029311Y000927D01*
X029297Y001005D02*
X029765Y001005D01*
X029797Y001084D02*
X029401Y001084D01*
X029475Y001162D02*
X029868Y001162D01*
X029957Y001241D02*
X029478Y001241D01*
X029325Y001220D02*
X029325Y004172D01*
X028833Y004172D01*
X028494Y003833D02*
X026612Y003833D01*
X026545Y003765D02*
X026680Y003900D01*
X026753Y004077D01*
X026753Y004268D01*
X026680Y004444D01*
X026545Y004579D01*
X026369Y004652D01*
X026178Y004652D01*
X026001Y004579D01*
X025866Y004444D01*
X025793Y004268D01*
X025793Y004077D01*
X025866Y003900D01*
X026001Y003765D01*
X026178Y003692D01*
X026369Y003692D01*
X026545Y003765D01*
X026518Y003754D02*
X028589Y003754D01*
X028422Y003911D02*
X026684Y003911D01*
X026717Y003990D02*
X028389Y003990D01*
X028357Y004068D02*
X026749Y004068D01*
X026753Y004147D02*
X028353Y004147D01*
X028353Y004225D02*
X026753Y004225D01*
X026738Y004304D02*
X028368Y004304D01*
X028401Y004382D02*
X026706Y004382D01*
X026663Y004461D02*
X028443Y004461D01*
X028521Y004540D02*
X026585Y004540D01*
X026451Y004618D02*
X028655Y004618D01*
X029325Y004172D02*
X029325Y007519D01*
X029325Y010472D01*
X028833Y010865D01*
X029273Y011059D02*
X029771Y011059D01*
X029803Y011137D02*
X029730Y010961D01*
X029730Y010770D01*
X029803Y010593D01*
X029938Y010458D01*
X029888Y010509D02*
X029475Y010509D01*
X029421Y010587D02*
X029809Y010587D01*
X029773Y010666D02*
X029322Y010666D01*
X029303Y010744D02*
X029741Y010744D01*
X029730Y010823D02*
X029313Y010823D01*
X029313Y010902D02*
X029730Y010902D01*
X029738Y010980D02*
X029305Y010980D01*
X029136Y010430D02*
X029037Y010430D01*
X029175Y010352D02*
X025538Y010352D01*
X025543Y010430D02*
X026069Y010430D01*
X025951Y010509D02*
X025538Y010509D01*
X025484Y010587D02*
X025872Y010587D01*
X025836Y010666D02*
X025385Y010666D01*
X025366Y010744D02*
X025804Y010744D01*
X025793Y010823D02*
X025376Y010823D01*
X025376Y010902D02*
X025793Y010902D01*
X025801Y010980D02*
X025368Y010980D01*
X025224Y011216D02*
X025945Y011216D01*
X026054Y011294D02*
X025115Y011294D01*
X024896Y010865D02*
X025388Y010472D01*
X025388Y007519D01*
X024896Y007519D01*
X024444Y007681D02*
X022788Y007681D01*
X022816Y007603D02*
X024416Y007603D01*
X024416Y007524D02*
X022816Y007524D01*
X022816Y007446D02*
X024416Y007446D01*
X024439Y007367D02*
X022793Y007367D01*
X022760Y007289D02*
X024472Y007289D01*
X024526Y007210D02*
X022706Y007210D01*
X022628Y007131D02*
X024605Y007131D01*
X024766Y007053D02*
X022466Y007053D01*
X022206Y007053D02*
X021601Y007053D01*
X021601Y006974D02*
X025238Y006974D01*
X025238Y006896D02*
X021601Y006896D01*
X021601Y006817D02*
X025238Y006817D01*
X025238Y006739D02*
X021601Y006739D01*
X021601Y006660D02*
X025238Y006660D01*
X025238Y006582D02*
X021601Y006582D01*
X021601Y006503D02*
X025238Y006503D01*
X025238Y006425D02*
X025010Y006425D01*
X025181Y006346D02*
X025238Y006346D01*
X025538Y006346D02*
X025988Y006346D01*
X025909Y006267D02*
X025538Y006267D01*
X025538Y006189D02*
X025852Y006189D01*
X025819Y006110D02*
X025538Y006110D01*
X025538Y006032D02*
X025793Y006032D01*
X025793Y005953D02*
X025538Y005953D01*
X025538Y005875D02*
X025793Y005875D01*
X025818Y005796D02*
X025538Y005796D01*
X025538Y005718D02*
X025851Y005718D01*
X025907Y005639D02*
X025538Y005639D01*
X025538Y005561D02*
X025986Y005561D01*
X026154Y005482D02*
X025538Y005482D01*
X025238Y005482D02*
X025015Y005482D01*
X025183Y005561D02*
X025238Y005561D01*
X025238Y005404D02*
X021601Y005404D01*
X021601Y005482D02*
X022217Y005482D01*
X022241Y005472D02*
X022432Y005472D01*
X022608Y005545D01*
X022743Y005680D01*
X022816Y005857D01*
X022816Y006048D01*
X022743Y006224D01*
X022608Y006359D01*
X022432Y006432D01*
X022241Y006432D01*
X022064Y006359D01*
X021929Y006224D01*
X021856Y006048D01*
X021856Y005857D01*
X021929Y005680D01*
X022064Y005545D01*
X022241Y005472D01*
X022049Y005561D02*
X021601Y005561D01*
X021601Y005639D02*
X021970Y005639D01*
X021914Y005718D02*
X021601Y005718D01*
X021601Y005796D02*
X021881Y005796D01*
X021856Y005875D02*
X021601Y005875D01*
X021601Y005953D02*
X021856Y005953D01*
X021856Y006032D02*
X021601Y006032D01*
X021601Y006110D02*
X021882Y006110D01*
X021915Y006189D02*
X021601Y006189D01*
X021601Y006267D02*
X021972Y006267D01*
X022051Y006346D02*
X021601Y006346D01*
X021601Y006425D02*
X022222Y006425D01*
X022450Y006425D02*
X024782Y006425D01*
X024611Y006346D02*
X022621Y006346D01*
X022700Y006267D02*
X024532Y006267D01*
X024475Y006189D02*
X022758Y006189D01*
X022790Y006110D02*
X024442Y006110D01*
X024416Y006032D02*
X022816Y006032D01*
X022816Y005953D02*
X024416Y005953D01*
X024416Y005875D02*
X022816Y005875D01*
X022791Y005796D02*
X024441Y005796D01*
X024474Y005718D02*
X022758Y005718D01*
X022702Y005639D02*
X024530Y005639D01*
X024609Y005561D02*
X022623Y005561D01*
X022455Y005482D02*
X024777Y005482D01*
X025238Y005325D02*
X021601Y005325D01*
X021601Y005246D02*
X025238Y005246D01*
X025238Y005168D02*
X021601Y005168D01*
X021601Y005089D02*
X025238Y005089D01*
X025238Y005011D02*
X021601Y005011D01*
X021601Y004932D02*
X025238Y004932D01*
X025238Y004854D02*
X021601Y004854D01*
X021601Y004775D02*
X025238Y004775D01*
X025238Y004697D02*
X021601Y004697D01*
X021601Y004618D02*
X022158Y004618D01*
X022241Y004652D02*
X022064Y004579D01*
X021929Y004444D01*
X021856Y004268D01*
X021856Y004077D01*
X021929Y003900D01*
X022064Y003765D01*
X022241Y003692D01*
X022432Y003692D01*
X022608Y003765D01*
X022743Y003900D01*
X022816Y004077D01*
X022816Y004268D01*
X022743Y004444D01*
X022608Y004579D01*
X022432Y004652D01*
X022241Y004652D01*
X022024Y004540D02*
X021601Y004540D01*
X021601Y004461D02*
X021946Y004461D01*
X021904Y004382D02*
X021601Y004382D01*
X021601Y004304D02*
X021871Y004304D01*
X021856Y004225D02*
X021601Y004225D01*
X021601Y004147D02*
X021856Y004147D01*
X021860Y004068D02*
X021601Y004068D01*
X021601Y003990D02*
X021892Y003990D01*
X021925Y003911D02*
X021601Y003911D01*
X021601Y003833D02*
X021997Y003833D01*
X022091Y003754D02*
X021601Y003754D01*
X021601Y003676D02*
X025238Y003676D01*
X025238Y003754D02*
X025141Y003754D01*
X025235Y003833D02*
X025238Y003833D01*
X025538Y003833D02*
X025934Y003833D01*
X025862Y003911D02*
X025538Y003911D01*
X025538Y003990D02*
X025829Y003990D01*
X025797Y004068D02*
X025538Y004068D01*
X025538Y004147D02*
X025793Y004147D01*
X025793Y004225D02*
X025538Y004225D01*
X025538Y004304D02*
X025808Y004304D01*
X025841Y004382D02*
X025538Y004382D01*
X025538Y004461D02*
X025883Y004461D01*
X025961Y004540D02*
X025538Y004540D01*
X025538Y004618D02*
X026095Y004618D01*
X025388Y004172D02*
X025388Y001220D01*
X024896Y000826D01*
X024451Y001005D02*
X022781Y001005D01*
X022749Y001084D02*
X024483Y001084D01*
X024554Y001162D02*
X022679Y001162D01*
X022589Y001241D02*
X024643Y001241D01*
X024418Y000927D02*
X022814Y000927D01*
X022816Y000848D02*
X024416Y000848D01*
X024416Y000769D02*
X022816Y000769D01*
X022800Y000691D02*
X024432Y000691D01*
X024465Y000612D02*
X022767Y000612D01*
X022723Y000534D02*
X024509Y000534D01*
X024588Y000455D02*
X022644Y000455D01*
X022028Y000455D02*
X021267Y000455D01*
X021346Y000534D02*
X021949Y000534D01*
X021905Y000612D02*
X021390Y000612D01*
X021423Y000691D02*
X021872Y000691D01*
X021856Y000769D02*
X021439Y000769D01*
X021439Y000848D02*
X021856Y000848D01*
X021858Y000927D02*
X021437Y000927D01*
X021423Y001005D02*
X021891Y001005D01*
X021923Y001084D02*
X021527Y001084D01*
X021601Y001162D02*
X021994Y001162D01*
X022083Y001241D02*
X021604Y001241D01*
X021601Y001319D02*
X025238Y001319D01*
X025238Y001398D02*
X021601Y001398D01*
X021601Y001476D02*
X025238Y001476D01*
X025238Y001555D02*
X021601Y001555D01*
X021601Y001633D02*
X025238Y001633D01*
X025238Y001712D02*
X021601Y001712D01*
X021601Y001791D02*
X025238Y001791D01*
X025238Y001869D02*
X021601Y001869D01*
X021601Y001948D02*
X025238Y001948D01*
X025238Y002026D02*
X021601Y002026D01*
X021601Y002105D02*
X025238Y002105D01*
X025238Y002183D02*
X025130Y002183D01*
X025231Y002262D02*
X025238Y002262D01*
X025538Y002262D02*
X025938Y002262D01*
X026001Y002199D02*
X026178Y002126D01*
X026369Y002126D01*
X026545Y002199D01*
X026680Y002334D01*
X026753Y002510D01*
X026753Y002701D01*
X026680Y002878D01*
X026545Y003013D01*
X026369Y003086D01*
X026178Y003086D01*
X026001Y003013D01*
X025866Y002878D01*
X025793Y002701D01*
X025793Y002510D01*
X025866Y002334D01*
X026001Y002199D01*
X026039Y002183D02*
X025538Y002183D01*
X025538Y002105D02*
X029175Y002105D01*
X029175Y002183D02*
X029067Y002183D01*
X029168Y002262D02*
X029175Y002262D01*
X029175Y002026D02*
X025538Y002026D01*
X025538Y001948D02*
X029175Y001948D01*
X029175Y001869D02*
X025538Y001869D01*
X025538Y001791D02*
X029175Y001791D01*
X029175Y001712D02*
X025538Y001712D01*
X025538Y001633D02*
X029175Y001633D01*
X029175Y001555D02*
X025538Y001555D01*
X025538Y001476D02*
X029175Y001476D01*
X029175Y001398D02*
X025538Y001398D01*
X025538Y001319D02*
X029175Y001319D01*
X029111Y001241D02*
X029086Y001241D01*
X029325Y001220D02*
X028833Y000826D01*
X028525Y000455D02*
X026581Y000455D01*
X026660Y000534D02*
X028446Y000534D01*
X028402Y000612D02*
X026704Y000612D01*
X026737Y000691D02*
X028369Y000691D01*
X028353Y000769D02*
X026753Y000769D01*
X026753Y000848D02*
X028353Y000848D01*
X028355Y000927D02*
X026751Y000927D01*
X026718Y001005D02*
X028388Y001005D01*
X028420Y001084D02*
X026686Y001084D01*
X026616Y001162D02*
X028491Y001162D01*
X028580Y001241D02*
X026526Y001241D01*
X026020Y001241D02*
X025541Y001241D01*
X025538Y001162D02*
X025931Y001162D01*
X025860Y001084D02*
X025464Y001084D01*
X025360Y001005D02*
X025828Y001005D01*
X025795Y000927D02*
X025374Y000927D01*
X025376Y000848D02*
X025793Y000848D01*
X025793Y000769D02*
X025376Y000769D01*
X025360Y000691D02*
X025809Y000691D01*
X025842Y000612D02*
X025327Y000612D01*
X025283Y000534D02*
X025886Y000534D01*
X025965Y000455D02*
X025204Y000455D01*
X025174Y001241D02*
X025149Y001241D01*
X024662Y002183D02*
X022570Y002183D01*
X022608Y002199D02*
X022743Y002334D01*
X022816Y002510D01*
X022816Y002701D01*
X022743Y002878D01*
X022608Y003013D01*
X022432Y003086D01*
X022241Y003086D01*
X022064Y003013D01*
X021929Y002878D01*
X021856Y002701D01*
X021856Y002510D01*
X021929Y002334D01*
X022064Y002199D01*
X022241Y002126D01*
X022432Y002126D01*
X022608Y002199D01*
X022671Y002262D02*
X024561Y002262D01*
X024486Y002340D02*
X022746Y002340D01*
X022778Y002419D02*
X024454Y002419D01*
X024421Y002497D02*
X022811Y002497D01*
X022816Y002576D02*
X024416Y002576D01*
X024416Y002654D02*
X022816Y002654D01*
X022803Y002733D02*
X024429Y002733D01*
X024462Y002812D02*
X022770Y002812D01*
X022731Y002890D02*
X024501Y002890D01*
X024580Y002969D02*
X022652Y002969D01*
X022525Y003047D02*
X024707Y003047D01*
X025085Y003047D02*
X025238Y003047D01*
X025238Y002969D02*
X025212Y002969D01*
X025238Y003126D02*
X021601Y003126D01*
X021601Y003204D02*
X025238Y003204D01*
X025238Y003283D02*
X021601Y003283D01*
X021601Y003361D02*
X025238Y003361D01*
X025238Y003440D02*
X021601Y003440D01*
X021601Y003518D02*
X025238Y003518D01*
X025238Y003597D02*
X021601Y003597D01*
X021301Y003597D02*
X002900Y003597D01*
X002900Y003518D02*
X021301Y003518D01*
X021301Y003440D02*
X012938Y003440D01*
X012937Y003441D02*
X012813Y003441D01*
X009381Y003441D01*
X009293Y003353D01*
X009067Y003127D01*
X008954Y003127D01*
X008819Y002992D01*
X008819Y002802D01*
X008954Y002667D01*
X009144Y002667D01*
X009279Y002802D01*
X009279Y002915D01*
X009505Y003141D01*
X012813Y003141D01*
X012915Y003039D01*
X012915Y002926D01*
X013049Y002791D01*
X013240Y002791D01*
X013375Y002926D01*
X013375Y003116D01*
X013240Y003251D01*
X013127Y003251D01*
X012937Y003441D01*
X013016Y003361D02*
X021301Y003361D01*
X021301Y003283D02*
X013095Y003283D01*
X013287Y003204D02*
X021301Y003204D01*
X021301Y003126D02*
X013365Y003126D01*
X013375Y003047D02*
X018210Y003047D01*
X018127Y003013D02*
X017992Y002878D01*
X017919Y002701D01*
X017919Y002510D01*
X017992Y002334D01*
X018127Y002199D01*
X018291Y002131D01*
X018007Y002131D01*
X017855Y002283D01*
X017855Y002396D01*
X017720Y002531D01*
X017529Y002531D01*
X017395Y002396D01*
X017395Y002206D01*
X017529Y002071D01*
X017642Y002071D01*
X017795Y001919D01*
X017882Y001831D01*
X019289Y001831D01*
X019369Y001751D01*
X019560Y001751D01*
X019695Y001886D01*
X019695Y002076D01*
X019560Y002211D01*
X019369Y002211D01*
X019289Y002131D01*
X018507Y002131D01*
X018671Y002199D01*
X018806Y002334D01*
X018879Y002510D01*
X018879Y002701D01*
X018806Y002878D01*
X018671Y003013D01*
X018495Y003086D01*
X018304Y003086D01*
X018127Y003013D01*
X018083Y002969D02*
X013375Y002969D01*
X013339Y002890D02*
X018004Y002890D01*
X017965Y002812D02*
X013260Y002812D01*
X013029Y002812D02*
X012846Y002812D01*
X012808Y002850D02*
X012683Y002850D01*
X011390Y002850D01*
X011310Y002930D01*
X011119Y002930D01*
X010984Y002795D01*
X010984Y002605D01*
X011119Y002470D01*
X011310Y002470D01*
X011390Y002550D01*
X012683Y002550D01*
X012995Y002239D01*
X012995Y002126D01*
X013129Y001991D01*
X013320Y001991D01*
X013455Y002126D01*
X013455Y002316D01*
X013320Y002451D01*
X013207Y002451D01*
X012808Y002850D01*
X012950Y002890D02*
X011350Y002890D01*
X011214Y002700D02*
X012746Y002700D01*
X013225Y002221D01*
X013455Y002183D02*
X017417Y002183D01*
X017395Y002262D02*
X013455Y002262D01*
X013431Y002340D02*
X017395Y002340D01*
X017417Y002419D02*
X013352Y002419D01*
X013160Y002497D02*
X017496Y002497D01*
X017625Y002301D02*
X017945Y001981D01*
X019465Y001981D01*
X019695Y001948D02*
X021301Y001948D01*
X021301Y002026D02*
X019695Y002026D01*
X019666Y002105D02*
X021301Y002105D01*
X021301Y002183D02*
X021193Y002183D01*
X021294Y002262D02*
X021301Y002262D01*
X021601Y002262D02*
X022001Y002262D01*
X021926Y002340D02*
X021601Y002340D01*
X021601Y002419D02*
X021894Y002419D01*
X021861Y002497D02*
X021601Y002497D01*
X021601Y002576D02*
X021856Y002576D01*
X021856Y002654D02*
X021601Y002654D01*
X021601Y002733D02*
X021869Y002733D01*
X021902Y002812D02*
X021601Y002812D01*
X021601Y002890D02*
X021941Y002890D01*
X022020Y002969D02*
X021601Y002969D01*
X021601Y003047D02*
X022147Y003047D01*
X021301Y003047D02*
X021148Y003047D01*
X021275Y002969D02*
X021301Y002969D01*
X020770Y003047D02*
X018588Y003047D01*
X018715Y002969D02*
X020643Y002969D01*
X020564Y002890D02*
X018794Y002890D01*
X018833Y002812D02*
X020525Y002812D01*
X020492Y002733D02*
X018866Y002733D01*
X018879Y002654D02*
X020479Y002654D01*
X020479Y002576D02*
X018879Y002576D01*
X018874Y002497D02*
X020484Y002497D01*
X020517Y002419D02*
X018841Y002419D01*
X018809Y002340D02*
X020549Y002340D01*
X020624Y002262D02*
X018734Y002262D01*
X018633Y002183D02*
X019341Y002183D01*
X019588Y002183D02*
X020725Y002183D01*
X021301Y001869D02*
X019678Y001869D01*
X019599Y001791D02*
X021301Y001791D01*
X021301Y001712D02*
X013585Y001712D01*
X013585Y001791D02*
X019330Y001791D01*
X018742Y001162D02*
X020616Y001162D01*
X020546Y001084D02*
X018812Y001084D01*
X018844Y001005D02*
X020514Y001005D01*
X020481Y000927D02*
X018877Y000927D01*
X018879Y000848D02*
X020479Y000848D01*
X020479Y000769D02*
X018879Y000769D01*
X018863Y000691D02*
X020495Y000691D01*
X020528Y000612D02*
X018830Y000612D01*
X018786Y000534D02*
X020572Y000534D01*
X020651Y000455D02*
X018707Y000455D01*
X018091Y000455D02*
X012480Y000455D01*
X012480Y000534D02*
X018012Y000534D01*
X017968Y000612D02*
X012480Y000612D01*
X012480Y000691D02*
X017935Y000691D01*
X017919Y000769D02*
X012480Y000769D01*
X012480Y000848D02*
X017919Y000848D01*
X017921Y000927D02*
X012480Y000927D01*
X012480Y001005D02*
X017954Y001005D01*
X017986Y001084D02*
X010742Y001084D01*
X010774Y001005D02*
X010929Y001005D01*
X010929Y000927D02*
X010807Y000927D01*
X010809Y000848D02*
X010929Y000848D01*
X010929Y000769D02*
X010809Y000769D01*
X010793Y000691D02*
X010929Y000691D01*
X010929Y000612D02*
X010760Y000612D01*
X010716Y000534D02*
X010929Y000534D01*
X010929Y000455D02*
X010637Y000455D01*
X010021Y000455D02*
X008077Y000455D01*
X008156Y000534D02*
X009942Y000534D01*
X009898Y000612D02*
X008200Y000612D01*
X008233Y000691D02*
X009865Y000691D01*
X009849Y000769D02*
X008249Y000769D01*
X008249Y000848D02*
X009849Y000848D01*
X009851Y000927D02*
X008247Y000927D01*
X008214Y001005D02*
X009884Y001005D01*
X009916Y001084D02*
X008182Y001084D01*
X008112Y001162D02*
X009987Y001162D01*
X010076Y001241D02*
X008022Y001241D01*
X007516Y001241D02*
X006645Y001241D01*
X006735Y001162D02*
X007427Y001162D01*
X007356Y001084D02*
X006805Y001084D01*
X006837Y001005D02*
X007324Y001005D01*
X007291Y000927D02*
X006870Y000927D01*
X006872Y000848D02*
X007289Y000848D01*
X007289Y000769D02*
X006872Y000769D01*
X006856Y000691D02*
X007305Y000691D01*
X007338Y000612D02*
X006823Y000612D01*
X006779Y000534D02*
X007382Y000534D01*
X007461Y000455D02*
X006700Y000455D01*
X006084Y000455D02*
X004140Y000455D01*
X004219Y000534D02*
X006005Y000534D01*
X005961Y000612D02*
X004263Y000612D01*
X004296Y000691D02*
X005928Y000691D01*
X005912Y000769D02*
X004312Y000769D01*
X004312Y000848D02*
X005912Y000848D01*
X005914Y000927D02*
X004310Y000927D01*
X004277Y001005D02*
X005947Y001005D01*
X005979Y001084D02*
X004245Y001084D01*
X004175Y001162D02*
X006050Y001162D01*
X006139Y001241D02*
X004085Y001241D01*
X003579Y001241D02*
X002904Y001241D01*
X002937Y001319D02*
X021301Y001319D01*
X021301Y001398D02*
X002969Y001398D01*
X003002Y001476D02*
X021301Y001476D01*
X021301Y001555D02*
X013519Y001555D01*
X013585Y001633D02*
X021301Y001633D01*
X021237Y001241D02*
X021212Y001241D01*
X021451Y001220D02*
X021451Y004172D01*
X020959Y004172D01*
X020620Y003833D02*
X018738Y003833D01*
X018671Y003765D02*
X018806Y003900D01*
X018879Y004077D01*
X018879Y004268D01*
X018806Y004444D01*
X018671Y004579D01*
X018495Y004652D01*
X018304Y004652D01*
X018127Y004579D01*
X017992Y004444D01*
X017919Y004268D01*
X017919Y004077D01*
X017992Y003900D01*
X018127Y003765D01*
X018304Y003692D01*
X018495Y003692D01*
X018671Y003765D01*
X018644Y003754D02*
X020714Y003754D01*
X020548Y003911D02*
X018810Y003911D01*
X018843Y003990D02*
X020515Y003990D01*
X020483Y004068D02*
X018875Y004068D01*
X018879Y004147D02*
X020479Y004147D01*
X020479Y004225D02*
X018879Y004225D01*
X018864Y004304D02*
X020494Y004304D01*
X020527Y004382D02*
X018832Y004382D01*
X018789Y004461D02*
X020569Y004461D01*
X020647Y004540D02*
X018711Y004540D01*
X018577Y004618D02*
X020781Y004618D01*
X021137Y004618D02*
X021301Y004618D01*
X021301Y004540D02*
X021271Y004540D01*
X021301Y004697D02*
X014588Y004697D01*
X014610Y004618D02*
X018221Y004618D01*
X018087Y004540D02*
X014661Y004540D01*
X014661Y004461D02*
X018009Y004461D01*
X017967Y004382D02*
X014661Y004382D01*
X014589Y004304D02*
X017934Y004304D01*
X017919Y004225D02*
X010809Y004225D01*
X010809Y004268D02*
X010736Y004444D01*
X010601Y004579D01*
X010425Y004652D01*
X010234Y004652D01*
X010057Y004579D01*
X009922Y004444D01*
X009849Y004268D01*
X009849Y004077D01*
X009922Y003900D01*
X010057Y003765D01*
X010234Y003692D01*
X010425Y003692D01*
X010601Y003765D01*
X010736Y003900D01*
X010809Y004077D01*
X010809Y004268D01*
X010794Y004304D02*
X014274Y004304D01*
X014201Y004382D02*
X010762Y004382D01*
X010719Y004461D02*
X014201Y004461D01*
X014235Y004669D02*
X014431Y004472D01*
X014235Y004669D02*
X011214Y004669D01*
X010821Y005062D01*
X005900Y005062D01*
X003734Y007228D01*
X003537Y007228D01*
X003307Y007210D02*
X002900Y007210D01*
X002900Y007289D02*
X003307Y007289D01*
X003351Y007367D02*
X002905Y007367D01*
X002983Y007446D02*
X003430Y007446D01*
X003645Y007446D02*
X004095Y007446D01*
X004099Y007524D02*
X003062Y007524D01*
X003253Y007603D02*
X004178Y007603D01*
X004325Y007425D02*
X004325Y007031D01*
X006096Y005259D01*
X011018Y005259D01*
X011411Y004866D01*
X014431Y004866D01*
X014661Y004854D02*
X021301Y004854D01*
X021301Y004932D02*
X014661Y004932D01*
X014611Y005011D02*
X021301Y005011D01*
X021301Y005089D02*
X014533Y005089D01*
X014330Y005089D02*
X011400Y005089D01*
X011321Y005168D02*
X021301Y005168D01*
X021301Y005246D02*
X011243Y005246D01*
X011164Y005325D02*
X021301Y005325D01*
X021301Y005404D02*
X011085Y005404D01*
X011060Y005482D02*
X010448Y005482D01*
X010616Y005561D02*
X010984Y005561D01*
X010984Y005639D02*
X010695Y005639D01*
X010751Y005718D02*
X010984Y005718D01*
X011033Y005796D02*
X010784Y005796D01*
X010809Y005875D02*
X011111Y005875D01*
X011303Y005953D02*
X010809Y005953D01*
X010809Y006032D02*
X011381Y006032D01*
X011460Y006110D02*
X010783Y006110D01*
X010614Y006346D02*
X011687Y006346D01*
X011609Y006425D02*
X010443Y006425D01*
X010215Y006425D02*
X007883Y006425D01*
X007865Y006432D02*
X007674Y006432D01*
X007497Y006359D01*
X007362Y006224D01*
X007289Y006048D01*
X007289Y005857D01*
X007362Y005680D01*
X007497Y005545D01*
X007674Y005472D01*
X007865Y005472D01*
X008041Y005545D01*
X008176Y005680D01*
X008249Y005857D01*
X008249Y006048D01*
X008176Y006224D01*
X008041Y006359D01*
X007865Y006432D01*
X008054Y006346D02*
X010044Y006346D01*
X009965Y006267D02*
X008133Y006267D01*
X008191Y006189D02*
X009908Y006189D01*
X009875Y006110D02*
X008223Y006110D01*
X008249Y006032D02*
X009849Y006032D01*
X009849Y005953D02*
X008249Y005953D01*
X008249Y005875D02*
X009849Y005875D01*
X009874Y005796D02*
X008224Y005796D01*
X008191Y005718D02*
X009907Y005718D01*
X009964Y005639D02*
X008135Y005639D01*
X008056Y005561D02*
X010042Y005561D01*
X010210Y005482D02*
X007888Y005482D01*
X007650Y005482D02*
X006511Y005482D01*
X006488Y005472D02*
X006664Y005545D01*
X006799Y005680D01*
X006872Y005857D01*
X006872Y006048D01*
X006799Y006224D01*
X006664Y006359D01*
X006488Y006432D01*
X006297Y006432D01*
X006120Y006359D01*
X005985Y006224D01*
X005912Y006048D01*
X005912Y005857D01*
X005985Y005680D01*
X006120Y005545D01*
X006297Y005472D01*
X006488Y005472D01*
X006679Y005561D02*
X007482Y005561D01*
X007404Y005639D02*
X006758Y005639D01*
X006814Y005718D02*
X007347Y005718D01*
X007314Y005796D02*
X006847Y005796D01*
X006872Y005875D02*
X007289Y005875D01*
X007289Y005953D02*
X006872Y005953D01*
X006872Y006032D02*
X007289Y006032D01*
X007315Y006110D02*
X006846Y006110D01*
X006814Y006189D02*
X007348Y006189D01*
X007405Y006267D02*
X006756Y006267D01*
X006677Y006346D02*
X007484Y006346D01*
X007655Y006425D02*
X006506Y006425D01*
X006278Y006425D02*
X005143Y006425D01*
X005065Y006503D02*
X011530Y006503D01*
X011452Y006582D02*
X004986Y006582D01*
X004907Y006660D02*
X011373Y006660D01*
X011294Y006739D02*
X004829Y006739D01*
X004750Y006817D02*
X011216Y006817D01*
X011137Y006896D02*
X004672Y006896D01*
X004593Y006974D02*
X011059Y006974D01*
X010980Y007053D02*
X004515Y007053D01*
X004475Y007131D02*
X010902Y007131D01*
X011543Y005981D02*
X011214Y005653D01*
X011570Y005796D02*
X014524Y005796D01*
X014665Y005981D02*
X011543Y005981D01*
X010817Y004854D02*
X002900Y004854D01*
X002900Y004932D02*
X005817Y004932D01*
X005739Y005011D02*
X002900Y005011D01*
X002900Y005089D02*
X005660Y005089D01*
X005582Y005168D02*
X002900Y005168D01*
X002900Y005246D02*
X005503Y005246D01*
X005425Y005325D02*
X002900Y005325D01*
X002900Y005404D02*
X005346Y005404D01*
X005268Y005482D02*
X003951Y005482D01*
X003928Y005472D02*
X004104Y005545D01*
X004239Y005680D01*
X004312Y005857D01*
X004312Y006048D01*
X004239Y006224D01*
X004104Y006359D01*
X003928Y006432D01*
X003737Y006432D01*
X003560Y006359D01*
X003425Y006224D01*
X003352Y006048D01*
X003352Y005857D01*
X003425Y005680D01*
X003560Y005545D01*
X003737Y005472D01*
X003928Y005472D01*
X004119Y005561D02*
X005189Y005561D01*
X005111Y005639D02*
X004198Y005639D01*
X004254Y005718D02*
X005032Y005718D01*
X004954Y005796D02*
X004287Y005796D01*
X004312Y005875D02*
X004875Y005875D01*
X004796Y005953D02*
X004312Y005953D01*
X004312Y006032D02*
X004718Y006032D01*
X004639Y006110D02*
X004286Y006110D01*
X004254Y006189D02*
X004561Y006189D01*
X004482Y006267D02*
X004196Y006267D01*
X004117Y006346D02*
X004404Y006346D01*
X004325Y006425D02*
X003946Y006425D01*
X003718Y006425D02*
X002900Y006425D01*
X002900Y006503D02*
X004247Y006503D01*
X004168Y006582D02*
X002900Y006582D01*
X002900Y006660D02*
X004090Y006660D01*
X004011Y006739D02*
X002900Y006739D01*
X002900Y006817D02*
X003932Y006817D01*
X003854Y006896D02*
X002900Y006896D01*
X002900Y006974D02*
X003775Y006974D01*
X003697Y007053D02*
X003688Y007053D01*
X003387Y007053D02*
X002900Y007053D01*
X002900Y007131D02*
X003308Y007131D01*
X003807Y007367D02*
X004095Y007367D01*
X004135Y007289D02*
X003885Y007289D01*
X003964Y007210D02*
X004175Y007210D01*
X004175Y007131D02*
X004043Y007131D01*
X004121Y007053D02*
X004175Y007053D01*
X003547Y006346D02*
X002900Y006346D01*
X002900Y006267D02*
X003468Y006267D01*
X003411Y006189D02*
X002900Y006189D01*
X002900Y006110D02*
X003378Y006110D01*
X003352Y006032D02*
X002900Y006032D01*
X002900Y005953D02*
X003352Y005953D01*
X003352Y005875D02*
X002900Y005875D01*
X002900Y005796D02*
X003377Y005796D01*
X003410Y005718D02*
X002900Y005718D01*
X002900Y005639D02*
X003466Y005639D01*
X003545Y005561D02*
X002900Y005561D01*
X002900Y005482D02*
X003713Y005482D01*
X002900Y004775D02*
X010896Y004775D01*
X010974Y004697D02*
X002900Y004697D01*
X002900Y004618D02*
X003654Y004618D01*
X003737Y004652D02*
X003560Y004579D01*
X003425Y004444D01*
X003352Y004268D01*
X003352Y004077D01*
X003425Y003900D01*
X003560Y003765D01*
X003737Y003692D01*
X003928Y003692D01*
X004104Y003765D01*
X004239Y003900D01*
X004312Y004077D01*
X004312Y004268D01*
X004239Y004444D01*
X004104Y004579D01*
X003928Y004652D01*
X003737Y004652D01*
X003520Y004540D02*
X002900Y004540D01*
X002900Y004461D02*
X003442Y004461D01*
X003400Y004382D02*
X002900Y004382D01*
X002900Y004304D02*
X003367Y004304D01*
X003352Y004225D02*
X002900Y004225D01*
X002900Y004147D02*
X003352Y004147D01*
X003356Y004068D02*
X002900Y004068D01*
X002900Y003990D02*
X003388Y003990D01*
X003421Y003911D02*
X002900Y003911D01*
X002900Y003833D02*
X003493Y003833D01*
X003588Y003754D02*
X002900Y003754D01*
X002900Y003676D02*
X021301Y003676D01*
X021301Y003754D02*
X021204Y003754D01*
X021298Y003833D02*
X021301Y003833D01*
X021451Y004172D02*
X021451Y007519D01*
X022440Y007995D02*
X024792Y007995D01*
X024615Y007917D02*
X022617Y007917D01*
X022695Y007838D02*
X024537Y007838D01*
X024476Y007760D02*
X022756Y007760D01*
X022530Y008859D02*
X024703Y008859D01*
X024578Y008938D02*
X022654Y008938D01*
X022733Y009016D02*
X024500Y009016D01*
X024461Y009095D02*
X022771Y009095D01*
X022804Y009174D02*
X024428Y009174D01*
X024416Y009252D02*
X022816Y009252D01*
X022816Y009331D02*
X024416Y009331D01*
X024422Y009409D02*
X022810Y009409D01*
X022777Y009488D02*
X024455Y009488D01*
X024487Y009566D02*
X022745Y009566D01*
X022669Y009645D02*
X024563Y009645D01*
X024667Y009723D02*
X022565Y009723D01*
X021301Y008938D02*
X021277Y008938D01*
X025090Y008859D02*
X025238Y008859D01*
X025238Y008938D02*
X025214Y008938D01*
X025538Y008938D02*
X025955Y008938D01*
X026001Y008892D02*
X026178Y008819D01*
X026369Y008819D01*
X026545Y008892D01*
X026680Y009027D01*
X026753Y009203D01*
X026753Y009394D01*
X026680Y009571D01*
X026545Y009706D01*
X026369Y009779D01*
X026178Y009779D01*
X026001Y009706D01*
X025866Y009571D01*
X025793Y009394D01*
X025793Y009203D01*
X025866Y009027D01*
X026001Y008892D01*
X026080Y008859D02*
X025538Y008859D01*
X025538Y008781D02*
X029175Y008781D01*
X029175Y008859D02*
X029027Y008859D01*
X029151Y008938D02*
X029175Y008938D01*
X029175Y008702D02*
X025538Y008702D01*
X025538Y008624D02*
X029175Y008624D01*
X029175Y008545D02*
X025538Y008545D01*
X025538Y008467D02*
X029175Y008467D01*
X029175Y008388D02*
X025538Y008388D01*
X025538Y008310D02*
X029175Y008310D01*
X029175Y008231D02*
X025538Y008231D01*
X025538Y008153D02*
X029175Y008153D01*
X029175Y008074D02*
X025538Y008074D01*
X025538Y007995D02*
X026169Y007995D01*
X026178Y007999D02*
X026001Y007926D01*
X025866Y007791D01*
X025793Y007614D01*
X025793Y007423D01*
X025866Y007247D01*
X026001Y007112D01*
X026178Y007039D01*
X026369Y007039D01*
X026545Y007112D01*
X026680Y007247D01*
X026753Y007423D01*
X026753Y007614D01*
X026680Y007791D01*
X026545Y007926D01*
X026369Y007999D01*
X026178Y007999D01*
X026377Y007995D02*
X028729Y007995D01*
X028552Y007917D02*
X026554Y007917D01*
X026632Y007838D02*
X028474Y007838D01*
X028413Y007760D02*
X026693Y007760D01*
X026725Y007681D02*
X028381Y007681D01*
X028353Y007603D02*
X026753Y007603D01*
X026753Y007524D02*
X028353Y007524D01*
X028353Y007446D02*
X026753Y007446D01*
X026730Y007367D02*
X028376Y007367D01*
X028409Y007289D02*
X026697Y007289D01*
X026643Y007210D02*
X028463Y007210D01*
X028542Y007131D02*
X026565Y007131D01*
X026403Y007053D02*
X028704Y007053D01*
X028833Y007519D02*
X029325Y007519D01*
X029175Y007917D02*
X029114Y007917D01*
X029175Y007995D02*
X028937Y007995D01*
X028640Y008859D02*
X026467Y008859D01*
X026591Y008938D02*
X028515Y008938D01*
X028437Y009016D02*
X026670Y009016D01*
X026708Y009095D02*
X028398Y009095D01*
X028365Y009174D02*
X026741Y009174D01*
X026753Y009252D02*
X028353Y009252D01*
X028353Y009331D02*
X026753Y009331D01*
X026747Y009409D02*
X028359Y009409D01*
X028392Y009488D02*
X026714Y009488D01*
X026682Y009566D02*
X028424Y009566D01*
X028500Y009645D02*
X026606Y009645D01*
X026502Y009723D02*
X028604Y009723D01*
X029062Y009723D02*
X029175Y009723D01*
X029166Y009645D02*
X029175Y009645D01*
X029175Y009802D02*
X025538Y009802D01*
X025538Y009880D02*
X029175Y009880D01*
X029175Y009959D02*
X025538Y009959D01*
X025538Y010038D02*
X029175Y010038D01*
X029175Y010116D02*
X025538Y010116D01*
X025538Y010195D02*
X029175Y010195D01*
X029175Y010273D02*
X025538Y010273D01*
X025199Y010430D02*
X025100Y010430D01*
X025125Y009723D02*
X025238Y009723D01*
X025229Y009645D02*
X025238Y009645D01*
X025538Y009645D02*
X025940Y009645D01*
X025864Y009566D02*
X025538Y009566D01*
X025538Y009488D02*
X025832Y009488D01*
X025799Y009409D02*
X025538Y009409D01*
X025538Y009331D02*
X025793Y009331D01*
X025793Y009252D02*
X025538Y009252D01*
X025538Y009174D02*
X025805Y009174D01*
X025838Y009095D02*
X025538Y009095D01*
X025538Y009016D02*
X025877Y009016D01*
X026044Y009723D02*
X025538Y009723D01*
X026477Y010430D02*
X028629Y010430D01*
X028511Y010509D02*
X026595Y010509D01*
X026674Y010587D02*
X028432Y010587D01*
X028396Y010666D02*
X026710Y010666D01*
X026743Y010744D02*
X028364Y010744D01*
X028353Y010823D02*
X026753Y010823D01*
X026753Y010902D02*
X028353Y010902D01*
X028361Y010980D02*
X026745Y010980D01*
X026601Y011216D02*
X028505Y011216D01*
X028614Y011294D02*
X026492Y011294D01*
X030414Y010430D02*
X031931Y010430D01*
X031931Y010509D02*
X030532Y010509D01*
X030611Y010587D02*
X031931Y010587D01*
X031931Y010666D02*
X030647Y010666D01*
X030680Y010744D02*
X031931Y010744D01*
X031931Y010823D02*
X030690Y010823D01*
X030690Y010902D02*
X031931Y010902D01*
X031983Y010980D02*
X030682Y010980D01*
X032081Y010865D02*
X032770Y010865D01*
X032333Y010666D02*
X032231Y010666D01*
X032231Y010587D02*
X032369Y010587D01*
X032448Y010509D02*
X032231Y010509D01*
X031931Y009723D02*
X030439Y009723D01*
X030543Y009645D02*
X031931Y009645D01*
X031931Y009566D02*
X030619Y009566D01*
X030651Y009488D02*
X031931Y009488D01*
X031931Y009409D02*
X030684Y009409D01*
X030690Y009331D02*
X031931Y009331D01*
X031931Y009252D02*
X030690Y009252D01*
X030678Y009174D02*
X031931Y009174D01*
X031931Y009095D02*
X030645Y009095D01*
X030607Y009016D02*
X031931Y009016D01*
X031931Y008938D02*
X030528Y008938D01*
X030404Y008859D02*
X031931Y008859D01*
X033103Y009645D02*
X035778Y009645D01*
X035778Y009723D02*
X032999Y009723D01*
X033179Y009566D02*
X035778Y009566D01*
X035778Y009488D02*
X033211Y009488D01*
X035406Y009802D02*
X035778Y009802D01*
X035778Y009880D02*
X035520Y009880D01*
X035590Y009959D02*
X035778Y009959D01*
X035778Y010038D02*
X035623Y010038D01*
X035647Y010116D02*
X035778Y010116D01*
X035778Y010195D02*
X035647Y010195D01*
X035643Y010273D02*
X035778Y010273D01*
X035778Y010352D02*
X035611Y010352D01*
X035570Y010430D02*
X035778Y010430D01*
X035778Y010509D02*
X035492Y010509D01*
X033715Y012237D02*
X033038Y012237D01*
X033042Y012238D02*
X033177Y012373D01*
X033250Y012550D01*
X033250Y012741D01*
X033177Y012917D01*
X033042Y013052D01*
X032866Y013125D01*
X032675Y013125D01*
X032498Y013052D01*
X032363Y012917D01*
X032290Y012741D01*
X032290Y012550D01*
X032363Y012373D01*
X032498Y012238D01*
X032675Y012165D01*
X032866Y012165D01*
X033042Y012238D01*
X033119Y012315D02*
X033677Y012315D01*
X033644Y012394D02*
X033185Y012394D01*
X033218Y012472D02*
X033612Y012472D01*
X033579Y012551D02*
X033250Y012551D01*
X033250Y012629D02*
X033573Y012629D01*
X033573Y012708D02*
X033250Y012708D01*
X033231Y012787D02*
X033573Y012787D01*
X033573Y012865D02*
X033199Y012865D01*
X033150Y012944D02*
X033586Y012944D01*
X033618Y013022D02*
X033072Y013022D01*
X032925Y013101D02*
X033651Y013101D01*
X032615Y013101D02*
X030365Y013101D01*
X030512Y013022D02*
X032468Y013022D01*
X032390Y012944D02*
X030590Y012944D01*
X030639Y012865D02*
X032342Y012865D01*
X032309Y012787D02*
X030671Y012787D01*
X030690Y012708D02*
X032290Y012708D01*
X032290Y012629D02*
X030690Y012629D01*
X030690Y012551D02*
X032290Y012551D01*
X032322Y012472D02*
X030658Y012472D01*
X030625Y012394D02*
X032355Y012394D01*
X032421Y012315D02*
X030559Y012315D01*
X030478Y012237D02*
X032502Y012237D01*
X032874Y007995D02*
X035778Y007995D01*
X035778Y007917D02*
X033051Y007917D01*
X032313Y007367D02*
X032231Y007367D01*
X032231Y007289D02*
X032346Y007289D01*
X032400Y007210D02*
X032231Y007210D01*
X032196Y007131D02*
X032479Y007131D01*
X032641Y007053D02*
X032118Y007053D01*
X031931Y007367D02*
X030667Y007367D01*
X030690Y007446D02*
X031931Y007446D01*
X031931Y007524D02*
X030690Y007524D01*
X030690Y007603D02*
X031931Y007603D01*
X031931Y007681D02*
X030662Y007681D01*
X030630Y007760D02*
X031931Y007760D01*
X031931Y007838D02*
X030569Y007838D01*
X030491Y007917D02*
X031931Y007917D01*
X031931Y007995D02*
X030314Y007995D01*
X030081Y007053D02*
X029475Y007053D01*
X030324Y006425D02*
X031537Y006425D01*
X031537Y006346D02*
X030495Y006346D01*
X030574Y006267D02*
X031537Y006267D01*
X031537Y006189D02*
X030632Y006189D01*
X030664Y006110D02*
X031537Y006110D01*
X031537Y006032D02*
X030690Y006032D01*
X030690Y005953D02*
X031537Y005953D01*
X031537Y005875D02*
X030690Y005875D01*
X030665Y005796D02*
X031537Y005796D01*
X031537Y005718D02*
X030632Y005718D01*
X030576Y005639D02*
X031537Y005639D01*
X031537Y005561D02*
X030497Y005561D01*
X032146Y004618D02*
X032592Y004618D01*
X032458Y004540D02*
X032225Y004540D01*
X032231Y004461D02*
X032380Y004461D01*
X032338Y004382D02*
X032231Y004382D01*
X029175Y003833D02*
X029172Y003833D01*
X029175Y003754D02*
X029078Y003754D01*
X029175Y003676D02*
X025538Y003676D01*
X025538Y003754D02*
X026029Y003754D01*
X025538Y003597D02*
X029175Y003597D01*
X029175Y003518D02*
X025538Y003518D01*
X025538Y003440D02*
X029175Y003440D01*
X029175Y003361D02*
X025538Y003361D01*
X025538Y003283D02*
X029175Y003283D01*
X029175Y003204D02*
X025538Y003204D01*
X025538Y003126D02*
X029175Y003126D01*
X029175Y003047D02*
X029022Y003047D01*
X029149Y002969D02*
X029175Y002969D01*
X028644Y003047D02*
X026462Y003047D01*
X026589Y002969D02*
X028517Y002969D01*
X028438Y002890D02*
X026668Y002890D01*
X026707Y002812D02*
X028399Y002812D01*
X028366Y002733D02*
X026740Y002733D01*
X026753Y002654D02*
X028353Y002654D01*
X028353Y002576D02*
X026753Y002576D01*
X026748Y002497D02*
X028358Y002497D01*
X028391Y002419D02*
X026715Y002419D01*
X026683Y002340D02*
X028424Y002340D01*
X028498Y002262D02*
X026608Y002262D01*
X026507Y002183D02*
X028599Y002183D01*
X026084Y003047D02*
X025538Y003047D01*
X025538Y002969D02*
X025957Y002969D01*
X025878Y002890D02*
X025538Y002890D01*
X025538Y002812D02*
X025839Y002812D01*
X025806Y002733D02*
X025538Y002733D01*
X025538Y002654D02*
X025793Y002654D01*
X025793Y002576D02*
X025538Y002576D01*
X025538Y002497D02*
X025798Y002497D01*
X025831Y002419D02*
X025538Y002419D01*
X025538Y002340D02*
X025864Y002340D01*
X024651Y003754D02*
X022581Y003754D01*
X022675Y003833D02*
X024557Y003833D01*
X024485Y003911D02*
X022747Y003911D01*
X022780Y003990D02*
X024452Y003990D01*
X024420Y004068D02*
X022812Y004068D01*
X022816Y004147D02*
X024416Y004147D01*
X024416Y004225D02*
X022816Y004225D01*
X022801Y004304D02*
X024431Y004304D01*
X024464Y004382D02*
X022769Y004382D01*
X022726Y004461D02*
X024506Y004461D01*
X024584Y004540D02*
X022648Y004540D01*
X022514Y004618D02*
X024718Y004618D01*
X025074Y004618D02*
X025238Y004618D01*
X025238Y004540D02*
X025208Y004540D01*
X025388Y004172D02*
X024896Y004172D01*
X025388Y004172D02*
X025388Y007519D01*
X025538Y007524D02*
X025793Y007524D01*
X025793Y007446D02*
X025538Y007446D01*
X025538Y007367D02*
X025816Y007367D01*
X025849Y007289D02*
X025538Y007289D01*
X025538Y007210D02*
X025903Y007210D01*
X025982Y007131D02*
X025538Y007131D01*
X025538Y007053D02*
X026144Y007053D01*
X025793Y007603D02*
X025538Y007603D01*
X025538Y007681D02*
X025821Y007681D01*
X025853Y007760D02*
X025538Y007760D01*
X025538Y007838D02*
X025914Y007838D01*
X025992Y007917D02*
X025538Y007917D01*
X025238Y007917D02*
X025177Y007917D01*
X025238Y007995D02*
X025000Y007995D01*
X025187Y007131D02*
X025238Y007131D01*
X025238Y007053D02*
X025026Y007053D01*
X021301Y005561D02*
X021246Y005561D01*
X021301Y005482D02*
X021078Y005482D01*
X021301Y004775D02*
X014661Y004775D01*
X013145Y003021D02*
X012875Y003291D01*
X009443Y003291D01*
X009049Y002897D01*
X008888Y002733D02*
X008236Y002733D01*
X008249Y002701D02*
X008176Y002878D01*
X008041Y003013D01*
X007865Y003086D01*
X007674Y003086D01*
X007497Y003013D01*
X007362Y002878D01*
X007289Y002701D01*
X007289Y002510D01*
X007362Y002334D01*
X007497Y002199D01*
X007674Y002126D01*
X007865Y002126D01*
X008041Y002199D01*
X008176Y002334D01*
X008249Y002510D01*
X008249Y002701D01*
X008249Y002654D02*
X009849Y002654D01*
X009849Y002701D02*
X009849Y002510D01*
X009922Y002334D01*
X010057Y002199D01*
X010234Y002126D01*
X010425Y002126D01*
X010601Y002199D01*
X010736Y002334D01*
X010809Y002510D01*
X010809Y002701D01*
X010736Y002878D01*
X010601Y003013D01*
X010425Y003086D01*
X010234Y003086D01*
X010057Y003013D01*
X009922Y002878D01*
X009849Y002701D01*
X009862Y002733D02*
X009210Y002733D01*
X009279Y002812D02*
X009895Y002812D01*
X009935Y002890D02*
X009279Y002890D01*
X009333Y002969D02*
X010013Y002969D01*
X010140Y003047D02*
X009411Y003047D01*
X009490Y003126D02*
X012828Y003126D01*
X012906Y003047D02*
X010518Y003047D01*
X010645Y002969D02*
X012915Y002969D01*
X012925Y002733D02*
X017932Y002733D01*
X017919Y002654D02*
X013003Y002654D01*
X013082Y002576D02*
X017919Y002576D01*
X017924Y002497D02*
X017753Y002497D01*
X017832Y002419D02*
X017957Y002419D01*
X017989Y002340D02*
X017855Y002340D01*
X017876Y002262D02*
X018064Y002262D01*
X018165Y002183D02*
X017955Y002183D01*
X017766Y001948D02*
X003715Y001948D01*
X003793Y001869D02*
X013183Y001869D01*
X013094Y002026D02*
X003636Y002026D01*
X003557Y002105D02*
X013016Y002105D01*
X012995Y002183D02*
X010563Y002183D01*
X010664Y002262D02*
X012972Y002262D01*
X012893Y002340D02*
X010739Y002340D01*
X010771Y002419D02*
X012815Y002419D01*
X012736Y002497D02*
X011337Y002497D01*
X011092Y002497D02*
X010804Y002497D01*
X010809Y002576D02*
X011013Y002576D01*
X010984Y002654D02*
X010809Y002654D01*
X010796Y002733D02*
X010984Y002733D01*
X011001Y002812D02*
X010763Y002812D01*
X010724Y002890D02*
X011079Y002890D01*
X010095Y002183D02*
X008003Y002183D01*
X008104Y002262D02*
X009994Y002262D01*
X009920Y002340D02*
X008179Y002340D01*
X008211Y002419D02*
X009887Y002419D01*
X009854Y002497D02*
X008244Y002497D01*
X008249Y002576D02*
X009849Y002576D01*
X009144Y003204D02*
X002900Y003204D01*
X002900Y003126D02*
X008953Y003126D01*
X008874Y003047D02*
X007958Y003047D01*
X008085Y002969D02*
X008819Y002969D01*
X008819Y002890D02*
X008164Y002890D01*
X008203Y002812D02*
X008819Y002812D01*
X009223Y003283D02*
X002900Y003283D01*
X002900Y003361D02*
X009301Y003361D01*
X009380Y003440D02*
X002900Y003440D01*
X002600Y003440D02*
X000825Y003440D01*
X000825Y003518D02*
X002600Y003518D01*
X002600Y003597D02*
X000825Y003597D01*
X000825Y003676D02*
X002600Y003676D01*
X002600Y003754D02*
X000825Y003754D01*
X000825Y003833D02*
X002600Y003833D01*
X002600Y003911D02*
X000825Y003911D01*
X000825Y003990D02*
X002600Y003990D01*
X002600Y004068D02*
X000825Y004068D01*
X000825Y004147D02*
X002600Y004147D01*
X002600Y004225D02*
X000825Y004225D01*
X000825Y004304D02*
X002600Y004304D01*
X002600Y004382D02*
X000825Y004382D01*
X000825Y004461D02*
X002600Y004461D01*
X002600Y004540D02*
X000825Y004540D01*
X000825Y004618D02*
X002600Y004618D01*
X002600Y004697D02*
X000825Y004697D01*
X000825Y004775D02*
X002600Y004775D01*
X002600Y004854D02*
X000825Y004854D01*
X000825Y004932D02*
X002600Y004932D01*
X002600Y005011D02*
X000825Y005011D01*
X000825Y005089D02*
X002600Y005089D01*
X002600Y005168D02*
X000825Y005168D01*
X000825Y005246D02*
X002600Y005246D01*
X002600Y005325D02*
X000825Y005325D01*
X000825Y005404D02*
X002600Y005404D01*
X002600Y005482D02*
X000825Y005482D01*
X000825Y005561D02*
X002600Y005561D01*
X002600Y005639D02*
X000825Y005639D01*
X000825Y005718D02*
X002600Y005718D01*
X002600Y005796D02*
X000825Y005796D01*
X000825Y005875D02*
X002600Y005875D01*
X002600Y005953D02*
X000825Y005953D01*
X000825Y006032D02*
X002600Y006032D01*
X002600Y006110D02*
X002141Y006110D01*
X002205Y006137D02*
X002073Y006082D01*
X001931Y006082D01*
X001799Y006137D01*
X001698Y006237D01*
X001644Y006369D01*
X001644Y006512D01*
X001698Y006643D01*
X001799Y006744D01*
X001931Y006798D01*
X002073Y006798D01*
X002205Y006744D01*
X002305Y006643D01*
X002360Y006512D01*
X002360Y006369D01*
X002305Y006237D01*
X002205Y006137D01*
X002257Y006189D02*
X002600Y006189D01*
X002600Y006267D02*
X002318Y006267D01*
X002350Y006346D02*
X002600Y006346D01*
X002600Y006425D02*
X002360Y006425D01*
X002360Y006503D02*
X002600Y006503D01*
X002600Y006582D02*
X002331Y006582D01*
X002288Y006660D02*
X002600Y006660D01*
X002600Y006739D02*
X002210Y006739D01*
X002600Y006817D02*
X000825Y006817D01*
X000825Y006739D02*
X001794Y006739D01*
X001715Y006660D02*
X000825Y006660D01*
X000825Y006582D02*
X001673Y006582D01*
X001644Y006503D02*
X000825Y006503D01*
X000825Y006425D02*
X001644Y006425D01*
X001653Y006346D02*
X000825Y006346D01*
X000825Y006267D02*
X001686Y006267D01*
X001747Y006189D02*
X000825Y006189D01*
X000825Y006110D02*
X001863Y006110D01*
X002600Y006896D02*
X000825Y006896D01*
X000825Y006974D02*
X002600Y006974D01*
X002600Y007053D02*
X000825Y007053D01*
X000825Y007131D02*
X002600Y007131D01*
X002600Y007210D02*
X000825Y007210D01*
X000825Y007289D02*
X002600Y007289D01*
X002600Y007367D02*
X000825Y007367D01*
X000825Y007446D02*
X002600Y007446D01*
X002637Y007524D02*
X000825Y007524D01*
X000825Y007603D02*
X002716Y007603D01*
X002794Y007681D02*
X002132Y007681D01*
X002253Y007760D02*
X002873Y007760D01*
X002914Y007838D02*
X002316Y007838D01*
X002349Y007917D02*
X002917Y007917D01*
X002996Y007995D02*
X002360Y007995D01*
X001872Y007681D02*
X000825Y007681D01*
X000825Y007760D02*
X001751Y007760D01*
X001687Y007838D02*
X000825Y007838D01*
X000825Y007917D02*
X001655Y007917D01*
X001644Y007995D02*
X000825Y007995D01*
X000825Y008074D02*
X001644Y008074D01*
X001671Y008153D02*
X000825Y008153D01*
X000825Y008231D02*
X001711Y008231D01*
X001790Y008310D02*
X000825Y008310D01*
X005222Y006346D02*
X006107Y006346D01*
X006028Y006267D02*
X005300Y006267D01*
X005379Y006189D02*
X005971Y006189D01*
X005938Y006110D02*
X005457Y006110D01*
X005536Y006032D02*
X005912Y006032D01*
X005912Y005953D02*
X005614Y005953D01*
X005693Y005875D02*
X005912Y005875D01*
X005937Y005796D02*
X005771Y005796D01*
X005850Y005718D02*
X005970Y005718D01*
X005929Y005639D02*
X006026Y005639D01*
X006007Y005561D02*
X006105Y005561D01*
X006086Y005482D02*
X006273Y005482D01*
X006297Y004652D02*
X006120Y004579D01*
X005985Y004444D01*
X005912Y004268D01*
X005912Y004077D01*
X005985Y003900D01*
X006120Y003765D01*
X006297Y003692D01*
X006488Y003692D01*
X006664Y003765D01*
X006799Y003900D01*
X006872Y004077D01*
X006872Y004268D01*
X006799Y004444D01*
X006664Y004579D01*
X006488Y004652D01*
X006297Y004652D01*
X006214Y004618D02*
X004010Y004618D01*
X004144Y004540D02*
X006080Y004540D01*
X006002Y004461D02*
X004222Y004461D01*
X004265Y004382D02*
X005960Y004382D01*
X005927Y004304D02*
X004297Y004304D01*
X004312Y004225D02*
X005912Y004225D01*
X005912Y004147D02*
X004312Y004147D01*
X004309Y004068D02*
X005916Y004068D01*
X005948Y003990D02*
X004276Y003990D01*
X004243Y003911D02*
X005981Y003911D01*
X006053Y003833D02*
X004171Y003833D01*
X004077Y003754D02*
X006148Y003754D01*
X006637Y003754D02*
X007525Y003754D01*
X007497Y003765D02*
X007674Y003692D01*
X007865Y003692D01*
X008041Y003765D01*
X008176Y003900D01*
X008249Y004077D01*
X008249Y004268D01*
X008176Y004444D01*
X008041Y004579D01*
X007865Y004652D01*
X007674Y004652D01*
X007497Y004579D01*
X007362Y004444D01*
X007289Y004268D01*
X007289Y004077D01*
X007362Y003900D01*
X007497Y003765D01*
X007430Y003833D02*
X006731Y003833D01*
X006803Y003911D02*
X007358Y003911D01*
X007325Y003990D02*
X006836Y003990D01*
X006869Y004068D02*
X007293Y004068D01*
X007289Y004147D02*
X006872Y004147D01*
X006872Y004225D02*
X007289Y004225D01*
X007304Y004304D02*
X006857Y004304D01*
X006825Y004382D02*
X007337Y004382D01*
X007379Y004461D02*
X006782Y004461D01*
X006704Y004540D02*
X007457Y004540D01*
X007591Y004618D02*
X006570Y004618D01*
X007947Y004618D02*
X010151Y004618D01*
X010017Y004540D02*
X008081Y004540D01*
X008159Y004461D02*
X009939Y004461D01*
X009897Y004382D02*
X008202Y004382D01*
X008234Y004304D02*
X009864Y004304D01*
X009849Y004225D02*
X008249Y004225D01*
X008249Y004147D02*
X009849Y004147D01*
X009853Y004068D02*
X008246Y004068D01*
X008213Y003990D02*
X009885Y003990D01*
X009918Y003911D02*
X008180Y003911D01*
X008108Y003833D02*
X009990Y003833D01*
X010085Y003754D02*
X008014Y003754D01*
X007580Y003047D02*
X006581Y003047D01*
X006664Y003013D02*
X006488Y003086D01*
X006297Y003086D01*
X006120Y003013D01*
X005985Y002878D01*
X005912Y002701D01*
X005912Y002510D01*
X005985Y002334D01*
X006120Y002199D01*
X006297Y002126D01*
X006488Y002126D01*
X006664Y002199D01*
X006799Y002334D01*
X006872Y002510D01*
X006872Y002701D01*
X006799Y002878D01*
X006664Y003013D01*
X006708Y002969D02*
X007453Y002969D01*
X007375Y002890D02*
X006787Y002890D01*
X006826Y002812D02*
X007335Y002812D01*
X007302Y002733D02*
X006859Y002733D01*
X006872Y002654D02*
X007289Y002654D01*
X007289Y002576D02*
X006872Y002576D01*
X006867Y002497D02*
X007294Y002497D01*
X007327Y002419D02*
X006834Y002419D01*
X006802Y002340D02*
X007360Y002340D01*
X007434Y002262D02*
X006727Y002262D01*
X006626Y002183D02*
X007535Y002183D01*
X006158Y002183D02*
X004066Y002183D01*
X004104Y002199D02*
X004239Y002334D01*
X004312Y002510D01*
X004312Y002701D01*
X004239Y002878D01*
X004104Y003013D01*
X003928Y003086D01*
X003737Y003086D01*
X003560Y003013D01*
X003425Y002878D01*
X003352Y002701D01*
X003352Y002510D01*
X003425Y002334D01*
X003560Y002199D01*
X003737Y002126D01*
X003928Y002126D01*
X004104Y002199D01*
X004167Y002262D02*
X006057Y002262D01*
X005983Y002340D02*
X004242Y002340D01*
X004274Y002419D02*
X005950Y002419D01*
X005917Y002497D02*
X004307Y002497D01*
X004312Y002576D02*
X005912Y002576D01*
X005912Y002654D02*
X004312Y002654D01*
X004299Y002733D02*
X005925Y002733D01*
X005958Y002812D02*
X004266Y002812D01*
X004227Y002890D02*
X005998Y002890D01*
X006076Y002969D02*
X004148Y002969D01*
X004021Y003047D02*
X006203Y003047D01*
X003643Y003047D02*
X002900Y003047D01*
X002900Y002969D02*
X003516Y002969D01*
X003438Y002890D02*
X002900Y002890D01*
X002900Y002812D02*
X003398Y002812D01*
X003365Y002733D02*
X002929Y002733D01*
X003008Y002654D02*
X003352Y002654D01*
X003352Y002576D02*
X003086Y002576D01*
X003165Y002497D02*
X003357Y002497D01*
X003390Y002419D02*
X003243Y002419D01*
X003322Y002340D02*
X003423Y002340D01*
X003400Y002262D02*
X003497Y002262D01*
X003479Y002183D02*
X003598Y002183D01*
X002600Y002654D02*
X000825Y002654D01*
X000825Y002733D02*
X002600Y002733D01*
X002600Y002812D02*
X000825Y002812D01*
X000825Y002890D02*
X002600Y002890D01*
X002600Y002969D02*
X000825Y002969D01*
X000825Y003047D02*
X002600Y003047D01*
X002600Y003126D02*
X000825Y003126D01*
X000825Y003204D02*
X002600Y003204D01*
X002600Y003283D02*
X000825Y003283D01*
X000825Y003361D02*
X002600Y003361D01*
X002836Y001162D02*
X003490Y001162D01*
X003419Y001084D02*
X002757Y001084D01*
X002679Y001005D02*
X003387Y001005D01*
X003354Y000927D02*
X002527Y000927D01*
X002337Y000848D02*
X003352Y000848D01*
X003352Y000769D02*
X001329Y000769D01*
X001436Y000691D02*
X003368Y000691D01*
X003401Y000612D02*
X001543Y000612D01*
X001683Y000534D02*
X003445Y000534D01*
X003524Y000455D02*
X001884Y000455D01*
X010574Y003754D02*
X018154Y003754D01*
X018060Y003833D02*
X010668Y003833D01*
X010740Y003911D02*
X017988Y003911D01*
X017955Y003990D02*
X010773Y003990D01*
X010806Y004068D02*
X017923Y004068D01*
X017919Y004147D02*
X010809Y004147D01*
X010641Y004540D02*
X011131Y004540D01*
X011053Y004618D02*
X010507Y004618D01*
X013355Y002026D02*
X017687Y002026D01*
X017496Y002105D02*
X013433Y002105D01*
X013527Y001869D02*
X017844Y001869D01*
X018146Y001241D02*
X010582Y001241D01*
X010672Y001162D02*
X018056Y001162D01*
X018652Y001241D02*
X020706Y001241D01*
X020959Y000826D02*
X021451Y001220D01*
X021601Y002183D02*
X022102Y002183D01*
X011729Y001005D02*
X011680Y001005D01*
X011680Y000927D02*
X011729Y000927D01*
X011729Y000848D02*
X011680Y000848D01*
X011680Y000769D02*
X011729Y000769D01*
X011729Y000691D02*
X011680Y000691D01*
X011680Y000612D02*
X011729Y000612D01*
X011729Y000534D02*
X011680Y000534D01*
X011680Y000455D02*
X011729Y000455D01*
X033078Y000455D02*
X034851Y000455D01*
X035042Y000534D02*
X033157Y000534D01*
X033201Y000612D02*
X035178Y000612D01*
X035289Y000691D02*
X033234Y000691D01*
X033250Y000769D02*
X035368Y000769D01*
X035446Y000848D02*
X034621Y000848D01*
X034810Y000927D02*
X035515Y000927D01*
X035561Y001005D02*
X034962Y001005D01*
X035041Y001084D02*
X035606Y001084D01*
X035651Y001162D02*
X035119Y001162D01*
X035188Y001241D02*
X035686Y001241D01*
X035707Y001319D02*
X035220Y001319D01*
X035253Y001398D02*
X035728Y001398D01*
X035749Y001476D02*
X035285Y001476D01*
X035313Y001555D02*
X035767Y001555D01*
X035772Y001633D02*
X035313Y001633D01*
X035313Y001712D02*
X035777Y001712D01*
X035778Y001791D02*
X035313Y001791D01*
X035313Y001869D02*
X035778Y001869D01*
X035778Y001948D02*
X035288Y001948D01*
X035256Y002026D02*
X035778Y002026D01*
X035778Y002105D02*
X035223Y002105D01*
X035191Y002183D02*
X035778Y002183D01*
X035778Y002262D02*
X035127Y002262D01*
X035049Y002340D02*
X035778Y002340D01*
X035778Y002419D02*
X034970Y002419D01*
X034829Y002497D02*
X035778Y002497D01*
X034075Y000927D02*
X033248Y000927D01*
X033250Y000848D02*
X034265Y000848D01*
X033923Y001005D02*
X033215Y001005D01*
X033183Y001084D02*
X033845Y001084D01*
X034181Y017421D02*
X019702Y017421D01*
X019780Y017499D02*
X034102Y017499D01*
X034024Y017578D02*
X019859Y017578D01*
X019937Y017656D02*
X033949Y017656D01*
X033949Y017735D02*
X019946Y017735D01*
X019946Y017813D02*
X033949Y017813D01*
X034403Y017813D02*
X034483Y017813D01*
X034483Y017735D02*
X034403Y017735D01*
X034403Y017656D02*
X034483Y017656D01*
X034483Y017578D02*
X034403Y017578D01*
X034403Y017499D02*
X034483Y017499D01*
X034483Y017421D02*
X034403Y017421D01*
X035138Y021741D02*
X011061Y021741D01*
X011061Y021819D02*
X035002Y021819D01*
X034764Y021898D02*
X011061Y021898D01*
X006764Y021191D02*
X002812Y021191D01*
X002734Y021269D02*
X006679Y021269D01*
X006646Y021348D02*
X002655Y021348D01*
X002470Y021426D02*
X006644Y021426D01*
X006644Y021505D02*
X001056Y021505D01*
X001117Y021583D02*
X006644Y021583D01*
X006644Y021662D02*
X001194Y021662D01*
X001299Y021741D02*
X006644Y021741D01*
X006644Y021819D02*
X001409Y021819D01*
X001605Y021898D02*
X006644Y021898D01*
X001849Y021426D02*
X000994Y021426D01*
X000950Y021348D02*
X001663Y021348D01*
X001585Y021269D02*
X000917Y021269D01*
X000883Y021191D02*
X001506Y021191D01*
X001428Y021112D02*
X000851Y021112D01*
X000835Y021034D02*
X001392Y021034D01*
X001359Y020955D02*
X000825Y020955D01*
X000825Y020877D02*
X001327Y020877D01*
X001294Y020798D02*
X000825Y020798D01*
X000825Y020719D02*
X001289Y020719D01*
X001289Y020641D02*
X000825Y020641D01*
X000825Y020562D02*
X001289Y020562D01*
X001289Y020484D02*
X000825Y020484D01*
X000825Y020405D02*
X001304Y020405D01*
X001337Y020327D02*
X000825Y020327D01*
X000825Y020248D02*
X001369Y020248D01*
X001402Y020170D02*
X000825Y020170D01*
X000825Y020091D02*
X001452Y020091D01*
X001530Y020013D02*
X000825Y020013D01*
X000825Y019934D02*
X001609Y019934D01*
X001716Y019855D02*
X000825Y019855D01*
X000825Y019777D02*
X001906Y019777D01*
X002139Y019227D02*
X000825Y019227D01*
X000825Y019149D02*
X002061Y019149D01*
X002009Y019070D02*
X000825Y019070D01*
D17*
X002239Y019002D03*
X003407Y017750D03*
X003714Y017750D03*
X007785Y017901D03*
X008105Y017741D03*
X008745Y017821D03*
X008505Y018061D03*
X009945Y018141D03*
X009148Y021007D03*
X008882Y021007D03*
X002159Y013724D03*
X002159Y012740D03*
X003144Y007818D03*
X003537Y007228D03*
X003144Y006834D03*
X004325Y007425D03*
X011214Y005653D03*
X012789Y004275D03*
X014431Y004472D03*
X014431Y004866D03*
X014665Y005981D03*
X014659Y006440D03*
X015151Y007425D03*
X017514Y004669D03*
X017907Y003291D03*
X017625Y002301D03*
X019465Y001981D03*
X015151Y003488D03*
X013145Y003021D03*
X013225Y002221D03*
X013355Y001716D03*
X014924Y000732D03*
X011214Y002700D03*
X009049Y002897D03*
X032081Y005456D03*
X035033Y007031D03*
D18*
X012905Y000701D03*
X012105Y000701D03*
X011305Y000701D03*
D19*
X010821Y007425D03*
M02*
